<svg width="174" height="174" viewBox="0 0 174 174" fill="none" xmlns="http://www.w3.org/2000/svg">
<g clip-path="url(#clip0_7_1443)">
<path d="M162.045 46.4192C184.384 78.0271 172.441 123.995 130.692 145.511C91.4714 165.718 43.6388 162.323 26.6629 142.516C0.956897 112.523 16.4443 62.4531 54.8025 32.8258C91.9557 4.13002 139.139 14.0215 162.045 46.4192Z" fill="#0259DD"/>
<path d="M136.221 70.0338C152.842 93.5422 143.864 127.791 112.688 143.86C83.4028 158.963 47.7263 156.499 35.0977 141.773C15.9718 119.479 27.5962 82.177 56.2438 60.0598C84.8913 37.9425 119.174 45.9359 136.209 70.0338H136.221Z" fill="#4084E8"/>
<path d="M110.385 93.6365C121.277 109.034 115.275 131.564 94.6846 142.21C75.3342 152.207 51.8255 150.686 43.5325 141.042C30.9748 126.435 38.7362 101.901 57.685 87.2937C76.0431 73.1462 99.2092 77.8502 110.385 93.6365Z" fill="#7DAFF4"/>
<path d="M84.5605 117.239C89.7348 124.537 86.6988 135.348 76.681 140.559C67.2775 145.452 55.9248 144.862 51.9673 140.3C45.9897 133.391 49.8763 121.613 59.1262 114.516C68.0808 107.643 79.2445 109.753 84.5487 117.239H84.5605Z" fill="#BBDAFF"/>
<path d="M162.045 46.4192C184.384 78.0271 172.441 123.995 130.692 145.511C91.4714 165.718 43.6388 162.323 26.6629 142.516C0.956897 112.523 16.4443 62.4531 54.8025 32.8258C91.9557 4.13002 139.139 14.0215 162.045 46.4192Z" stroke="#CFE7FF" stroke-width="1.5" stroke-miterlimit="10"/>
<path d="M136.221 70.0338C152.842 93.5422 143.864 127.791 112.688 143.86C83.4028 158.963 47.7263 156.499 35.0977 141.773C15.9718 119.479 27.5962 82.177 56.2438 60.0598C84.8913 37.9425 119.174 45.9359 136.209 70.0338H136.221Z" stroke="#CFE7FF" stroke-width="1.5" stroke-miterlimit="10"/>
<path d="M110.385 93.6365C121.277 109.034 115.275 131.564 94.6846 142.21C75.3342 152.207 51.8255 150.686 43.5325 141.042C30.9748 126.435 38.7362 101.901 57.685 87.2937C76.0431 73.1462 99.2092 77.8502 110.385 93.6365Z" stroke="#CFE7FF" stroke-width="1.5" stroke-miterlimit="10"/>
<path d="M84.5605 117.239C89.7348 124.537 86.6988 135.348 76.681 140.559C67.2775 145.452 55.9248 144.862 51.9673 140.3C45.9897 133.391 49.8763 121.613 59.1262 114.516C68.0808 107.643 79.2445 109.753 84.5487 117.239H84.5605Z" stroke="#CFE7FF" stroke-width="1.5" stroke-miterlimit="10"/>
<path d="M40.1512 74.5684C44.3309 61.978 39.2542 48.9728 28.8123 45.5203C18.3703 42.0679 6.51716 49.4757 2.33755 62.066C-1.84207 74.6564 3.23457 87.6616 13.6765 91.114C24.1185 94.5665 35.9716 87.1587 40.1512 74.5684Z" fill="white"/>
<path d="M18.937 92.8466C17.0822 92.8466 15.2275 92.5636 13.4083 91.9624C2.51629 88.3665 -2.81157 74.8321 1.51214 61.7928C3.60312 55.509 7.59606 50.2626 12.7703 47.0323C18.0037 43.7666 23.7923 42.9295 29.1083 44.6862C34.4125 46.4428 38.5709 50.5692 40.8036 56.2989C43.0245 61.9815 43.0954 68.5718 41.0044 74.8557C37.4013 85.7139 28.2105 92.8584 18.9488 92.8584L18.937 92.8466ZM23.5206 45.5468C20.2128 45.5468 16.846 46.5489 13.7036 48.5178C8.88373 51.5359 5.13887 56.4404 3.18965 62.3352C-0.826915 74.4431 4.00478 86.9754 13.9635 90.2647C23.9222 93.554 35.2986 86.3859 39.3151 74.278C41.2761 68.3832 41.2053 62.2173 39.1497 56.9237C37.106 51.6892 33.3375 47.9283 28.5413 46.3485C26.911 45.8062 25.2217 45.5468 23.5206 45.5468Z" fill="#CFE7FF"/>
<path d="M27.333 66.1864C29.7952 58.7694 26.8107 51.11 20.6669 49.0787C14.5231 47.0474 7.54656 51.4133 5.08434 58.8303C2.62212 66.2473 5.60662 73.9067 11.7504 75.938C17.8942 77.9693 24.8707 73.6034 27.333 66.1864Z" fill="black"/>
<path d="M68.0932 84.0128C73.2947 71.8075 69.3052 58.4301 59.1826 54.1337C49.0599 49.8372 36.6373 56.2486 31.4359 68.4539C26.2345 80.6593 30.2239 94.0366 40.3466 98.3331C50.4692 102.63 62.8918 96.2181 68.0932 84.0128Z" fill="white"/>
<path d="M46.982 100.569C44.5839 100.569 42.233 100.097 40.0003 99.154C29.4509 94.6739 25.2453 80.7505 30.6204 68.112C36.0073 55.4736 48.9667 48.8361 59.5279 53.3161C64.6667 55.4972 68.4706 59.9536 70.2308 65.8484C71.9674 71.6843 71.4949 78.2629 68.9077 84.3581C66.3088 90.4533 61.8906 95.3459 56.4682 98.1519C53.3613 99.7552 50.1244 100.569 46.9702 100.569H46.982ZM52.5816 53.6816C44.513 53.6816 36.22 59.5174 32.2625 68.8076C27.2654 80.55 31.0457 93.436 40.6973 97.527C45.3518 99.4959 50.656 99.1658 55.6649 96.5839C60.721 93.9666 64.8439 89.3804 67.2893 83.6743C69.7229 77.9563 70.1718 71.814 68.5533 66.3672C66.9467 60.9793 63.509 56.9237 58.8545 54.9549C56.8344 54.0942 54.7198 53.6934 52.5934 53.6934L52.5816 53.6816Z" fill="#CFE7FF"/>
<path d="M55.2131 75.0147C58.2773 67.8245 55.933 59.9465 49.9771 57.4185C44.0212 54.8906 36.709 58.6701 33.6448 65.8603C30.5807 73.0505 32.9249 80.9285 38.8808 83.4565C44.8367 85.9844 52.1489 82.2049 55.2131 75.0147Z" fill="black"/>
<path d="M40.8272 36.0562C39.7049 36.8107 36.7988 34.8301 33.2194 33.4035C29.6399 31.977 29.5454 28.5344 31.5655 26.5656C33.5856 24.5967 37.5076 25.3395 40.0593 27.9685C42.6228 30.5858 41.8077 35.4078 40.8272 36.068V36.0562Z" fill="black"/>
<path d="M48.8131 36.9404C49.451 38.1311 52.9478 37.7303 56.7872 38.1194C60.6265 38.5084 62.3158 35.5139 61.4416 32.8376C60.5674 30.1614 56.7635 28.9942 53.2667 30.126C49.7818 31.2578 48.2579 35.9029 48.8131 36.9404Z" fill="black"/>
<path d="M84.5605 117.239C89.7348 124.537 86.6987 135.348 76.681 140.559C67.2775 145.452 55.9248 144.862 51.9673 140.3C45.9897 133.391 49.8763 121.613 59.1262 114.516C68.0808 107.642 79.2445 109.753 84.5487 117.239H84.5605Z" fill="white"/>
<path d="M113.665 119.018L86.8815 124.175L87.2172 125.912L114 120.755L113.665 119.018Z" fill="#CFE7FF"/>
<path d="M111.082 126.289L110.903 128.048L131.083 130.09L131.262 128.331L111.082 126.289Z" fill="#CFE7FF"/>
<path d="M125.331 135.21L124.709 136.866L138.107 141.873L138.728 140.217L125.331 135.21Z" fill="#CFE7FF"/>
</g>
<defs>
<clipPath id="clip0_7_1443">
<rect width="174" height="145" fill="white" transform="translate(0 15)"/>
</clipPath>
</defs>
</svg>