<svg width="146" height="132" viewBox="0 0 146 132" fill="none" xmlns="http://www.w3.org/2000/svg">
<path d="M38.0557 16.4072C71.429 -9.48118 113.66 -0.813903 134.529 28.0342L135.018 28.7197C155.111 57.2735 144.466 98.9787 106.607 118.575C88.7735 127.804 68.9776 131.642 51.7275 130.913C34.4337 130.182 19.9 124.876 12.3721 116.055C0.845018 102.547 -1.49736 84.4671 3.44434 66.2969C8.38747 48.1215 20.6073 29.9385 38.0557 16.4072Z" fill="white" stroke="#84AFFB" stroke-width="2"/>
<path d="M27.1442 59.2812V69.4844H25.3942V59.2812H27.1442ZM27.5348 71.7031V73.1094H17.8004V68.4531H19.5504V71.7031H27.5348ZM19.441 60.2031C21.5817 60.2031 23.2379 61.6875 23.2379 63.7344C23.2379 65.8281 21.5817 67.2812 19.441 67.2812C17.2848 67.2812 15.6285 65.8281 15.6285 63.7344C15.6285 61.6875 17.2848 60.2031 19.441 60.2031ZM19.441 61.7188C18.2379 61.7188 17.316 62.5156 17.3317 63.7344C17.316 64.9844 18.2379 65.7656 19.441 65.7656C20.6129 65.7656 21.5348 64.9844 21.5348 63.7344C21.5348 62.5156 20.6129 61.7188 19.441 61.7188ZM35.566 68.0938C38.6285 68.1094 40.566 69.0781 40.5817 70.75C40.566 72.3906 38.6285 73.375 35.566 73.375C32.5192 73.375 30.566 72.3906 30.566 70.75C30.566 69.0781 32.5192 68.1094 35.566 68.0938ZM35.566 69.4062C33.5348 69.4062 32.3004 69.8906 32.316 70.75C32.3004 71.5781 33.5348 72.0312 35.566 72.0312C37.6129 72.0312 38.8473 71.5781 38.8629 70.75C38.8473 69.8906 37.6129 69.4062 35.566 69.4062ZM40.4879 59.9375V61.1094C40.4879 62.2188 40.4879 63.4062 40.0973 64.8594L38.3785 64.7031C38.7301 63.3281 38.7535 62.3359 38.7535 61.3125H30.7067V59.9375H40.4879ZM42.0504 65.6719V67.0781H29.2379V65.6719H34.2067V63.1094H35.9254V65.6719H42.0504ZM48.3629 63.2812C48.3629 65.5938 49.7223 68.0312 52.0035 68.9844L51.0504 70.3594C49.3785 69.6406 48.1598 68.1562 47.5192 66.3594C46.8629 68.2969 45.6285 69.9219 43.9723 70.7031L42.9723 69.3438C45.2067 68.3125 46.5973 65.6875 46.5973 63.2812V62.0938H43.4879V60.6562H51.4567V62.0938H48.3629V63.2812ZM54.7848 59.2656V73.3906H53.0348V59.2656H54.7848ZM68.2848 62.9375V64.3438H58.5348V59.5156H60.2692V62.9375H68.2848ZM69.7535 65.7031V67.1094H56.8629V65.7031H69.7535ZM63.2848 68.125C66.3317 68.1406 68.1598 69.0781 68.1754 70.7344C68.1598 72.3906 66.3317 73.3281 63.2848 73.3281C60.2067 73.3281 58.3629 72.3906 58.3629 70.7344C58.3629 69.0781 60.2067 68.1406 63.2848 68.125ZM63.2848 69.4844C61.2223 69.5 60.1129 69.8906 60.1285 70.7344C60.1129 71.5469 61.2223 72 63.2848 72C65.3004 72 66.4254 71.5469 66.441 70.7344C66.4254 69.8906 65.3004 69.5 63.2848 69.4844ZM77.816 60.3281C79.4801 60.3281 80.7535 61.4531 81.0192 63.1719H82.1442V59.5156H83.7535V69.375H82.1442V64.5938H81.0035C80.7145 66.25 79.4567 67.3438 77.816 67.3438C75.941 67.3438 74.5817 65.9062 74.5817 63.8438C74.5817 61.75 75.941 60.3281 77.816 60.3281ZM77.816 61.8125C76.8317 61.8125 76.1285 62.6094 76.1442 63.8438C76.1285 65.0781 76.8317 65.8438 77.816 65.8438C78.7848 65.8438 79.5035 65.0781 79.5192 63.8438C79.5035 62.6094 78.7848 61.8125 77.816 61.8125ZM86.566 59.2656V69.7969H84.9098V59.2656H86.566ZM86.9567 71.7031V73.1094H77.1129V68.4375H78.8473V71.7031H86.9567ZM93.6442 63.2812C93.6442 65.5938 95.0035 68.0312 97.2848 68.9844L96.3317 70.3594C94.6598 69.6406 93.441 68.1562 92.8004 66.3594C92.1442 68.2969 90.9098 69.9219 89.2535 70.7031L88.2535 69.3438C90.4879 68.3125 91.8785 65.6875 91.8785 63.2812V62.0938H88.7692V60.6562H96.7379V62.0938H93.6442V63.2812ZM100.066 59.2656V73.3906H98.316V59.2656H100.066ZM113.925 59.2656V73.3906H112.207V59.2656H113.925ZM104.675 60.6406V68.3594C106.66 68.3281 108.769 68.1484 110.941 67.7188L111.16 69.1719C108.675 69.6875 106.363 69.8438 104.175 69.8438H102.957V60.6406H104.675ZM119.832 60.2969C121.746 60.2969 123.16 61.8906 123.41 64.4688H126.097V59.2656H127.816V73.4062H126.097V65.875H123.425C123.238 68.6016 121.8 70.2812 119.832 70.2812C117.707 70.2812 116.207 68.3594 116.207 65.2812C116.207 62.2344 117.707 60.2969 119.832 60.2969ZM119.832 61.8594C118.66 61.8594 117.863 63.125 117.879 65.2812C117.863 67.4531 118.66 68.7188 119.832 68.7188C121.004 68.7188 121.785 67.4531 121.8 65.2812C121.785 63.125 121.004 61.8594 119.832 61.8594Z" fill="black"/>
</svg>
