<svg viewBox="0 0 1920 1081" fill="none" xmlns="http://www.w3.org/2000/svg">
<path d="M100 0H1920V1040H400C234.32 1040 100 905.68 100 740V0Z" fill="white"/>
<path d="M103.39 1036.61C119.63 1052.85 137.21 1067.35 156 1080H163.22C142.89 1066.77 123.77 1051.34 106.22 1033.78C40.3 967.86 4 880.22 4 787V70H50V762C50 849.61 84.12 931.98 146.07 993.93C188.47 1036.33 240.45 1065.69 297.12 1080H315.5C252.78 1067.81 195.09 1037.29 148.9 991.1C87.7 929.9 54 848.54 54 762V110H100V106H54V0H50V66H4V0H0V787.02C0 834.67 9.34 880.89 27.74 924.4C45.52 966.44 70.97 1004.19 103.39 1036.6V1036.61Z" fill="#84AFFB"/>
<path d="M65.89 1074.12C39.58 1047.81 17.51 1018.26 0 985.94V994.16C17.1 1024.36 38.2 1052.1 63.06 1076.96C64.09 1077.99 65.15 1079 66.19 1080.02H71.91C69.89 1078.08 67.87 1076.12 65.88 1074.14L65.89 1074.12Z" fill="#84AFFB"/>
</svg>
