<svg width="20" height="20" viewBox="0 0 20 20" fill="none" xmlns="http://www.w3.org/2000/svg">
<g clip-path="url(#clip0_7_2183)">
<path d="M9.99999 19.8899C4.54678 19.8899 0.110229 15.4533 0.110229 10.0001C0.110229 4.5469 4.54678 0.110352 9.99999 0.110352C15.4532 0.110352 19.8898 4.5469 19.8898 10.0001C19.8898 15.4533 15.4532 19.8899 9.99999 19.8899Z" fill="white"/>
<path d="M10 0.22048C12.6127 0.22048 15.0674 1.23714 16.9145 3.08427C18.7616 4.93141 19.7783 7.38731 19.7783 9.99877C19.7783 12.6102 18.7616 15.0661 16.9145 16.9133C15.0674 18.7604 12.6115 19.7771 10 19.7771C7.38853 19.7771 4.93263 18.7604 3.0855 16.9133C1.23714 15.0674 0.22048 12.6115 0.22048 10C0.22048 7.38853 1.23714 4.93141 3.08427 3.08427C4.93141 1.23714 7.38731 0.22048 10 0.22048ZM10 0C4.47697 0 0 4.47697 0 10C0 15.523 4.47697 20 10 20C15.523 20 20 15.523 20 10C20 4.47697 15.523 0 10 0Z" fill="#144DA0"/>
<path d="M4.12414 16.1331C4.2111 16.1698 4.265 16.1147 4.32134 16.0596L4.5112 15.8746L4.29562 15.6529L4.40341 15.5488L4.61899 15.7705L4.87377 15.5231L5.0428 15.697L4.48548 16.2396C4.38749 16.3352 4.2748 16.3438 4.17926 16.3046C4.19273 16.4087 4.16333 16.5116 4.08249 16.59C3.9502 16.7186 3.70767 16.7357 3.49087 16.5152C3.31816 16.3401 3.25447 16.0914 3.4333 15.9224C3.61826 15.7472 3.86324 15.8342 4.0237 15.9983C4.06412 16.04 4.09841 16.0853 4.12414 16.1331ZM3.60233 16.0963C3.52027 16.1759 3.49699 16.3046 3.59988 16.4087C3.70278 16.5128 3.82526 16.5018 3.91346 16.4148C4.01635 16.3144 4.00287 16.1931 3.91468 16.1037C3.81424 16.0008 3.68563 16.0143 3.60233 16.0951V16.0963ZM4.35687 15.2867L4.34094 15.3026C4.18416 15.4545 4.12414 15.6872 4.25888 15.915L4.15353 15.9444C4.09719 15.9604 4.05677 15.9114 4.04207 15.8771C3.99062 15.7644 3.96 15.577 4.0237 15.4447C3.87059 15.5108 3.6599 15.4765 3.55946 15.4239C3.52149 15.4043 3.47617 15.3675 3.49944 15.2989L3.53374 15.196C3.73707 15.3234 3.98083 15.2952 4.16333 15.1176L4.17926 15.1017L3.96 14.8763L4.06779 14.7722L4.68759 15.4092L4.5798 15.5133L4.35809 15.2854L4.35687 15.2867Z" fill="#144DA0"/>
<path d="M5.42499 16.9942L5.27187 17.2233L5.81083 17.5834L5.72753 17.7083L4.47937 16.8742L4.56266 16.7492L5.06732 17.0861L5.22043 16.857L5.03302 16.7321C4.91911 16.6561 4.91053 16.563 4.96933 16.4736L5.30127 15.9763L5.5046 16.1123L5.37231 16.3107L5.87574 16.6476L6.00803 16.4491L6.21014 16.5839L5.85615 17.113C5.79858 17.1988 5.75938 17.2171 5.66751 17.1559L5.42621 16.9942H5.42499ZM5.28902 16.4357L5.18981 16.5839C5.16776 16.6182 5.17143 16.6451 5.2094 16.6708L5.65894 16.9709L5.79123 16.7725L5.2878 16.4357H5.28902Z" fill="#144DA0"/>
<path d="M7.07119 18.3649C6.98789 18.5707 6.75517 18.5964 6.52734 18.5033C6.29951 18.4102 6.15007 18.2302 6.23459 18.0244C6.3191 17.8186 6.55306 17.7916 6.77966 17.8835C7.00627 17.9754 7.1557 18.1579 7.07241 18.3637L7.07119 18.3649ZM6.45874 18.1162C6.4171 18.2191 6.46364 18.3196 6.58246 18.3686C6.70127 18.4176 6.80416 18.3771 6.84703 18.2743C6.8899 18.1714 6.84703 18.0746 6.72332 18.0244C6.5996 17.9742 6.50161 18.0146 6.45997 18.1175L6.45874 18.1162ZM7.39333 17.7488L7.01484 17.5944L6.96217 17.7231L7.54889 17.9607L7.49377 18.0966L6.10107 17.5307L6.15619 17.3948L6.73434 17.63L6.78701 17.5013L6.54693 17.4034C6.44894 17.3642 6.41097 17.2662 6.45017 17.1706L6.62165 16.7493L7.61626 17.1535L7.56114 17.2894L6.79314 16.9771L6.76006 17.0592L7.52807 17.3715L7.47295 17.5075L6.70494 17.1951L6.6927 17.2257C6.67432 17.2698 6.68535 17.3029 6.73802 17.3237L7.44968 17.6128L7.39456 17.7488H7.39333Z" fill="#144DA0"/>
<path d="M8.13203 18.7298C8.1259 18.7641 8.1406 18.7837 8.17368 18.7898L8.97353 18.9319L8.94658 19.0813L8.04996 18.9221C7.9483 18.9037 7.86255 18.8412 7.8895 18.6918L7.95197 18.3403L8.19205 18.3831L8.1308 18.7298H8.13203ZM9.21606 17.4792L9.03232 18.5105C9.0213 18.5705 8.98333 18.6171 8.90738 18.6024L8.73835 18.5718C8.75917 18.562 8.77755 18.5448 8.78367 18.5044L8.97353 17.4351L9.21606 17.4779V17.4792ZM8.4358 17.4057L8.40396 17.5821C8.36598 17.7976 8.4554 18.0438 8.69548 18.1504L8.62444 18.2349C8.57789 18.2925 8.52154 18.2557 8.4897 18.2398C8.38926 18.1822 8.26187 18.0279 8.23002 17.8895C8.15898 18.0144 7.95075 18.1406 7.84051 18.1553C7.79763 18.1614 7.73639 18.1675 7.71557 18.0977L7.6825 17.9973C7.92135 17.9667 8.10998 17.7891 8.1553 17.538L8.18715 17.3616L8.43458 17.4057H8.4358Z" fill="#144DA0"/>
<path d="M10.7325 18.8094C10.7325 18.8706 10.7018 18.9221 10.6247 18.9233H10.4544C10.4752 18.9123 10.4875 18.8915 10.4875 18.851L10.474 17.5049L10.7202 17.5024L10.7325 18.8094ZM9.97303 17.767C9.97303 17.7462 9.96691 17.7205 9.92404 17.7217L9.43408 17.7266V17.5784L10.0282 17.5723C10.1739 17.571 10.2107 17.6445 10.2107 17.7413V17.8356C10.2131 18.0487 10.147 18.219 10.0282 18.3611C9.91669 18.4922 9.77828 18.5889 9.59087 18.6612C9.53575 18.682 9.5039 18.6661 9.48185 18.6183L9.44021 18.5338C9.63986 18.4468 9.76603 18.3525 9.85422 18.2337C9.96201 18.0879 9.98038 17.9201 9.97426 17.7682L9.97303 17.767Z" fill="#144DA0"/>
<path d="M12.5514 18.6699C12.5649 18.7299 12.5453 18.7875 12.4693 18.8034L12.3052 18.8402C12.3223 18.823 12.3309 18.801 12.3223 18.7606L12.2611 18.4825L11.3951 18.6736L11.3632 18.5266L12.3664 18.3049C12.4387 18.289 12.4742 18.311 12.4889 18.3796L12.5526 18.6687L12.5514 18.6699ZM11.7822 17.6006C11.8226 17.6349 11.8507 17.6802 11.8642 17.7402C11.8961 17.8872 11.8054 17.9999 11.678 18.0636L11.6976 18.1542L11.9193 18.1052C12.0455 18.0771 12.1239 18.0366 12.1668 17.9901L11.9977 17.2258L12.2341 17.1731L12.4399 18.1003C12.4534 18.1604 12.4399 18.2351 12.364 18.2522L12.1998 18.289C12.217 18.2718 12.2207 18.2314 12.2121 18.191L12.1998 18.1371C12.1386 18.1947 12.048 18.2314 11.9598 18.251L11.0974 18.4421L11.0656 18.2951L11.4649 18.2069L11.4453 18.1199C11.2971 18.1199 11.1562 18.0562 11.1232 17.9056C11.1097 17.8456 11.117 17.7929 11.1391 17.7451L10.9798 17.7806L10.9468 17.6312L11.3228 17.5479L11.2738 17.3299L11.5139 17.2772L11.5298 17.3507C11.5457 17.4217 11.5335 17.4769 11.4772 17.5136L11.9193 17.4156L11.9524 17.5651L11.7809 17.603L11.7822 17.6006ZM11.5237 17.9656C11.6143 17.946 11.6535 17.8774 11.6352 17.7917C11.6143 17.6973 11.5506 17.6569 11.4612 17.6765C11.3718 17.6961 11.3314 17.7598 11.3522 17.8505C11.373 17.9411 11.4392 17.9852 11.5237 17.9656Z" fill="#144DA0"/>
<path d="M13.7223 17.5711C13.786 17.5013 13.7517 17.4327 13.7187 17.3604L13.6537 17.2195C13.6305 17.2404 13.5974 17.2624 13.5704 17.2747L13.4565 17.3273L13.3941 17.1926L13.5423 17.124C13.5619 17.1142 13.5815 17.1032 13.5937 17.0897L13.5582 17.0138C13.5386 17.0162 13.5153 17.0236 13.4957 17.0321L13.35 17.0995L13.2875 16.9648L13.4051 16.9109C13.4284 16.8998 13.4676 16.8864 13.4982 16.8839L13.3941 16.661L13.6145 16.5593L13.9416 17.2649C13.9992 17.3886 13.9698 17.4988 13.9024 17.5748C14.0041 17.5968 14.0922 17.6581 14.14 17.7609C14.2184 17.9288 14.1535 18.1627 13.873 18.295C13.6501 18.4003 13.3953 18.3783 13.2948 18.1529C13.1907 17.9202 13.3536 17.7168 13.5619 17.6213C13.6145 17.5968 13.6697 17.5797 13.7223 17.5711ZM13.5153 18.0512C13.5631 18.1554 13.677 18.2191 13.8093 18.1578C13.9416 18.0966 13.9722 17.9765 13.9195 17.8638C13.8583 17.7328 13.7407 17.7058 13.6256 17.7597C13.4945 17.821 13.4651 17.9459 13.5141 18.0525L13.5153 18.0512ZM13.5839 17.451C13.5472 17.4951 13.4896 17.538 13.4161 17.5723L12.7155 17.8969L12.653 17.7622L12.8416 17.6752C12.7988 17.6826 12.7669 17.6666 12.7424 17.6152L12.5807 17.2661L12.4509 17.3261L12.3884 17.1901L13.2397 16.7957L13.3022 16.9317L13.1589 16.9978L13.3132 17.3322C13.3426 17.3959 13.3377 17.4253 13.3059 17.4608L13.3598 17.4363C13.4137 17.4118 13.4737 17.369 13.5202 17.3163L13.5827 17.4523L13.5839 17.451ZM12.9494 17.0946L12.7902 17.1681L12.958 17.5294C12.9788 17.5735 13.0009 17.6017 13.0437 17.5821L13.1025 17.5552C13.143 17.5368 13.1393 17.5013 13.1209 17.4633L12.9507 17.0958L12.9494 17.0946Z" fill="#144DA0"/>
<path d="M15.1322 16.1785C15.1371 16.154 15.1432 16.1148 15.2057 16.0695L15.3233 15.9825L15.4115 16.1038L15.1935 16.263L15.5854 16.7971C15.6209 16.8461 15.6283 16.9061 15.5658 16.9514L15.4286 17.0518C15.4372 17.0298 15.436 17.0053 15.4115 16.9722L14.6165 15.8882L14.8137 15.7437L15.131 16.176L15.1322 16.1785ZM14.3924 16.3745C14.3801 16.3585 14.3605 16.3402 14.3262 16.3659L13.9306 16.6562L13.8424 16.5374L14.3226 16.1846C14.4402 16.0976 14.5124 16.1368 14.57 16.2152L14.6263 16.2912C14.7525 16.4627 14.7978 16.6403 14.7843 16.8252C14.7696 16.9967 14.7145 17.156 14.6043 17.325C14.5712 17.374 14.5369 17.3789 14.4904 17.3532L14.4071 17.3091C14.5173 17.1217 14.5663 16.9722 14.5675 16.824C14.57 16.6427 14.4867 16.4957 14.3924 16.3757V16.3745Z" fill="#144DA0"/>
<path d="M16.3902 16.171C16.4159 16.1943 16.4416 16.1918 16.4637 16.1674L17.0308 15.5353L17.1435 15.637L16.5102 16.3425C16.4404 16.4197 16.3436 16.4589 16.2309 16.3572L16.0521 16.1967L16.215 16.0155L16.3902 16.1722V16.171ZM16.2505 15.6235L16.4673 15.3822L15.7594 14.7465L15.9235 14.5627L16.7723 15.3246C16.8177 15.365 16.8348 15.4238 16.7834 15.4814L16.6694 15.6076C16.6731 15.5843 16.667 15.561 16.6364 15.5329L16.5764 15.479L16.3596 15.7203L16.2505 15.6223V15.6235ZM15.6295 16.1759L15.5181 16.0755L15.9676 15.5745C16.0301 15.5047 16.1415 15.3834 16.1807 15.2511L16.2959 15.3552C16.2689 15.452 16.1525 15.5929 16.0815 15.6725L16.0105 15.7509L16.1097 15.8403C16.155 15.8807 16.1721 15.9395 16.1207 15.9971L16.0068 16.1233C16.0105 16.1 16.0043 16.0767 15.9737 16.0485L15.8451 15.9334L15.6271 16.1759H15.6295ZM15.8402 15.1237C15.9847 15.2536 15.9566 15.4716 15.7949 15.6504C15.6381 15.8256 15.4237 15.8795 15.278 15.7497C15.1322 15.6198 15.1628 15.4006 15.3208 15.2254C15.4813 15.0466 15.6969 14.9951 15.8402 15.1237ZM15.6822 15.5488C15.7581 15.4643 15.7581 15.3675 15.6822 15.3001C15.6062 15.2328 15.5095 15.2426 15.436 15.3259C15.3662 15.403 15.3662 15.5035 15.4372 15.5684C15.5132 15.637 15.6136 15.6272 15.6822 15.55V15.5488Z" fill="#144DA0"/>
<path d="M1.92298 13.5546L1.88623 13.4713L2.47295 13.2153L2.5097 13.2986L1.92298 13.5546Z" fill="#231815"/>
<path d="M1.87889 12.8698C1.89972 12.8233 1.94259 12.789 2.00751 12.7645L2.26963 12.6689L2.30026 12.751L2.04793 12.8429C2.00383 12.8588 1.97444 12.8821 1.95974 12.9115C1.94504 12.9409 1.94504 12.9752 1.95974 13.0144C1.97566 13.0597 2.00138 13.0891 2.03691 13.1062C2.07243 13.1222 2.11407 13.1222 2.16307 13.1038L2.39825 13.018L2.42887 13.1001L1.97321 13.2655L1.94381 13.1858L2.01241 13.1614C1.98301 13.1528 1.95606 13.1369 1.93401 13.1136C1.91074 13.0903 1.89359 13.0597 1.88012 13.0242C1.8593 12.9666 1.8593 12.9139 1.88012 12.8674L1.87889 12.8698Z" fill="#231815"/>
<path d="M2.2158 12.5514C2.2158 12.5893 2.21213 12.6212 2.20233 12.6457L2.12516 12.631C2.13374 12.6065 2.13741 12.5783 2.13741 12.5465C2.13741 12.5146 2.13251 12.484 2.12394 12.4546C2.10189 12.3811 2.06882 12.3505 2.02717 12.364C2.0137 12.3689 2.0039 12.3762 1.999 12.3885C1.9941 12.4007 1.99165 12.4154 1.99287 12.4313C1.99287 12.4473 1.99532 12.4693 2.00022 12.4987C2.00635 12.5379 2.0088 12.5697 2.00757 12.5967C2.00757 12.6224 2.00022 12.6469 1.98797 12.669C1.9745 12.691 1.95245 12.7082 1.91938 12.718C1.87773 12.7314 1.83854 12.7241 1.80179 12.6959C1.76627 12.669 1.7381 12.6261 1.72095 12.5673C1.71115 12.5367 1.70625 12.5048 1.7038 12.4705C1.70135 12.4375 1.7038 12.4093 1.71115 12.3848L1.78832 12.4007C1.77607 12.446 1.77729 12.495 1.79322 12.5452C1.80424 12.5808 1.81771 12.6065 1.83609 12.6212C1.85324 12.6359 1.87161 12.6408 1.89121 12.6347C1.90591 12.6298 1.91693 12.6212 1.92183 12.6077C1.92795 12.5942 1.9304 12.5795 1.92918 12.5624C1.92918 12.5452 1.92673 12.522 1.92305 12.4926C1.91816 12.4534 1.91571 12.4215 1.91571 12.3958C1.91571 12.3701 1.92183 12.3468 1.9353 12.3248C1.94755 12.3027 1.9696 12.288 2.00145 12.2782C2.04309 12.2647 2.08229 12.2733 2.11781 12.3015C2.15333 12.3297 2.18151 12.375 2.19988 12.4362C2.21213 12.4742 2.21703 12.5122 2.21825 12.5501L2.2158 12.5514Z" fill="#231815"/>
<path d="M2.02713 11.928C2.0406 11.9378 2.05285 11.9513 2.06265 11.9684C2.07245 11.9855 2.0798 12.0039 2.0847 12.0235C2.09572 12.0713 2.09082 12.1105 2.07122 12.1423C2.05163 12.1742 2.01855 12.1962 1.97078 12.2073L1.71111 12.2673L1.72948 12.3481L1.65966 12.364L1.64129 12.2832L1.5384 12.3065L1.5188 12.2207L1.62169 12.1975L1.59107 12.0615L1.66089 12.0456L1.69151 12.1815L1.94751 12.1227C1.97323 12.1166 1.99161 12.1056 2.00141 12.0897C2.01243 12.0737 2.01488 12.0541 2.00875 12.0296C2.00263 12.0039 1.99038 11.9831 1.97078 11.9684L2.0259 11.928H2.02713Z" fill="#231815"/>
<path d="M1.56039 11.9672L1.54079 11.8815L2.0136 11.7737L2.0332 11.8594L1.56039 11.9672ZM1.45383 11.9905C1.44525 12.004 1.43423 12.0125 1.4183 12.0162C1.40238 12.0199 1.38891 12.0162 1.37543 12.0089C1.36196 12.0003 1.35339 11.988 1.34971 11.9709C1.34604 11.9537 1.34849 11.939 1.35584 11.9256C1.36318 11.9121 1.37543 11.9035 1.39136 11.8998C1.40728 11.8962 1.42198 11.8986 1.43545 11.9072C1.44893 11.9158 1.4575 11.928 1.46118 11.9452C1.46485 11.9623 1.4624 11.977 1.45505 11.9905H1.45383Z" fill="#231815"/>
<path d="M1.93164 11.4099C1.94389 11.4209 1.95491 11.4356 1.96226 11.454C1.97084 11.4724 1.97574 11.4908 1.97818 11.5104C1.98431 11.5581 1.97696 11.5973 1.95369 11.6279C1.93164 11.6586 1.89612 11.6757 1.84712 11.6831L1.58377 11.7174L1.59479 11.7994L1.52375 11.8092L1.51273 11.7272L1.40739 11.7406L1.39636 11.6537L1.5017 11.6402L1.48333 11.5018L1.55437 11.492L1.57275 11.6304L1.83365 11.5961C1.85937 11.5924 1.87897 11.5838 1.89122 11.5691C1.90347 11.5544 1.90837 11.5349 1.90469 11.5104C1.90102 11.4834 1.89122 11.4626 1.87284 11.4454L1.93164 11.4099Z" fill="#231815"/>
<path d="M1.40369 10.9555L1.88629 10.9114L1.89364 10.9947L1.82015 11.0008C1.8471 11.0167 1.86792 11.0375 1.88384 11.0657C1.89977 11.0939 1.90957 11.1245 1.91324 11.1576C1.91937 11.2225 1.90589 11.2739 1.87404 11.3144C1.8422 11.3548 1.79075 11.3781 1.72216 11.3842L1.44411 11.4099L1.43676 11.3229L1.70501 11.2984C1.75156 11.2948 1.78585 11.2801 1.8079 11.2556C1.82995 11.2311 1.83852 11.198 1.83485 11.1551C1.83117 11.1086 1.8128 11.0743 1.7834 11.0498C1.75278 11.0253 1.71236 11.0155 1.66091 11.0204L1.41104 11.0424L1.40369 10.9555Z" fill="#231815"/>
<path d="M1.83967 10.5291C1.85069 10.5413 1.86049 10.5572 1.86662 10.5756C1.87274 10.594 1.87642 10.6136 1.87764 10.6344C1.87887 10.6834 1.86784 10.7214 1.84212 10.7495C1.8164 10.7777 1.77965 10.7924 1.73065 10.7936L1.46485 10.8034L1.4673 10.8855L1.39503 10.8879L1.39258 10.8059L1.28602 10.8096L1.28357 10.7214L1.39013 10.7177L1.38524 10.5793L1.4575 10.5768L1.4624 10.7152L1.72453 10.7067C1.75025 10.7067 1.77108 10.6981 1.78455 10.6846C1.79802 10.6711 1.80415 10.6515 1.80415 10.627C1.80415 10.6001 1.79435 10.578 1.77842 10.5597L1.84089 10.5303L1.83967 10.5291Z" fill="#231815"/>
<path d="M1.63767 10.0378V10.431C1.68054 10.4261 1.71484 10.4065 1.74056 10.3747C1.76628 10.3428 1.77976 10.3024 1.77976 10.2559C1.77976 10.1983 1.76016 10.1518 1.72096 10.1162L1.77731 10.0672C1.80303 10.0893 1.82263 10.1162 1.8361 10.1493C1.84957 10.1824 1.8557 10.2179 1.8557 10.2583C1.8557 10.3098 1.84468 10.3551 1.82385 10.3943C1.80303 10.4335 1.77363 10.4641 1.73566 10.4862C1.69769 10.5082 1.65482 10.5192 1.60705 10.5192C1.55928 10.5192 1.51763 10.5082 1.47966 10.4874C1.44169 10.4666 1.41229 10.4372 1.39147 10.4004C1.37064 10.3637 1.35962 10.322 1.35962 10.2755C1.35962 10.2289 1.37064 10.1873 1.39147 10.1518C1.41229 10.115 1.44169 10.0868 1.47966 10.0672C1.51763 10.0464 1.5605 10.0366 1.6095 10.0366C1.61562 10.0366 1.62542 10.0366 1.63644 10.0378H1.63767ZM1.47476 10.382C1.50048 10.4102 1.53355 10.4274 1.5752 10.4323V10.1211C1.53478 10.126 1.50048 10.1432 1.47476 10.1714C1.44904 10.1995 1.43556 10.2351 1.43556 10.2767C1.43556 10.3183 1.44781 10.3539 1.47353 10.382H1.47476Z" fill="#231815"/>
<path d="M1.84338 9.68514C1.82256 9.72312 1.79316 9.75374 1.75519 9.77579C1.71722 9.79783 1.67557 9.80886 1.6278 9.80886C1.58003 9.80886 1.53716 9.79783 1.50041 9.77579C1.46244 9.75374 1.43304 9.72434 1.41222 9.68514C1.3914 9.64717 1.38037 9.60308 1.38037 9.55531C1.38037 9.50754 1.3914 9.46344 1.41222 9.42547C1.43304 9.3875 1.46244 9.3581 1.50041 9.33605C1.53838 9.314 1.58003 9.30298 1.6278 9.30298C1.67557 9.30298 1.71844 9.314 1.75519 9.33605C1.79316 9.3581 1.82256 9.3875 1.84338 9.42547C1.8642 9.46344 1.87523 9.50631 1.87523 9.55531C1.87523 9.6043 1.8642 9.64717 1.84338 9.68514ZM1.77724 9.47201C1.76254 9.44752 1.74294 9.42792 1.71722 9.41444C1.69149 9.40097 1.6621 9.39362 1.6278 9.39362C1.5935 9.39362 1.5641 9.40097 1.53838 9.41444C1.51266 9.42792 1.49306 9.44752 1.47836 9.47201C1.46489 9.49651 1.45754 9.52468 1.45754 9.55531C1.45754 9.58593 1.46489 9.6141 1.47836 9.6386C1.49184 9.6631 1.51266 9.68269 1.53838 9.69739C1.5641 9.71209 1.5935 9.71944 1.6278 9.71944C1.6621 9.71944 1.69149 9.71209 1.71722 9.69739C1.74294 9.68269 1.76376 9.6631 1.77724 9.6386C1.79193 9.6141 1.79928 9.58593 1.79928 9.55531C1.79928 9.52468 1.79193 9.49651 1.77724 9.47201Z" fill="#231815"/>
<path d="M1.37427 9.10096L1.41591 9.10341L1.42449 8.96254L1.49676 8.96622L1.48818 9.10463L1.89975 9.1279L1.89485 9.2161L1.48328 9.19282L1.47838 9.27489L1.40612 9.27122L1.41102 9.18915L1.36814 9.1867C1.32037 9.18425 1.2824 9.1671 1.25668 9.1377C1.22973 9.10831 1.21871 9.06789 1.22116 9.01766C1.22116 8.99807 1.22606 8.97969 1.23218 8.96377C1.23831 8.94662 1.24566 8.93315 1.25545 8.9209L1.32037 8.95152C1.30445 8.97112 1.29465 8.99317 1.29343 9.01766C1.29098 9.07034 1.3167 9.09728 1.37427 9.10096Z" fill="#231815"/>
<path d="M1.31543 8.65876L1.3289 8.56812L1.96217 8.66243L1.9487 8.75307L1.31543 8.65876Z" fill="#231815"/>
<path d="M1.64619 8.05837C1.68783 8.0302 1.74295 8.02285 1.81032 8.03632L2.08347 8.09144L2.06632 8.17719L1.80297 8.12452C1.75643 8.11472 1.71968 8.11962 1.69273 8.13676C1.66456 8.15391 1.64741 8.18331 1.63884 8.22496C1.62904 8.2715 1.63516 8.3107 1.65721 8.34377C1.67926 8.37562 1.71478 8.39767 1.76623 8.40747L2.0112 8.45646L1.99406 8.5422L1.5188 8.44666L1.53595 8.36459L1.60822 8.37929C1.58739 8.35725 1.57269 8.3303 1.56534 8.29723C1.558 8.26538 1.558 8.22986 1.56534 8.19188C1.57759 8.13186 1.60454 8.08654 1.64741 8.05837H1.64619Z" fill="#231815"/>
<path d="M1.63887 7.7707L1.67929 7.78173L1.71481 7.64576L1.78463 7.66414L1.75034 7.79887L2.14965 7.90177L2.1276 7.98628L1.72829 7.88339L1.70746 7.96301L1.63765 7.94464L1.65847 7.86502L1.61682 7.85399C1.57028 7.84175 1.5372 7.81847 1.51638 7.78418C1.49678 7.74988 1.49311 7.70823 1.50536 7.65924C1.51026 7.64086 1.51761 7.62372 1.52618 7.60779C1.53476 7.59187 1.54578 7.57962 1.55803 7.57104L1.6156 7.61392C1.596 7.62984 1.58253 7.64944 1.5764 7.67394C1.56293 7.72416 1.58375 7.75723 1.63887 7.77193V7.7707Z" fill="#231815"/>
<path d="M2.18272 7.66402C2.14843 7.69219 2.11045 7.70934 2.06758 7.71546C2.02471 7.72159 1.98062 7.71546 1.93652 7.69831C1.89242 7.68117 1.8569 7.65544 1.82995 7.62115C1.80301 7.58685 1.78708 7.54888 1.78096 7.50478C1.77606 7.46191 1.78096 7.41781 1.79933 7.37249C1.81771 7.32717 1.8422 7.29165 1.8765 7.26348C1.90957 7.23531 1.94877 7.21938 1.99164 7.21203C2.03451 7.20591 2.07738 7.21203 2.1227 7.22918C2.16802 7.24633 2.20232 7.27205 2.22927 7.30635C2.25622 7.34065 2.27214 7.37862 2.27826 7.42271C2.28439 7.46558 2.27826 7.50968 2.25989 7.555C2.24152 7.60032 2.21579 7.63584 2.18272 7.66402ZM2.19987 7.44109C2.1962 7.41291 2.18395 7.38719 2.16557 7.36514C2.1472 7.3431 2.12148 7.32472 2.09086 7.31247C2.06023 7.30023 2.02961 7.29533 2.00021 7.299C1.97082 7.30267 1.94509 7.3137 1.92305 7.33085C1.901 7.34922 1.88385 7.37249 1.87283 7.40067C1.8618 7.42884 1.85813 7.45824 1.8618 7.48641C1.86548 7.51458 1.87772 7.5403 1.8961 7.56235C1.91447 7.58562 1.94019 7.60277 1.97082 7.61502C2.00144 7.62727 2.03206 7.63217 2.06146 7.62727C2.09086 7.6236 2.11658 7.61257 2.13863 7.59542C2.16067 7.57827 2.17782 7.555 2.18885 7.5256C2.19987 7.49621 2.20355 7.46804 2.19987 7.43986V7.44109Z" fill="#231815"/>
<path d="M1.98304 6.9242C1.98059 6.89113 1.98794 6.85438 2.00509 6.81519L2.08348 6.84826C2.08348 6.84826 2.07858 6.85806 2.07491 6.86663C2.05653 6.91073 2.05531 6.94992 2.07123 6.98667C2.08715 7.02219 2.119 7.05036 2.168 7.07119L2.39093 7.16428L2.35786 7.24512L1.90955 7.05894L1.94139 6.98177L2.01611 7.01239C1.99651 6.9879 1.98549 6.9585 1.98304 6.92543V6.9242Z" fill="#231815"/>
<path d="M2.41047 6.07897C2.45824 6.06305 2.51336 6.0704 2.57461 6.10102L2.82449 6.22473L2.78529 6.30313L2.54399 6.18309C2.50234 6.16226 2.46559 6.15614 2.43497 6.16471C2.40435 6.17329 2.37985 6.19656 2.36148 6.23208C2.34188 6.2725 2.3382 6.30925 2.35168 6.346C2.36515 6.38152 2.39455 6.41092 2.4411 6.43419L2.66525 6.54565L2.62605 6.62405L2.38475 6.50401C2.3431 6.48319 2.30636 6.47706 2.27574 6.48564C2.24511 6.49421 2.22062 6.51748 2.20224 6.553C2.18264 6.59343 2.17897 6.63017 2.19244 6.66692C2.20592 6.70244 2.23531 6.73184 2.28186 6.75511L2.50601 6.86658L2.46682 6.94497L2.03198 6.72939L2.06995 6.65345L2.13487 6.68529C2.12017 6.65834 2.11405 6.62895 2.11405 6.5971C2.11405 6.56525 2.12385 6.53341 2.13977 6.50033C2.1557 6.46726 2.17897 6.44031 2.20469 6.42072C2.23164 6.40112 2.26104 6.39132 2.29411 6.39009C2.27696 6.3607 2.26839 6.32885 2.26961 6.2921C2.26961 6.25536 2.27941 6.21983 2.29778 6.18309C2.32473 6.12797 2.3627 6.09367 2.40925 6.07652L2.41047 6.07897Z" fill="#231815"/>
<path d="M2.67266 5.62963C2.71921 5.61616 2.77065 5.62718 2.82577 5.66026L3.07565 5.81214L3.03278 5.88319L2.97766 5.85011C2.98991 5.87461 2.99358 5.90156 2.98868 5.93096C2.98501 5.96035 2.97276 5.99098 2.95316 6.02282C2.92499 6.06937 2.89069 6.09999 2.8515 6.11346C2.8123 6.12816 2.77433 6.12326 2.73758 6.10122C2.70083 6.07917 2.68001 6.04732 2.67389 6.00812C2.66776 5.9677 2.68246 5.91871 2.71798 5.86114L2.79025 5.74232L2.77555 5.73375C2.74371 5.71415 2.71308 5.70803 2.68369 5.7166C2.65551 5.72517 2.62979 5.74722 2.60774 5.78397C2.59304 5.80847 2.58202 5.83541 2.5759 5.86359C2.56977 5.89176 2.56855 5.91871 2.57222 5.94321L2.4975 5.94076C2.49383 5.90891 2.49628 5.87584 2.50485 5.84031C2.51343 5.80479 2.52813 5.7705 2.54895 5.73742C2.58325 5.67985 2.62489 5.64433 2.67144 5.63208L2.67266 5.62963ZM2.93111 5.88931C2.93111 5.86114 2.92254 5.83419 2.90417 5.81092L2.8466 5.7754L2.77555 5.89054C2.73636 5.95423 2.73881 5.99833 2.78168 6.02527C2.8025 6.03752 2.82332 6.03997 2.84537 6.0314C2.86742 6.02282 2.88702 6.00445 2.90417 5.97505C2.92131 5.94565 2.92989 5.91748 2.92989 5.88931H2.93111Z" fill="#231815"/>
<path d="M3.26185 5.48983C3.26307 5.50698 3.26185 5.52413 3.2545 5.5425C3.24837 5.56087 3.2398 5.57925 3.22755 5.59517C3.19938 5.63437 3.1663 5.65764 3.12956 5.66499C3.09281 5.67111 3.05484 5.66009 3.01442 5.63192L2.79761 5.47636L2.74984 5.54373L2.69105 5.50208L2.73882 5.43471L2.65308 5.37347L2.70452 5.30242L2.79026 5.36367L2.87111 5.25098L2.9299 5.29262L2.84906 5.40531L3.06219 5.55842C3.08301 5.57312 3.10384 5.58047 3.12221 5.57802C3.14181 5.57557 3.15773 5.56455 3.17243 5.54495C3.18835 5.5229 3.1957 5.49963 3.19325 5.47636L3.26062 5.49106L3.26185 5.48983Z" fill="#231815"/>
<path d="M2.92131 5.17021L2.97275 5.09916L3.36472 5.38456L3.31327 5.45561L2.92131 5.17021ZM2.83311 5.10406C2.81719 5.10651 2.80372 5.10406 2.79024 5.09427C2.77677 5.08447 2.76942 5.07222 2.76697 5.05629C2.76452 5.04037 2.7682 5.02567 2.77799 5.0122C2.78779 4.99872 2.80127 4.99015 2.81597 4.9877C2.83066 4.98525 2.84536 4.9877 2.85761 4.9975C2.86986 5.0073 2.87844 5.01955 2.88089 5.03547C2.88333 5.05139 2.87966 5.06609 2.86986 5.07957C2.86006 5.09304 2.84659 5.10161 2.83189 5.10406H2.83311Z" fill="#231815"/>
<path d="M3.45901 5.20568C3.41858 5.22283 3.37694 5.22773 3.33407 5.22038C3.2912 5.21425 3.25077 5.19588 3.21403 5.16526C3.17728 5.13464 3.15033 5.10034 3.13441 5.05992C3.11849 5.0195 3.11481 4.97785 3.12216 4.93498C3.12951 4.89211 3.14911 4.85169 3.17851 4.81371C3.2079 4.77574 3.24342 4.7488 3.28385 4.73287C3.32427 4.71695 3.36591 4.71082 3.40879 4.71817C3.45166 4.7243 3.49208 4.74267 3.52882 4.77329C3.56557 4.80392 3.59252 4.83821 3.60844 4.87863C3.62437 4.91906 3.62804 4.9607 3.62069 5.00357C3.61334 5.04644 3.59497 5.08687 3.56435 5.12484C3.53372 5.16281 3.4982 5.18976 3.45778 5.20568H3.45901ZM3.53985 4.99745C3.54475 4.96928 3.53985 4.9411 3.52882 4.91416C3.5178 4.88721 3.4982 4.86271 3.47248 4.84189C3.44676 4.82106 3.41858 4.80759 3.38919 4.80269C3.35979 4.79779 3.33284 4.80024 3.30589 4.81004C3.27895 4.82106 3.2569 4.83821 3.2373 4.86271C3.2177 4.88721 3.20545 4.91293 3.20178 4.9411C3.19688 4.96928 3.20178 4.99745 3.21158 5.0244C3.2226 5.05134 3.24098 5.07584 3.26792 5.09666C3.29487 5.11749 3.32182 5.13096 3.35122 5.13586C3.38061 5.14076 3.40879 5.13831 3.43451 5.12851C3.46146 5.11871 3.48473 5.10156 3.5031 5.07707C3.52147 5.05257 3.53495 5.02685 3.53862 4.99867L3.53985 4.99745Z" fill="#231815"/>
<path d="M3.71382 4.26631C3.76404 4.26386 3.81549 4.28468 3.86693 4.33123L4.07394 4.51863L4.01515 4.58355L3.81549 4.40349C3.78119 4.37165 3.7469 4.35695 3.71382 4.35695C3.68075 4.35695 3.65013 4.3741 3.62196 4.40472C3.59011 4.44024 3.57541 4.47699 3.57786 4.51618C3.58031 4.55538 3.59991 4.59213 3.63911 4.62642L3.82406 4.79423L3.76527 4.85915L3.40515 4.53456L3.4615 4.47209L3.51539 4.52108C3.50927 4.49169 3.51049 4.46106 3.52029 4.42922C3.53009 4.39737 3.54846 4.36797 3.57419 4.3398C3.61583 4.29448 3.66115 4.26998 3.7126 4.26631H3.71382Z" fill="#231815"/>
<path d="M4.63861 3.98218L4.51857 3.97728C4.51368 4.05567 4.4806 4.12426 4.41691 4.18306C4.38506 4.21246 4.35199 4.23328 4.31769 4.24553C4.2834 4.259 4.25032 4.26145 4.21848 4.25655C4.18663 4.25043 4.16091 4.23695 4.13886 4.21246C4.11191 4.18428 4.09721 4.14999 4.09476 4.11202C4.09231 4.07404 4.09966 4.02382 4.11926 3.96258C4.08006 3.96135 4.04822 3.95645 4.02372 3.94666C4.00045 3.93808 3.97962 3.92461 3.9637 3.90623C3.9343 3.87439 3.92205 3.83764 3.92695 3.79722C3.93185 3.7568 3.9539 3.71883 3.9931 3.6833C4.02862 3.65023 4.06537 3.63308 4.10211 3.63063C4.13886 3.62818 4.17193 3.64288 4.2001 3.67351C4.22215 3.69678 4.2344 3.72618 4.23563 3.75925C4.23808 3.79232 4.23073 3.83519 4.21358 3.88909L4.43651 3.89766C4.42671 3.85969 4.40956 3.82294 4.38629 3.7862L4.45366 3.75557C4.48428 3.80457 4.50265 3.85234 4.51245 3.90133L4.63371 3.90623L4.63739 3.98218H4.63861ZM4.44508 3.97605L4.18785 3.96625C4.17193 4.01402 4.16458 4.052 4.16703 4.07894C4.16826 4.10589 4.17806 4.12916 4.19643 4.14876C4.21725 4.17081 4.2442 4.18061 4.27605 4.17571C4.30789 4.17204 4.33974 4.15489 4.37159 4.12671C4.41813 4.08384 4.44263 4.03362 4.44508 3.97605ZM4.0029 3.79354C4.00045 3.81559 4.0078 3.83397 4.02372 3.85111C4.03474 3.86336 4.04944 3.87194 4.06537 3.87684C4.08251 3.88174 4.10946 3.88541 4.14498 3.88786C4.15968 3.84132 4.16703 3.80702 4.16703 3.78375C4.16703 3.76047 4.16091 3.74087 4.14743 3.72618C4.13273 3.71025 4.11559 3.7029 4.09599 3.70413C4.07639 3.70413 4.05679 3.71393 4.03719 3.7323C4.01637 3.7519 4.00412 3.77272 4.0029 3.79354Z" fill="#231815"/>
<path d="M4.93132 3.6978C4.87375 3.7076 4.8174 3.7027 4.76351 3.68188C4.70961 3.66105 4.66307 3.62676 4.6251 3.57776C4.58712 3.52877 4.56263 3.4761 4.55528 3.41853C4.5467 3.36096 4.55528 3.30584 4.57733 3.25072C4.6006 3.19682 4.63734 3.14905 4.68757 3.10985C4.72676 3.07923 4.76718 3.05718 4.81005 3.04371C4.85293 3.03146 4.8958 3.02901 4.93989 3.03636L4.92887 3.11843C4.86028 3.10863 4.79658 3.12578 4.74024 3.1711C4.70349 3.2005 4.67654 3.23602 4.65939 3.27644C4.64224 3.31686 4.63734 3.35851 4.64347 3.40138C4.64959 3.44425 4.66797 3.48345 4.69614 3.52019C4.72431 3.55694 4.75983 3.58266 4.80026 3.59858C4.84068 3.61451 4.88232 3.61941 4.92519 3.61206C4.96807 3.60471 5.00849 3.58634 5.04646 3.55694C5.1028 3.51284 5.13343 3.45527 5.13955 3.38423L5.22162 3.3928C5.21917 3.4369 5.20692 3.47855 5.18487 3.51774C5.16282 3.55694 5.1322 3.59246 5.093 3.62308C5.04278 3.6635 4.98889 3.688 4.93132 3.6978Z" fill="#231815"/>
<path d="M5.37477 3.38175C5.33068 3.38665 5.28903 3.38053 5.24983 3.36215C5.21064 3.34378 5.17756 3.31561 5.14939 3.27641C5.12122 3.23721 5.10652 3.19679 5.10162 3.15392C5.09795 3.11105 5.1053 3.0694 5.12489 3.03021C5.14449 2.99101 5.17389 2.95671 5.21309 2.92977C5.25228 2.90282 5.29393 2.88567 5.3368 2.88077C5.37967 2.87587 5.42132 2.882 5.46051 2.90037C5.49971 2.91874 5.53278 2.94691 5.56095 2.98611C5.58913 3.02531 5.60383 3.06573 5.60873 3.1086C5.6124 3.15147 5.60505 3.19312 5.58668 3.23231C5.5683 3.27151 5.53891 3.30581 5.49971 3.33275C5.46051 3.3597 5.41887 3.37685 5.37477 3.38175ZM5.51073 3.20414C5.52298 3.17842 5.52666 3.15025 5.52298 3.12085C5.51931 3.09145 5.50828 3.06328 5.48869 3.03633C5.46909 3.00938 5.44581 2.98856 5.42009 2.97631C5.39314 2.96284 5.3662 2.95794 5.33802 2.96039C5.30985 2.96284 5.2829 2.97386 5.25718 2.99224C5.23146 3.01061 5.21309 3.03266 5.20084 3.05838C5.18859 3.0841 5.18491 3.11227 5.18736 3.14167C5.19104 3.17107 5.20206 3.19924 5.22166 3.22741C5.24126 3.25559 5.26453 3.27518 5.29025 3.28743C5.3172 3.29968 5.34415 3.30581 5.37232 3.30336C5.40049 3.30091 5.42744 3.28988 5.45316 3.27274C5.47889 3.25559 5.49726 3.23231 5.50951 3.20659L5.51073 3.20414Z" fill="#231815"/>
<path d="M6.21622 2.41654C6.26399 2.43124 6.30563 2.46799 6.3387 2.52923L6.47222 2.77421L6.39505 2.81586L6.26644 2.57945C6.24439 2.53781 6.21744 2.51208 6.18682 2.50106C6.1562 2.49003 6.12312 2.49493 6.0876 2.51331C6.04841 2.53413 6.02391 2.56353 6.01411 2.60027C6.00431 2.63702 6.01166 2.67867 6.03616 2.72399L6.15497 2.94324L6.0778 2.98489L5.94919 2.74849C5.92714 2.70684 5.90019 2.68112 5.86957 2.67009C5.83895 2.65907 5.80588 2.66397 5.77036 2.68234C5.73116 2.70317 5.70666 2.73256 5.69686 2.76931C5.68706 2.80606 5.69441 2.8477 5.71891 2.89302L5.83773 3.11228L5.76056 3.15393L5.52905 2.72766L5.60255 2.68724L5.63684 2.75094C5.64052 2.72031 5.65154 2.69337 5.67114 2.66764C5.69074 2.64192 5.71524 2.6211 5.74831 2.60395C5.78138 2.5868 5.81445 2.577 5.84752 2.57578C5.8806 2.57578 5.91122 2.58435 5.93939 2.60272C5.94184 2.56965 5.95409 2.53781 5.97491 2.50841C5.99574 2.47901 6.02513 2.45451 6.06065 2.43491C6.11455 2.40552 6.16477 2.39817 6.21377 2.41287L6.21622 2.41654Z" fill="#231815"/>
<path d="M7.09328 2.03447C7.13982 2.05407 7.17535 2.09571 7.20107 2.16063L7.30518 2.41908L7.22312 2.45216L7.12268 2.20228C7.10553 2.15818 7.08225 2.13001 7.05286 2.11531C7.02346 2.10184 6.99039 2.10184 6.95364 2.11654C6.91199 2.13369 6.88505 2.15941 6.87035 2.19493C6.85687 2.23045 6.85932 2.2721 6.8777 2.31987L6.97079 2.55137L6.88872 2.58444L6.78828 2.33457C6.77113 2.29047 6.74786 2.2623 6.71846 2.2476C6.68906 2.23413 6.65599 2.23413 6.61925 2.24883C6.5776 2.26597 6.55065 2.2917 6.53595 2.32722C6.52248 2.36274 6.52493 2.40439 6.5433 2.45216L6.63639 2.68366L6.55433 2.71673L6.37427 2.2672L6.45266 2.23535L6.47961 2.30272C6.48696 2.27332 6.50166 2.24638 6.52248 2.22433C6.54453 2.20105 6.57147 2.18268 6.60577 2.16921C6.64007 2.15573 6.67437 2.14961 6.70744 2.15328C6.74051 2.15696 6.76991 2.16921 6.79563 2.19003C6.80175 2.15696 6.81768 2.12756 6.84218 2.10061C6.86667 2.07367 6.8973 2.05284 6.93527 2.03692C6.99161 2.01365 7.04306 2.01242 7.0896 2.03202L7.09328 2.03447Z" fill="#231815"/>
<path d="M7.67995 1.7981L7.82571 2.26111L7.7461 2.28561L7.72405 2.21579C7.71425 2.24518 7.69833 2.27091 7.67505 2.29173C7.65178 2.31378 7.62361 2.3297 7.59054 2.3395C7.52929 2.3591 7.4754 2.35665 7.42885 2.3346C7.3823 2.31133 7.34923 2.26723 7.32841 2.20109L7.24512 1.93529L7.32841 1.90834L7.40925 2.16434C7.42395 2.20966 7.44477 2.23906 7.47295 2.25621C7.50112 2.27213 7.53664 2.27458 7.57584 2.26111C7.61993 2.24763 7.65056 2.22314 7.6677 2.18761C7.68485 2.15332 7.68608 2.11045 7.67015 2.06268L7.59544 1.82382L7.67873 1.79688L7.67995 1.7981Z" fill="#231815"/>
<path d="M8.23979 1.71844C8.28266 1.74538 8.31328 1.79193 8.32921 1.8593L8.3929 2.13122L8.30716 2.15082L8.24591 1.8887C8.23489 1.84337 8.21652 1.81153 8.18834 1.79315C8.1614 1.77478 8.1271 1.77111 8.08545 1.78091C8.03891 1.79193 8.00584 1.81398 7.98501 1.84705C7.96419 1.88012 7.96051 1.92177 7.97276 1.97321L8.03033 2.21574L7.94459 2.23534L7.83435 1.76376L7.91642 1.74416L7.93357 1.8152C7.94459 1.78703 7.96419 1.76253 7.98991 1.74293C8.01563 1.72334 8.04748 1.70864 8.08545 1.70006C8.14547 1.68659 8.19692 1.69271 8.24101 1.71844H8.23979Z" fill="#231815"/>
<path d="M8.39903 1.63397L8.48477 1.61682L8.57664 2.0933L8.4909 2.11045L8.39903 1.63397ZM8.37943 1.52618C8.36596 1.5176 8.35861 1.50535 8.35493 1.48943C8.35126 1.47351 8.35493 1.46003 8.36351 1.44656C8.37208 1.43309 8.38556 1.42451 8.40148 1.42206C8.4174 1.41961 8.43333 1.42206 8.4468 1.42941C8.46028 1.43676 8.46762 1.45023 8.4713 1.46493C8.47497 1.47963 8.4713 1.49555 8.46272 1.50903C8.45415 1.5225 8.44068 1.53108 8.42353 1.53353C8.40638 1.53598 8.39168 1.53353 8.37821 1.52495L8.37943 1.52618Z" fill="#231815"/>
<path d="M8.76888 2.0554C8.72724 2.03947 8.69294 2.01498 8.66599 1.9819C8.63904 1.94761 8.6219 1.90719 8.61455 1.86064C8.6072 1.81409 8.6121 1.77 8.62802 1.72958C8.64394 1.68916 8.66967 1.65608 8.70519 1.62914C8.74071 1.60219 8.78236 1.58504 8.83135 1.57769C8.87422 1.57157 8.91465 1.57402 8.95139 1.58626C8.98814 1.59851 9.01876 1.62056 9.04203 1.64996L8.98201 1.70263C8.96364 1.68181 8.94282 1.66711 8.91832 1.65976C8.89382 1.65118 8.8681 1.64996 8.84115 1.65363C8.8093 1.65853 8.78236 1.66956 8.76031 1.68671C8.73704 1.70385 8.72111 1.72713 8.71009 1.7553C8.70029 1.78347 8.69661 1.81409 8.70274 1.84717C8.70886 1.88024 8.71989 1.90964 8.73704 1.93291C8.75541 1.95618 8.77746 1.97333 8.8044 1.98313C8.83135 1.99293 8.86075 1.99538 8.8926 1.9917C8.91954 1.98803 8.94404 1.97823 8.96487 1.96353C8.98569 1.94883 9.00161 1.92923 9.01264 1.90351L9.0849 1.93536C9.07143 1.97088 9.04816 2.00028 9.01754 2.02355C8.98569 2.04682 8.94894 2.06152 8.90485 2.06765C8.85585 2.075 8.81053 2.07132 8.76888 2.0554Z" fill="#231815"/>
<path d="M9.46102 1.56046C9.49776 1.59231 9.51736 1.64008 9.51981 1.70622L9.53083 1.99897L9.44754 2.00264L9.44509 1.93895C9.43162 1.96222 9.4108 1.9806 9.38385 1.99285C9.3569 2.00632 9.32505 2.01244 9.28831 2.01489C9.23441 2.01734 9.19032 2.00509 9.15602 1.9806C9.12295 1.9561 9.10457 1.9218 9.10335 1.87893C9.10212 1.83606 9.1156 1.80176 9.14622 1.77481C9.17684 1.74787 9.22461 1.73317 9.29321 1.73072L9.43162 1.72582V1.70867C9.42917 1.6707 9.41814 1.64253 9.39487 1.62293C9.3716 1.60333 9.33975 1.59476 9.29688 1.59598C9.26871 1.59598 9.24054 1.60333 9.21359 1.61313C9.18664 1.62415 9.16337 1.63763 9.14499 1.65355L9.1058 1.58863C9.1303 1.56781 9.15969 1.55066 9.19399 1.53964C9.22829 1.52739 9.26503 1.52126 9.30423 1.52004C9.3716 1.51759 9.42304 1.53229 9.45979 1.56413L9.46102 1.56046ZM9.3863 1.91813C9.40957 1.9022 9.42672 1.88016 9.43652 1.85321L9.43407 1.78584L9.29933 1.79074C9.22461 1.79319 9.18909 1.82014 9.19031 1.87036C9.19031 1.89485 9.20134 1.91323 9.22094 1.9267C9.24054 1.94018 9.26626 1.9463 9.30056 1.94507C9.33485 1.94385 9.36302 1.93528 9.3863 1.91935V1.91813Z" fill="#231815"/>
<path d="M9.91292 1.96823C9.89944 1.97925 9.88474 1.98783 9.86515 1.99395C9.84677 2.00008 9.82717 2.00253 9.80635 2.00253C9.75735 2.00253 9.71938 1.98905 9.69244 1.96333C9.66549 1.93761 9.65201 1.89964 9.65201 1.85064V1.58484H9.56995V1.51257H9.65201V1.40601H9.74021V1.51257H9.87984V1.58484H9.74021V1.84697C9.74021 1.87269 9.74633 1.89351 9.7598 1.90699C9.77328 1.92046 9.79165 1.92781 9.81615 1.92781C9.8431 1.92781 9.86637 1.92046 9.88474 1.90454L9.91169 1.96823H9.91292Z" fill="#231815"/>
<path d="M9.99139 1.50901H10.0796V1.99406H9.99139V1.50901ZM9.99261 1.39999C9.98159 1.38897 9.97546 1.3755 9.97546 1.35957C9.97546 1.34365 9.98159 1.33017 9.99261 1.31915C10.0036 1.30813 10.0183 1.302 10.0355 1.302C10.0526 1.302 10.0673 1.3069 10.0784 1.31793C10.0894 1.32895 10.0955 1.34242 10.0955 1.35712C10.0955 1.37182 10.0894 1.38774 10.0784 1.39877C10.0673 1.40979 10.0526 1.41592 10.0355 1.41592C10.0183 1.41592 10.0049 1.41102 9.99261 1.39999Z" fill="#231815"/>
<path d="M10.2658 1.96334C10.2278 1.94129 10.1984 1.91067 10.1776 1.8727C10.1567 1.83473 10.1469 1.79186 10.1482 1.74409C10.1494 1.69632 10.1616 1.65467 10.1837 1.61792C10.2057 1.58118 10.2376 1.553 10.2756 1.53218C10.3148 1.51258 10.3576 1.50278 10.4066 1.50401C10.4556 1.50523 10.4973 1.51748 10.5352 1.53953C10.5732 1.56158 10.6014 1.5922 10.6222 1.63017C10.643 1.66814 10.6528 1.71101 10.6516 1.75879C10.6504 1.80656 10.6381 1.8482 10.6161 1.88495C10.594 1.9217 10.5622 1.94987 10.5242 1.97069C10.485 1.99151 10.4421 2.00009 10.3944 1.99886C10.3466 1.99764 10.3037 1.98539 10.2658 1.96334ZM10.4813 1.90332C10.5071 1.88985 10.5267 1.87025 10.5414 1.84453C10.5561 1.81881 10.5634 1.78941 10.5646 1.75634C10.5659 1.72326 10.5597 1.69264 10.5463 1.66692C10.5328 1.6412 10.5144 1.62037 10.4899 1.60567C10.4654 1.59098 10.4385 1.58363 10.4066 1.5824C10.3748 1.58118 10.3478 1.5873 10.3221 1.60077C10.2964 1.61425 10.2768 1.63385 10.2621 1.65957C10.2474 1.68529 10.2388 1.71469 10.2376 1.74776C10.2364 1.78083 10.2425 1.81146 10.2572 1.83718C10.2707 1.8629 10.2903 1.88372 10.3135 1.89965C10.338 1.91435 10.365 1.92292 10.3968 1.92292C10.4287 1.92292 10.4556 1.9168 10.4813 1.90332Z" fill="#231815"/>
<path d="M11.1537 1.62041C11.1868 1.6596 11.2003 1.71227 11.1942 1.78087L11.1697 2.05892L11.0827 2.05157L11.106 1.78332C11.1096 1.73677 11.1023 1.70002 11.0815 1.6743C11.0606 1.64858 11.03 1.63388 10.9884 1.63021C10.9406 1.62653 10.9026 1.63633 10.8732 1.66205C10.8438 1.68777 10.8267 1.72575 10.8218 1.77719L10.7997 2.02584L10.7128 2.0185L10.7544 1.53589L10.8377 1.54324L10.8316 1.61673C10.8512 1.59346 10.8769 1.57631 10.9075 1.56529C10.9394 1.55426 10.9737 1.55059 11.0116 1.55426C11.0729 1.55916 11.1207 1.58121 11.1537 1.62041Z" fill="#231815"/>
<path d="M11.3032 2.09813C11.2689 2.08098 11.2432 2.06261 11.2261 2.04301L11.2738 1.98054C11.2922 1.99892 11.3155 2.01607 11.3437 2.02954C11.3718 2.04424 11.4012 2.05404 11.4319 2.05894C11.5078 2.07241 11.5494 2.05771 11.5568 2.01362C11.5592 1.99892 11.5568 1.98667 11.547 1.97687C11.5384 1.96707 11.5262 1.9585 11.5115 1.95115C11.4968 1.94502 11.476 1.93645 11.4478 1.92665C11.411 1.9144 11.3804 1.90093 11.3571 1.8899C11.3339 1.87765 11.3155 1.8605 11.302 1.83968C11.2873 1.81763 11.2836 1.79069 11.2898 1.75639C11.2971 1.71352 11.3216 1.68167 11.362 1.66207C11.4025 1.64247 11.4527 1.63757 11.5139 1.6486C11.5458 1.65472 11.5764 1.6633 11.607 1.67677C11.6376 1.69024 11.6621 1.70494 11.6793 1.72209L11.6303 1.78456C11.596 1.75271 11.5519 1.73189 11.4992 1.72209C11.4625 1.71597 11.4331 1.71719 11.4123 1.72577C11.3914 1.73434 11.378 1.74904 11.3755 1.76864C11.3731 1.78456 11.3755 1.79803 11.3853 1.80783C11.3951 1.81886 11.4074 1.82743 11.4221 1.83478C11.4368 1.84213 11.4588 1.8507 11.487 1.8605C11.5237 1.87398 11.5543 1.88623 11.5764 1.89848C11.5984 1.91072 11.6168 1.92665 11.6303 1.94747C11.6438 1.96829 11.6474 1.99524 11.6425 2.02709C11.6352 2.06996 11.6107 2.10181 11.569 2.12018C11.5274 2.13978 11.4747 2.14345 11.411 2.13243C11.3718 2.12508 11.3351 2.11406 11.3008 2.09691L11.3032 2.09813Z" fill="#231815"/>
<path d="M12.1312 1.70627L11.9193 1.64992L11.9401 1.57275L12.4521 1.70994L12.4313 1.78711L12.2194 1.73076L12.0749 2.27217L11.9879 2.24889L12.1324 1.70749L12.1312 1.70627Z" fill="#231815"/>
<path d="M12.7339 2.24515L12.3615 2.11776C12.3529 2.1594 12.359 2.1986 12.3811 2.2329C12.4031 2.26719 12.4362 2.29292 12.4815 2.30884C12.5366 2.32721 12.5869 2.32476 12.6334 2.29904L12.6604 2.36886C12.631 2.38601 12.5991 2.39581 12.5636 2.39703C12.5281 2.39948 12.4913 2.39336 12.4534 2.38111C12.4044 2.36396 12.3652 2.33946 12.3345 2.30639C12.3039 2.27332 12.2843 2.23535 12.2757 2.19248C12.2672 2.1496 12.2708 2.10551 12.2868 2.06019C12.3027 2.01487 12.326 1.97934 12.3578 1.94995C12.3897 1.92055 12.4264 1.90218 12.4693 1.89483C12.5109 1.88748 12.5538 1.88993 12.5979 1.90585C12.642 1.92177 12.6775 1.94382 12.7045 1.97567C12.7314 2.00752 12.7485 2.04426 12.7559 2.08714C12.7632 2.13001 12.7583 2.1741 12.7424 2.21942C12.74 2.22555 12.7363 2.23412 12.7326 2.24392L12.7339 2.24515ZM12.4619 1.97812C12.4264 1.99282 12.4007 2.01977 12.3823 2.05651L12.6763 2.15818C12.6849 2.11776 12.68 2.08101 12.6616 2.04671C12.6432 2.01242 12.6138 1.98914 12.5746 1.97567C12.5354 1.9622 12.4974 1.9622 12.4619 1.97812Z" fill="#231815"/>
<path d="M12.8356 2.48273C12.8074 2.44843 12.7903 2.41046 12.7842 2.36637C12.7781 2.32349 12.7842 2.2794 12.8013 2.2353C12.8185 2.19121 12.8454 2.15568 12.8797 2.12874C12.914 2.10179 12.9532 2.08587 12.9973 2.08097C13.0414 2.07607 13.0855 2.08219 13.132 2.10056C13.1725 2.11649 13.2055 2.13976 13.2313 2.16916C13.257 2.19856 13.2717 2.23163 13.2766 2.27082L13.1982 2.28552C13.1921 2.25857 13.181 2.2353 13.1651 2.2157C13.148 2.19611 13.1271 2.18141 13.1014 2.17161C13.072 2.15936 13.0426 2.15568 13.0145 2.15936C12.9863 2.16303 12.9593 2.17406 12.9373 2.19243C12.914 2.2108 12.8969 2.23653 12.8846 2.26715C12.8724 2.29777 12.8675 2.32962 12.8711 2.35902C12.8748 2.38841 12.8858 2.41414 12.9042 2.43618C12.9226 2.45823 12.9459 2.47538 12.9753 2.48763C13.001 2.49743 13.0255 2.50233 13.0512 2.49988C13.0769 2.49743 13.1002 2.48885 13.1235 2.47293L13.17 2.53662C13.1394 2.56112 13.1051 2.5746 13.0671 2.57827C13.0279 2.58195 12.9887 2.57582 12.9483 2.5599C12.903 2.54152 12.865 2.5158 12.8381 2.4815L12.8356 2.48273Z" fill="#231815"/>
<path d="M13.7457 2.43374C13.7616 2.48151 13.7555 2.53663 13.7236 2.59787L13.5987 2.84775L13.5203 2.80855L13.6403 2.56848C13.6612 2.52683 13.6673 2.49008 13.6575 2.45824C13.6477 2.42639 13.6244 2.40189 13.5864 2.38352C13.5436 2.36269 13.5044 2.35779 13.4676 2.37004C13.4309 2.38229 13.4003 2.41169 13.377 2.45824L13.2655 2.68117L13.1871 2.64197L13.4909 2.03442L13.5693 2.07362L13.4517 2.3088C13.4787 2.29655 13.5081 2.29043 13.5399 2.29288C13.5717 2.2941 13.6048 2.3039 13.6379 2.31982C13.693 2.34677 13.7285 2.38474 13.7457 2.43374Z" fill="#231815"/>
<path d="M14.2687 2.71178C14.2821 2.76078 14.2711 2.81467 14.2368 2.87469L14.0972 3.116L14.0212 3.0719L14.156 2.83917C14.1793 2.79875 14.1878 2.762 14.1805 2.73016C14.1731 2.69831 14.1511 2.67136 14.1143 2.65054C14.0727 2.62727 14.0335 2.61992 13.9955 2.62972C13.9575 2.63951 13.9257 2.66769 13.9 2.71178L13.775 2.92736L13.6991 2.88327L13.9429 2.46436L14.0151 2.506L13.9784 2.5697C14.0065 2.55745 14.0372 2.55255 14.069 2.55622C14.1021 2.5599 14.1352 2.57092 14.1682 2.59052C14.2209 2.62114 14.2552 2.66156 14.2687 2.71056V2.71178Z" fill="#231815"/>
<path d="M14.2833 3.21529C14.2588 3.17854 14.2454 3.13934 14.2429 3.09525C14.2405 3.05238 14.2503 3.00951 14.2723 2.96664C14.2944 2.92376 14.3225 2.89069 14.3593 2.86742C14.396 2.84415 14.4352 2.83067 14.4793 2.82945C14.5234 2.82822 14.5663 2.83802 14.6092 2.86007C14.652 2.88212 14.6863 2.91029 14.7108 2.94704C14.7353 2.98256 14.7488 3.02298 14.7513 3.06585C14.7537 3.10872 14.7439 3.15159 14.7219 3.19446C14.6998 3.23734 14.6716 3.27041 14.6349 3.29368C14.5981 3.31695 14.5589 3.33043 14.5148 3.33165C14.4708 3.33288 14.4279 3.32308 14.385 3.30103C14.3421 3.27898 14.3078 3.24958 14.2833 3.21406V3.21529ZM14.5038 3.25203C14.532 3.25081 14.5589 3.24101 14.5834 3.22509C14.6079 3.20794 14.6275 3.18467 14.6422 3.15527C14.6569 3.12587 14.6643 3.09525 14.6643 3.06585C14.6643 3.03645 14.6557 3.00951 14.6398 2.98623C14.6239 2.96296 14.6018 2.94336 14.5749 2.92989C14.5479 2.91641 14.5185 2.90907 14.4903 2.91029C14.4622 2.91152 14.4352 2.92009 14.4107 2.93724C14.3862 2.95439 14.3666 2.97766 14.3507 3.00706C14.3348 3.03645 14.3287 3.06708 14.3299 3.09647C14.3299 3.12587 14.3397 3.15282 14.3544 3.17732C14.3703 3.20181 14.3911 3.22019 14.4193 3.23489C14.4475 3.24958 14.4757 3.25571 14.5038 3.25326V3.25203Z" fill="#231815"/>
<path d="M15.0232 2.92261L15.0943 2.97405L14.6937 3.5228L14.6227 3.47136L15.0232 2.92261Z" fill="#231815"/>
<path d="M14.8848 3.62934C14.8652 3.59014 14.8566 3.54849 14.8591 3.50562C14.8615 3.46275 14.8762 3.42111 14.9031 3.38191C14.9301 3.34271 14.9619 3.31332 15.0011 3.29372C15.0403 3.27412 15.0808 3.26677 15.1249 3.27044C15.1689 3.27412 15.2106 3.29004 15.2498 3.31577C15.289 3.34149 15.3196 3.37578 15.3404 3.41376C15.36 3.45295 15.3686 3.49337 15.3662 3.53625C15.3637 3.57912 15.349 3.62076 15.3221 3.65996C15.2951 3.69916 15.2633 3.72855 15.2241 3.74815C15.1849 3.76775 15.1445 3.7751 15.1004 3.77142C15.0563 3.76775 15.0146 3.75305 14.9754 3.7261C14.9362 3.69916 14.9056 3.66608 14.8848 3.62689V3.62934ZM15.0991 3.69303C15.1273 3.69426 15.1555 3.68936 15.1812 3.67466C15.2069 3.66118 15.2302 3.64036 15.2486 3.61219C15.2669 3.58402 15.278 3.55584 15.2804 3.52645C15.2829 3.49705 15.278 3.4701 15.2657 3.44438C15.2535 3.41866 15.2339 3.39783 15.2081 3.38068C15.1824 3.36354 15.1555 3.35374 15.1273 3.35129C15.0991 3.34884 15.0722 3.35496 15.0452 3.36844C15.0195 3.38191 14.9962 3.40273 14.9779 3.4309C14.9595 3.45908 14.9485 3.48725 14.946 3.51665C14.9436 3.54604 14.9485 3.57422 14.9607 3.59994C14.973 3.62566 14.9926 3.64649 15.0183 3.66486C15.044 3.68323 15.071 3.69181 15.1004 3.69303H15.0991Z" fill="#231815"/>
<path d="M15.8916 3.85233L15.6148 4.16713C15.5585 4.23082 15.5021 4.26389 15.4433 4.26634C15.3845 4.26879 15.3245 4.24307 15.262 4.18672C15.2277 4.1561 15.1996 4.12303 15.1763 4.08628C15.153 4.04954 15.1395 4.01401 15.1359 3.97972L15.2118 3.95644C15.2155 3.98584 15.2265 4.01646 15.2437 4.04586C15.2608 4.07648 15.2829 4.10343 15.3098 4.1267C15.3527 4.16468 15.3931 4.18182 15.4311 4.17937C15.469 4.17692 15.5058 4.1561 15.5425 4.11445L15.5683 4.08506C15.5364 4.08996 15.5046 4.08751 15.4739 4.07648C15.4433 4.06546 15.4139 4.04831 15.3882 4.02504C15.3539 3.99442 15.3282 3.95889 15.3135 3.9197C15.2988 3.8805 15.2951 3.84008 15.3024 3.79843C15.3098 3.75801 15.3294 3.72004 15.3588 3.68574C15.3882 3.65145 15.4237 3.62817 15.4641 3.6147C15.5033 3.60245 15.5438 3.60123 15.5854 3.61102C15.627 3.62082 15.6638 3.64165 15.6993 3.67227C15.7263 3.69677 15.7483 3.72371 15.763 3.75434C15.7777 3.78496 15.7838 3.81681 15.7814 3.84988L15.8316 3.79353L15.8941 3.84865L15.8916 3.85233ZM15.5229 4.01769C15.5511 4.02381 15.578 4.02381 15.605 4.01524C15.6319 4.00666 15.6552 3.99074 15.6748 3.96747C15.7054 3.93195 15.7189 3.89397 15.7152 3.8511C15.7116 3.80823 15.6907 3.77149 15.654 3.73964C15.6172 3.70779 15.5768 3.69064 15.5352 3.69187C15.4923 3.69187 15.4556 3.71147 15.4249 3.74699C15.4053 3.77026 15.3919 3.79476 15.387 3.82293C15.3821 3.84988 15.3845 3.87805 15.3943 3.905C15.4041 3.93195 15.4213 3.95644 15.4458 3.97727C15.4703 3.99809 15.4948 4.01156 15.5229 4.01891V4.01769Z" fill="#231815"/>
<path d="M16.2898 4.27591L15.7447 4.48292C15.6945 4.50252 15.6528 4.50987 15.6198 4.50374C15.5855 4.49762 15.5548 4.4817 15.5279 4.45352C15.5107 4.43637 15.4973 4.418 15.4875 4.39595C15.4777 4.37513 15.4728 4.35431 15.4728 4.33348L15.5463 4.31389C15.5463 4.34818 15.5585 4.37758 15.5818 4.40085C15.5965 4.41555 15.6136 4.42535 15.632 4.42658C15.6504 4.42903 15.6724 4.42413 15.7006 4.4131L15.7361 4.40085L15.9309 3.90845L15.9946 3.97337L15.8366 4.36656L16.231 4.21345L16.291 4.27469L16.2898 4.27591Z" fill="#231815"/>
<path d="M16.8226 4.75863C16.8226 4.8211 16.7956 4.87377 16.7417 4.91787C16.6878 4.96196 16.6315 4.97911 16.5702 4.96686C16.509 4.95584 16.4527 4.91787 16.4 4.85417L16.2995 4.73168L16.1501 4.8554L16.0913 4.78435L16.5849 4.37646L16.7442 4.56877C16.7968 4.63247 16.8238 4.69616 16.8238 4.75741L16.8226 4.75863ZM16.5727 4.88112C16.6107 4.88847 16.6486 4.87745 16.6842 4.84805C16.7197 4.81865 16.7381 4.78435 16.7368 4.74516C16.7368 4.70596 16.7172 4.66431 16.6805 4.61899L16.5813 4.49895L16.3596 4.68269L16.4588 4.80273C16.4955 4.84682 16.5335 4.87377 16.5715 4.88112H16.5727Z" fill="#231815"/>
<path d="M16.9965 4.82959L17.0491 4.89941L16.509 5.31097L16.4563 5.24115L16.9965 4.82959Z" fill="#231815"/>
<path d="M17.1373 5.42015C17.1312 5.46792 17.103 5.51202 17.0504 5.54999L16.814 5.7227L16.765 5.65533L16.8164 5.61736C16.7895 5.61858 16.7637 5.61246 16.738 5.59654C16.7123 5.58184 16.689 5.55856 16.667 5.52917C16.6351 5.48507 16.6204 5.4422 16.6217 5.40055C16.6241 5.35891 16.6425 5.32584 16.6768 5.30011C16.7111 5.27439 16.7478 5.26704 16.787 5.27684C16.8262 5.28664 16.8654 5.31849 16.9058 5.37361L16.9879 5.4863L17.0014 5.4765C17.032 5.45445 17.0491 5.42873 17.0528 5.3981C17.0565 5.36871 17.0455 5.33686 17.0197 5.30134C17.0026 5.27806 16.983 5.25847 16.9585 5.24132C16.9352 5.22417 16.9107 5.21315 16.8875 5.20702L16.9193 5.13843C16.9499 5.147 16.9805 5.1617 17.0099 5.18375C17.0393 5.2058 17.0651 5.23274 17.0883 5.26337C17.1275 5.31726 17.1447 5.36871 17.1386 5.41648L17.1373 5.42015ZM16.7993 5.55856C16.8262 5.56959 16.8532 5.57081 16.8813 5.56346L16.9365 5.52304L16.8568 5.41403C16.8127 5.35401 16.7711 5.33808 16.7307 5.36748C16.7111 5.38218 16.7013 5.40055 16.7013 5.42383C16.7013 5.4471 16.7111 5.47282 16.7307 5.49977C16.7503 5.52672 16.7735 5.54632 16.8005 5.55734L16.7993 5.55856Z" fill="#231815"/>
<path d="M17.4473 5.93096C17.4363 5.97995 17.4008 6.02282 17.342 6.05957L17.1031 6.20533L17.0578 6.13061L17.2881 5.99098C17.3285 5.96648 17.353 5.93831 17.3616 5.90646C17.3701 5.87461 17.364 5.84154 17.342 5.80479C17.3175 5.76437 17.2856 5.73987 17.2476 5.73007C17.2097 5.7215 17.168 5.73007 17.1239 5.75702L16.9108 5.88686L16.8655 5.81214L17.2795 5.55981L17.3236 5.63208L17.2611 5.67005C17.2917 5.6725 17.3211 5.6823 17.3481 5.7019C17.375 5.72027 17.3983 5.746 17.4191 5.77907C17.451 5.83174 17.4608 5.88319 17.4498 5.93218L17.4473 5.93096Z" fill="#231815"/>
<path d="M17.7205 6.4686C17.7058 6.51759 17.6666 6.55679 17.6053 6.58863L17.3567 6.71602L17.3163 6.63763L17.5563 6.51514C17.598 6.49432 17.6249 6.46737 17.6359 6.43675C17.647 6.40613 17.6433 6.37183 17.6237 6.33386C17.6017 6.29099 17.5723 6.26404 17.5355 6.25301C17.4988 6.24077 17.4571 6.24689 17.4106 6.27016L17.1876 6.38408L17.1472 6.30569L17.5796 6.08521L17.6176 6.15992L17.5527 6.193C17.5833 6.1979 17.6115 6.21014 17.6372 6.23097C17.6629 6.25179 17.6849 6.27874 17.7021 6.31303C17.7303 6.36815 17.7364 6.4196 17.7217 6.4686H17.7205Z" fill="#231815"/>
<path d="M17.8393 6.62301L17.8748 6.70386L17.4302 6.89861L17.3947 6.81777L17.8393 6.62301ZM17.9397 6.58014C17.9459 6.56544 17.9557 6.55442 17.9704 6.54829C17.9851 6.54217 17.9998 6.54217 18.0144 6.54829C18.0291 6.55442 18.0402 6.56422 18.0475 6.58014C18.0549 6.59607 18.0549 6.61076 18.05 6.62546C18.0451 6.64016 18.0353 6.65119 18.0206 6.65731C18.0059 6.66343 17.99 6.66466 17.9753 6.65731C17.9606 6.65119 17.9495 6.64139 17.9422 6.62546C17.9348 6.60954 17.9348 6.59484 17.9397 6.58014Z" fill="#231815"/>
<path d="M18.0303 7.23158C18.0095 7.27813 17.9679 7.31365 17.9029 7.33815L17.642 7.43736L17.6102 7.35529L17.8613 7.25975C17.9054 7.24261 17.9348 7.21933 17.9483 7.18994C17.963 7.16054 17.9617 7.12624 17.947 7.08704C17.9299 7.04295 17.9042 7.01233 17.8674 6.9964C17.8319 6.98048 17.789 6.9817 17.7413 7.00008L17.5085 7.08949L17.4767 7.00743L17.9299 6.83472L17.9605 6.91311L17.8919 6.93883C17.9213 6.94618 17.9483 6.96211 17.9715 6.98538C17.9948 7.00865 18.0132 7.03805 18.0267 7.0748C18.0487 7.13236 18.0499 7.18381 18.0291 7.23158H18.0303Z" fill="#231815"/>
<path d="M18.268 7.85265L17.865 7.96901C17.7842 7.99229 17.718 7.98984 17.6666 7.96044C17.6164 7.93104 17.5784 7.87715 17.5551 7.7963C17.5429 7.75221 17.5367 7.70934 17.5367 7.66524C17.5367 7.62237 17.5453 7.5844 17.56 7.55377L17.6372 7.57582C17.6249 7.60277 17.6176 7.63339 17.6164 7.66891C17.6151 7.70444 17.6188 7.73873 17.6286 7.77303C17.6445 7.82693 17.669 7.86367 17.7021 7.88205C17.7352 7.90042 17.778 7.90287 17.8307 7.88695L17.8675 7.87592C17.8381 7.86245 17.8123 7.84407 17.7915 7.81835C17.7707 7.79263 17.756 7.76323 17.7462 7.72893C17.7327 7.68484 17.7315 7.64197 17.7401 7.60032C17.7486 7.55867 17.767 7.52315 17.7952 7.49253C17.8234 7.46191 17.8601 7.44109 17.903 7.42761C17.9459 7.41414 17.9887 7.41414 18.0291 7.42394C18.0696 7.43496 18.1039 7.45456 18.1333 7.48518C18.1627 7.5158 18.1835 7.55377 18.197 7.59787C18.2068 7.63339 18.2104 7.66769 18.2055 7.70199C18.2019 7.73628 18.1896 7.76568 18.17 7.79263L18.2423 7.77181L18.2656 7.85142L18.268 7.85265ZM17.8675 7.79508C17.8871 7.8159 17.9103 7.82938 17.9385 7.83672C17.9655 7.84407 17.9936 7.84285 18.023 7.83427C18.0683 7.8208 18.1002 7.79508 18.1198 7.75711C18.1394 7.71914 18.1418 7.67626 18.1284 7.62972C18.1149 7.58317 18.0892 7.54765 18.0524 7.5256C18.0157 7.50355 17.9753 7.49988 17.9299 7.51213C17.9005 7.5207 17.876 7.5354 17.8577 7.55622C17.8381 7.57705 17.8258 7.60155 17.8197 7.62849C17.8136 7.65667 17.816 7.68606 17.8246 7.71669C17.8332 7.74731 17.8479 7.77303 17.8675 7.79385V7.79508Z" fill="#231815"/>
<path d="M17.9617 8.75908L18.0278 8.65864C17.9629 8.61455 17.9213 8.54963 17.9053 8.46511C17.8968 8.42346 17.8955 8.38427 17.9029 8.34752C17.9102 8.31078 17.9237 8.28138 17.9445 8.25688C17.9654 8.23361 17.9923 8.21768 18.0242 8.21156C18.0621 8.20421 18.0989 8.20911 18.1332 8.22626C18.1675 8.24341 18.2054 8.27648 18.2483 8.32547C18.2704 8.2924 18.2912 8.2679 18.3108 8.25198C18.3304 8.23606 18.3524 8.22626 18.3769 8.22136C18.4198 8.21278 18.4565 8.22136 18.4884 8.24708C18.5202 8.2728 18.5411 8.31077 18.5521 8.36222C18.5619 8.40999 18.5582 8.45041 18.5398 8.48348C18.5227 8.51656 18.4933 8.53738 18.4529 8.54473C18.421 8.55085 18.3904 8.54718 18.361 8.53126C18.3316 8.51533 18.2985 8.48716 18.2618 8.44429L18.1393 8.63047C18.1773 8.6415 18.2177 8.64639 18.2606 8.64639L18.252 8.71989C18.1944 8.71989 18.143 8.71131 18.0977 8.69417L18.0303 8.79583L17.9629 8.75908H17.9617ZM18.0683 8.5974L18.2103 8.38304C18.1773 8.34507 18.1491 8.31935 18.1258 8.30588C18.1013 8.29363 18.0768 8.28873 18.0511 8.29485C18.0217 8.30098 17.9997 8.31935 17.9862 8.34875C17.9727 8.37814 17.9703 8.41489 17.9788 8.45654C17.9911 8.51901 18.0217 8.56555 18.0695 8.5974H18.0683ZM18.4541 8.31445C18.4369 8.30098 18.4174 8.2973 18.3941 8.3022C18.3782 8.30588 18.3635 8.31322 18.35 8.32425C18.3365 8.3365 18.3194 8.35732 18.2998 8.38672C18.3316 8.42347 18.3573 8.44796 18.3769 8.46021C18.3965 8.47246 18.4161 8.47736 18.4369 8.47246C18.4578 8.46879 18.4737 8.45776 18.4823 8.44061C18.4921 8.42347 18.4945 8.40142 18.4884 8.37569C18.4823 8.34752 18.4712 8.3267 18.4541 8.31445Z" fill="#231815"/>
<path d="M18.1283 9.48805L18.0487 9.49295L18.0168 9.02872L18.6562 8.98462L18.6869 9.43538L18.6072 9.44028L18.5827 9.08016L18.3868 9.09363L18.4088 9.41456L18.3316 9.41946L18.3096 9.09853L18.1038 9.11201L18.1295 9.48437L18.1283 9.48805Z" fill="#231815"/>
<path d="M18.5582 9.99516L18.067 9.79795L18.0646 9.70854L18.5423 9.48193L18.5447 9.5738L18.1613 9.75141L18.5545 9.90942L18.557 9.99516H18.5582Z" fill="#231815"/>
<path d="M18.5104 10.3516C18.4774 10.3871 18.4284 10.4055 18.3634 10.4055H18.0707V10.3222H18.1344C18.1123 10.3075 18.094 10.2867 18.0829 10.2597C18.0707 10.2328 18.0646 10.2009 18.0646 10.163C18.0646 10.1091 18.078 10.065 18.1038 10.0331C18.1295 10.0001 18.165 9.98413 18.2067 9.98413C18.2483 9.98413 18.2838 10.0001 18.3096 10.0307C18.3353 10.0613 18.3488 10.1115 18.3488 10.1789V10.3185H18.3659C18.4039 10.3185 18.4333 10.3075 18.4529 10.2855C18.4725 10.2634 18.4835 10.2316 18.4835 10.1887C18.4835 10.1605 18.4786 10.1323 18.4688 10.1042C18.459 10.0772 18.4467 10.0539 18.4308 10.0344L18.497 9.9976C18.5166 10.0221 18.5325 10.0527 18.5435 10.087C18.5545 10.1213 18.5594 10.1581 18.5594 10.1973C18.5594 10.2646 18.5435 10.3161 18.5104 10.3516ZM18.154 10.2646C18.1687 10.2891 18.1895 10.3063 18.2177 10.3173H18.2851V10.1813C18.2851 10.1066 18.2606 10.0699 18.2103 10.0699C18.1858 10.0699 18.1662 10.0797 18.1528 10.098C18.1393 10.1164 18.1319 10.1434 18.1319 10.1764C18.1319 10.2095 18.1393 10.2389 18.154 10.2634V10.2646Z" fill="#231815"/>
<path d="M18.7444 10.5658L18.7395 10.654L18.0621 10.6197L18.067 10.5315L18.7444 10.5658Z" fill="#231815"/>
<path d="M18.4982 11.2137L18.0144 11.177L18.0205 11.0937L18.094 11.0998C18.0707 11.0802 18.0524 11.0557 18.0414 11.0251C18.0303 10.9957 18.0254 10.9626 18.0279 10.9296C18.0328 10.8646 18.0548 10.8156 18.0928 10.7813C18.1308 10.747 18.1847 10.7323 18.2545 10.7372L18.5325 10.7581L18.5264 10.845L18.2582 10.8242C18.2116 10.8205 18.1749 10.8291 18.1491 10.8499C18.1234 10.8708 18.1087 10.9014 18.1063 10.9443C18.1026 10.9908 18.1136 11.0275 18.1393 11.0569C18.1651 11.0863 18.2043 11.1023 18.2545 11.1059L18.5044 11.1255L18.4982 11.2137Z" fill="#231815"/>
<path d="M18.3758 11.6781C18.3378 11.7087 18.2864 11.7197 18.2227 11.7099L17.9336 11.6671L17.9458 11.585L18.0095 11.5948C17.9899 11.5776 17.9752 11.5544 17.9679 11.525C17.9605 11.4968 17.9593 11.4637 17.9642 11.427C17.9716 11.3731 17.9912 11.3327 18.0218 11.3033C18.0524 11.2751 18.0892 11.2641 18.1308 11.2702C18.1724 11.2763 18.2043 11.2971 18.2263 11.3314C18.2472 11.3657 18.2533 11.4172 18.2435 11.4833L18.2239 11.6205L18.241 11.623C18.279 11.6279 18.3084 11.623 18.3317 11.6034C18.355 11.585 18.3697 11.5544 18.3758 11.5115C18.3795 11.4833 18.3795 11.4552 18.3746 11.4258C18.3697 11.3976 18.3599 11.3719 18.3476 11.351L18.4186 11.3241C18.4346 11.3523 18.4456 11.3841 18.4517 11.4196C18.4566 11.4552 18.4566 11.4931 18.4517 11.5311C18.4419 11.5972 18.4186 11.6462 18.3807 11.6769L18.3758 11.6781ZM18.0365 11.5409C18.0475 11.5666 18.0659 11.5874 18.0916 11.6021L18.159 11.6119L18.1786 11.4784C18.1896 11.4049 18.17 11.3645 18.121 11.3572C18.0965 11.3535 18.0769 11.3596 18.0598 11.3768C18.0426 11.3939 18.0328 11.4184 18.0279 11.4515C18.023 11.4846 18.0267 11.5139 18.0377 11.5409H18.0365Z" fill="#231815"/>
<path d="M17.8747 12.0505C17.8662 12.0358 17.8613 12.0186 17.8588 11.999C17.8564 11.9794 17.8576 11.9598 17.8613 11.9402C17.8711 11.8924 17.8907 11.8582 17.9213 11.8361C17.9519 11.8153 17.9911 11.8092 18.0389 11.8177L18.2998 11.868L18.3157 11.7871L18.3867 11.8006L18.3708 11.8814L18.4749 11.901L18.4578 11.9868L18.3537 11.9672L18.328 12.1031L18.2569 12.0897L18.2826 11.9537L18.0242 11.9035C17.9985 11.8986 17.9776 11.901 17.9617 11.9108C17.9458 11.9206 17.9348 11.9378 17.9299 11.9623C17.925 11.9892 17.9274 12.0125 17.9397 12.0345L17.8723 12.0492L17.8747 12.0505Z" fill="#231815"/>
<path d="M18.3059 12.2108L18.2863 12.2966L17.8135 12.1875L17.8331 12.1018L18.3059 12.2108ZM18.4124 12.2365C18.4259 12.228 18.4394 12.2255 18.4553 12.2292C18.4712 12.2329 18.4823 12.2414 18.4908 12.2549C18.4994 12.2684 18.5019 12.2831 18.4982 12.3002C18.4945 12.3174 18.4859 12.3296 18.4725 12.3382C18.459 12.3468 18.4455 12.3492 18.4296 12.3456C18.4137 12.3419 18.4014 12.3333 18.3929 12.3198C18.3843 12.3064 18.3818 12.2917 18.3855 12.2745C18.3892 12.2574 18.3977 12.2451 18.4112 12.2365H18.4124Z" fill="#231815"/>
<path d="M17.7927 12.3652C17.8245 12.3358 17.8625 12.3162 17.9054 12.3076C17.9482 12.299 17.9911 12.3015 18.0364 12.3174C18.0817 12.3333 18.1185 12.3566 18.1479 12.3884C18.1761 12.4203 18.1944 12.4583 18.203 12.5011C18.2104 12.544 18.2067 12.5881 18.192 12.6346C18.1773 12.6812 18.1528 12.7179 18.1209 12.7473C18.0891 12.7767 18.0511 12.7963 18.0095 12.8049C17.9666 12.8135 17.9237 12.811 17.8784 12.7951C17.8331 12.7792 17.7963 12.7559 17.767 12.7241C17.7388 12.6922 17.7192 12.6542 17.7118 12.6114C17.7033 12.5685 17.7069 12.5244 17.7216 12.4779C17.7363 12.4313 17.7608 12.3946 17.7927 12.3652ZM17.7878 12.5881C17.7939 12.6163 17.8061 12.6408 17.827 12.6628C17.8466 12.6849 17.8735 12.7008 17.9054 12.7106C17.9372 12.7204 17.9678 12.7241 17.9972 12.7192C18.0266 12.7143 18.0511 12.702 18.0719 12.6824C18.0928 12.6628 18.1087 12.6395 18.1185 12.6101C18.1283 12.5808 18.1307 12.5514 18.1246 12.5244C18.1185 12.4962 18.1062 12.4717 18.0866 12.4497C18.067 12.4276 18.0401 12.4117 18.0083 12.4007C17.9764 12.3897 17.9458 12.3872 17.9164 12.3933C17.887 12.3982 17.8625 12.4105 17.8404 12.4301C17.8196 12.4485 17.8037 12.473 17.7939 12.5024C17.7841 12.5318 17.7816 12.5612 17.7878 12.5881Z" fill="#231815"/>
<path d="M17.8993 13.3158C17.8527 13.3378 17.7976 13.3366 17.7327 13.3133L17.4706 13.2178L17.5012 13.1357L17.7535 13.2276C17.7976 13.2435 17.8344 13.2447 17.865 13.2325C17.8956 13.219 17.9177 13.1933 17.9311 13.1541C17.9471 13.1088 17.9471 13.0696 17.9311 13.034C17.914 12.9985 17.8821 12.9728 17.8331 12.9544L17.598 12.8687L17.6286 12.7866L18.0843 12.952L18.0549 13.0316L17.9863 13.0071C18.0034 13.0328 18.0132 13.061 18.0157 13.0941C18.0181 13.1271 18.012 13.1614 17.9997 13.1982C17.9789 13.2558 17.9446 13.2962 17.8993 13.3182V13.3158Z" fill="#231815"/>
<path d="M10 16.8225C13.768 16.8225 16.8226 13.7679 16.8226 9.99988C16.8226 6.23184 13.768 3.17725 10 3.17725C6.23197 3.17725 3.17737 6.23184 3.17737 9.99988C3.17737 13.7679 6.23197 16.8225 10 16.8225Z" fill="white" stroke="#144DA0" stroke-miterlimit="10"/>
<path d="M5.4936 12.2561C5.37479 12.2561 5.25965 12.2438 5.15063 12.2193C5.04039 12.196 4.9473 12.1507 4.87013 12.0846C4.79296 12.0184 4.73539 11.9266 4.7011 11.809C4.66558 11.6914 4.66313 11.5371 4.6962 11.346L5.17513 8.62549C5.31109 8.62549 5.43358 8.64754 5.5426 8.69041C5.65284 8.7345 5.74348 8.79575 5.81575 8.87659C5.88802 8.95743 5.93946 9.05298 5.96886 9.16199C5.99826 9.27223 5.99948 9.39104 5.97376 9.51966L5.49483 12.2548L5.4936 12.2561Z" fill="#144DA0"/>
<path d="M7.25863 12.2561C7.13981 12.2561 7.02467 12.2438 6.91443 12.2193C6.80419 12.196 6.7111 12.1507 6.63393 12.0846C6.55677 12.0184 6.4992 11.9266 6.4649 11.809C6.42938 11.6914 6.42815 11.5371 6.46 11.346L6.93893 8.62549C7.07489 8.62549 7.19738 8.64754 7.30762 8.69041C7.41786 8.7345 7.50851 8.79575 7.58077 8.87659C7.65304 8.95743 7.70449 9.05298 7.73388 9.16199C7.76328 9.27223 7.76451 9.39104 7.73878 9.51966L7.25985 12.2548L7.25863 12.2561Z" fill="#144DA0"/>
<path d="M15.4667 9.98144C15.4177 10.2497 15.3454 10.4714 15.2487 10.6478C15.1519 10.8229 15.0282 10.9638 14.8763 11.0691C14.7244 11.1745 14.5431 11.248 14.3337 11.2921C14.1242 11.3362 13.8817 11.357 13.6073 11.357H13.0598C12.8822 11.357 12.6935 11.3447 12.4927 11.3178C12.4669 11.4538 12.4265 11.5799 12.3714 11.6963C12.3175 11.8126 12.244 11.9119 12.1509 11.9939C12.059 12.076 11.9451 12.1409 11.8092 12.1875C11.6744 12.234 11.5115 12.2585 11.3204 12.2585L11.7173 9.98266C11.7626 9.73156 11.8312 9.51843 11.9255 9.34572C12.0186 9.17301 12.1411 9.03337 12.2905 8.92681C12.4412 8.82024 12.6213 8.74307 12.8356 8.69653C13.0488 8.64998 13.2986 8.62671 13.5865 8.62671H14.0899C14.3545 8.62671 14.5848 8.64753 14.7795 8.68918C14.9743 8.73082 15.1311 8.80309 15.2462 8.90476C15.3626 9.00642 15.4397 9.14484 15.4789 9.31877C15.5181 9.49271 15.5132 9.71441 15.4642 9.98144M12.707 10.1456C12.7107 10.2129 12.7291 10.2717 12.7634 10.3195C12.7977 10.3673 12.8393 10.4065 12.8883 10.4359C12.9385 10.4653 12.9949 10.4873 13.0586 10.5008C13.121 10.5155 13.1823 10.5228 13.2398 10.5228H13.7678C13.829 10.5228 13.8939 10.5155 13.9613 10.5008C14.0287 10.4861 14.0936 10.464 14.1548 10.4359C14.2161 10.4065 14.2712 10.3685 14.319 10.3195C14.3667 10.2705 14.4047 10.2129 14.4304 10.1456C14.4684 10.0451 14.4892 9.94224 14.4892 9.83568C14.4892 9.76831 14.4721 9.70951 14.4378 9.66174C14.4035 9.61397 14.3606 9.57477 14.3092 9.54538C14.2577 9.51598 14.2002 9.49516 14.1377 9.48046C14.0752 9.46576 14.0127 9.45841 13.9515 9.45841H13.4236C13.3648 9.45841 13.3023 9.46576 13.2349 9.48046C13.1676 9.49516 13.1026 9.5172 13.0439 9.54538C12.9838 9.57477 12.9287 9.61397 12.8797 9.66174C12.8295 9.70951 12.7915 9.76831 12.7658 9.83568C12.7462 9.881 12.7327 9.93244 12.7229 9.99001C12.7131 10.0476 12.7082 10.1003 12.7082 10.1443" fill="#144DA0"/>
<path d="M8.50313 9.03949L8.45413 9.03582L8.53865 8.66957C8.47986 8.66712 8.42719 8.6659 8.38432 8.66345L8.22998 9.32734C8.83263 9.36899 11.1415 9.40328 11.7711 8.48584C11.0778 8.97702 9.80274 9.05541 9.06536 9.05541C8.74933 9.05541 8.53253 9.04072 8.50313 9.03949Z" fill="#C80E47"/>
<path d="M12.1949 7.52563C12.1361 7.62363 12.0528 7.70814 11.9536 7.78531C11.9291 7.80369 11.9034 7.82206 11.8777 7.84043C10.9958 8.42715 9.01635 8.36468 8.72605 8.35244L8.65745 8.64763L8.59131 8.93426C9.48548 8.98938 11.2248 8.91588 11.9059 8.27159C11.9291 8.24954 11.9512 8.22627 11.972 8.203C12.1398 8.01314 12.2145 7.78531 12.1949 7.52686" fill="#E14567"/>
<path d="M10.3295 9.47926L9.86277 12.2561H8.90369L9.38384 9.56377C9.68149 9.55152 10.0073 9.52458 10.3295 9.47681V9.47926Z" fill="#144DA0"/>
</g>
<defs>
<clipPath id="clip0_7_2183">
<rect width="20" height="20" fill="white"/>
</clipPath>
</defs>
</svg>
