<svg width="20" height="20" viewBox="0 0 20 20" fill="none" xmlns="http://www.w3.org/2000/svg">
<g clip-path="url(#clip0_7_2073)">
<path d="M13.618 12.9709C12.4731 14.5847 10.709 16.3891 8.77945 17.5651C4.55651 20.1375 0.524843 19.2415 1.18404 14.9508L4.15975 14.2795C4.15975 14.2795 3.93824 16.9216 5.62047 17.1919C6.96822 17.4085 9.76868 17.0666 12.9312 13.1329L13.618 12.9709Z" fill="#10569B"/>
<path d="M15.8287 5.18266C15.8287 5.18266 15.7086 2.41969 13.1438 2.38031C10.1192 2.33466 6.79833 4.85955 4.59034 12.1156L6.06708 11.9124L2.22133 16.6847L0 12.9712L1.54968 12.6607C1.54968 12.6607 2.76488 5.00454 8.59176 1.86477C16.4087 -1.46923 15.931 5.91479 15.931 5.91479L15.8287 5.18266Z" fill="#3F95D1"/>
<path d="M12.0051 10.4318C12.0051 10.9491 11.7943 11.3662 11.3717 11.6821C10.9492 11.999 10.3709 12.1574 9.63789 12.1574C9.23134 12.1574 8.86394 12.1153 8.53301 12.033C8.20297 11.9498 7.93698 11.8576 7.73682 11.7564V10.4363H7.87115C7.94409 10.4926 8.02861 10.5544 8.12468 10.6215C8.22076 10.6887 8.35687 10.7603 8.53301 10.8381C8.68424 10.9061 8.85682 10.9652 9.04898 11.0144C9.24113 11.0637 9.44663 11.0878 9.66636 11.0878C9.9537 11.0878 10.1663 11.0529 10.3042 10.9831C10.4421 10.9133 10.5115 10.8104 10.5115 10.6734C10.5115 10.5517 10.4706 10.4631 10.3896 10.4085C10.3087 10.3539 10.1539 10.3011 9.92701 10.2501C9.81848 10.2232 9.6717 10.1946 9.48666 10.1633C9.30162 10.1319 9.1326 10.0944 8.98137 10.0496C8.56681 9.93056 8.2599 9.74529 8.05974 9.49468C7.85958 9.24318 7.75906 8.93081 7.75906 8.55579C7.75906 8.07426 7.96633 7.67329 8.38267 7.35376C8.79811 7.03423 9.36567 6.87402 10.0863 6.87402C10.427 6.87402 10.7543 6.91162 11.0666 6.98769C11.3797 7.06377 11.6235 7.14432 11.7996 7.23114V8.49761H11.6733C11.4562 8.33382 11.2098 8.20136 10.9323 8.09843C10.6547 7.9955 10.3736 7.94448 10.0898 7.94448C9.85407 7.94448 9.65568 7.98028 9.49467 8.05189C9.33365 8.12349 9.2527 8.22463 9.2527 8.3553C9.2527 8.47434 9.28917 8.56474 9.36212 8.62739C9.43506 8.69004 9.60676 8.7518 9.87808 8.81445C10.0266 8.84757 10.1877 8.8789 10.3594 8.91022C10.5311 8.94155 10.7036 8.98093 10.8771 9.02837C11.2614 9.13846 11.5461 9.3112 11.7302 9.54749C11.9144 9.78377 12.006 10.0791 12.006 10.4327L12.0051 10.4318Z" fill="#F6881E"/>
<path d="M20 7.01196L18.5864 12.0197H17.0341L16.1044 8.6445L15.1864 12.0197H13.6189L12.2178 7.01196H13.7514L14.5343 10.4632L15.5075 7.01196H16.8028L17.728 10.4632L18.4984 7.01196H19.9991H20Z" fill="#F6881E"/>
</g>
<defs>
<clipPath id="clip0_7_2073">
<rect width="20" height="18" fill="white" transform="translate(0 1)"/>
</clipPath>
</defs>
</svg>
