<svg width="48" height="48" viewBox="0 0 48 48" fill="none" xmlns="http://www.w3.org/2000/svg">
<path d="M44.2161 12.2346C50.1211 20.5181 46.9641 32.5647 35.9286 38.2034C25.5613 43.4991 12.9176 42.6093 8.43037 37.4186C1.63545 29.5585 5.72926 16.4366 15.8686 8.67224C25.6893 1.15195 38.1613 3.74419 44.2161 12.2346Z" fill="white"/>
<path d="M37.39 18.4233C41.7835 24.5841 39.4103 33.5596 31.1696 37.7709C23.4285 41.7287 13.9981 41.083 10.6599 37.224C5.60433 31.3814 8.67703 21.6056 16.2495 15.8094C23.5846 10.1954 32.8839 12.108 37.3868 18.4233H37.39Z" fill="#ABC8F4"/>
<path d="M30.5606 24.6088C33.4397 28.6439 31.8534 34.5483 26.4106 37.3383C21.2957 39.9583 15.0816 39.5598 12.8895 37.0324C9.57008 33.2043 11.6217 26.7747 16.6304 22.9466C21.483 19.2389 27.6066 20.4717 30.5606 24.6088Z" fill="#5690E8"/>
<path d="M23.7345 30.7944C25.1023 32.7069 24.2998 35.5401 21.6517 36.9058C19.1661 38.188 16.1652 38.0335 15.1191 36.8378C13.539 35.0272 14.5664 31.9406 17.0114 30.0806C19.3784 28.2794 22.3293 28.8324 23.7314 30.7944H23.7345Z" fill="#0259DD"/>
<path d="M21.0835 42.0006C15.6189 42.0006 10.7912 40.5083 8.25248 37.57C5.63569 34.5421 4.49279 30.6213 4.9487 26.234C5.62007 19.7796 9.64831 13.1461 15.7281 8.48994C20.3872 4.92136 25.9705 3.40123 31.4445 4.21382C36.6594 4.98624 41.384 7.86274 44.4067 12.1018C47.1703 15.9762 48.0477 20.7096 46.8799 25.4338C45.5434 30.8438 41.5901 35.5741 36.0348 38.4104C31.3259 40.8173 25.9518 42.0006 21.0835 42.0006ZM28.5498 4.46409C24.1375 4.46409 19.772 5.97803 16.0123 8.85761C10.0324 13.4365 6.06974 19.9496 5.41398 26.2803C4.97056 30.541 6.07598 34.3382 8.60846 37.2672C12.7585 42.0686 24.9556 43.5486 35.8225 37.9964C41.2559 35.2188 45.1218 30.5997 46.4271 25.3225C47.5606 20.7344 46.7081 16.1338 44.0258 12.3706C41.078 8.2335 36.4658 5.42807 31.3758 4.67418C30.4359 4.53515 29.4897 4.46718 28.5498 4.46718V4.46409Z" fill="#CFE7FF"/>
<path d="M20.0529 40.6783C15.9747 40.6783 12.3743 39.566 10.482 37.3785C8.5303 35.123 7.67781 32.2002 8.01818 28.9251C8.51781 24.0928 11.5437 19.1215 16.109 15.6271C19.6126 12.9453 23.8064 11.8052 27.9158 12.4138C31.8067 12.9916 35.3321 15.1328 37.5805 18.2904C39.6383 21.1762 40.2941 24.7077 39.4228 28.233C38.4205 32.2929 35.4508 35.846 31.2758 37.9779C27.7378 39.7853 23.7033 40.6783 20.0529 40.6783ZM25.7424 12.7166C22.4543 12.7166 19.2005 13.8475 16.3963 15.9948C11.9309 19.412 8.97372 24.2628 8.48658 28.9714C8.16183 32.1167 8.97372 34.9191 10.8411 37.0757C13.9138 40.6288 22.9758 41.704 31.0666 37.5669C35.1198 35.4938 38.002 32.0519 38.9732 28.1218C39.8101 24.7293 39.1824 21.3338 37.2026 18.5561C35.0261 15.5035 31.6162 13.4303 27.8502 12.8711C27.1508 12.7661 26.4482 12.7166 25.7456 12.7166H25.7424Z" fill="#CFE7FF"/>
<path d="M19.0258 39.3528C16.3341 39.3528 13.964 38.6236 12.7149 37.1807C11.4284 35.6946 10.8632 33.7697 11.088 31.6131C11.419 28.4029 13.4394 25.0939 16.4902 22.7612C18.8384 20.9661 21.6426 20.206 24.3843 20.6108C26.9543 20.9939 29.2744 22.3997 30.7545 24.4729C32.1098 26.3699 32.5407 28.6996 31.9661 31.0261C31.2979 33.7357 29.315 36.1117 26.5202 37.5422C24.1563 38.7534 21.4615 39.3497 19.0258 39.3497V39.3528ZM22.9354 20.9692C20.7745 20.9692 18.6292 21.7138 16.7775 23.1289C13.8266 25.3843 11.8749 28.5729 11.5533 31.6626C11.344 33.6894 11.8686 35.4969 13.0709 36.881C15.0694 39.1828 20.9962 39.8533 26.3047 37.1344C28.9777 35.7657 30.8763 33.5009 31.5102 30.921C32.0504 28.7243 31.6476 26.5306 30.3704 24.7448C28.9652 22.7735 26.7575 21.4357 24.3125 21.0711C23.8534 21.0032 23.3944 20.9692 22.9323 20.9692H22.9354Z" fill="#CFE7FF"/>
<path d="M17.9952 38.0304C16.6899 38.0304 15.547 37.6813 14.9443 36.9892C14.3198 36.2754 14.0481 35.3455 14.1543 34.3042C14.3167 32.7161 15.3315 31.0693 16.871 29.8983C18.0607 28.9931 19.4753 28.6038 20.8524 28.8108C22.114 28.9993 23.2069 29.6574 23.9251 30.6615C24.5777 31.573 24.7838 32.6945 24.5059 33.8253C24.1749 35.1848 23.1725 36.3805 21.7611 37.1097C20.5714 37.7245 19.213 38.0273 17.9952 38.0273V38.0304ZM20.1279 29.2186C19.0912 29.2186 18.0576 29.5801 17.1583 30.2629C15.7219 31.3567 14.7726 32.883 14.6227 34.3475C14.529 35.2589 14.7632 36.0684 15.3003 36.6833C16.2215 37.7369 19.085 37.9655 21.5456 36.6956C22.8384 36.0283 23.7534 34.9407 24.0531 33.711C24.2967 32.713 24.1156 31.7243 23.5441 30.9241C22.9009 30.0219 21.9204 29.4318 20.7837 29.2619C20.5651 29.231 20.3465 29.2124 20.1279 29.2124V29.2186Z" fill="#CFE7FF"/>
<path d="M11.9958 19.6117C13.1006 16.3121 11.7587 12.9038 8.99854 11.9991C6.2384 11.0943 3.10523 13.0356 2.00043 16.3352C0.895622 19.6347 2.23754 23.043 4.99768 23.9478C7.75783 24.8525 10.891 22.9112 11.9958 19.6117Z" fill="white"/>
<path d="M6.38828 24.4018C5.89802 24.4018 5.40776 24.3277 4.92687 24.1701C2.04777 23.2277 0.639452 19.6808 1.78235 16.2636C2.33506 14.6168 3.39052 13.2419 4.75825 12.3953C6.13847 11.5395 7.6717 11.3201 9.0769 11.7805C10.479 12.2408 11.5782 13.3222 12.1683 14.8238C12.7554 16.313 12.7741 18.0402 12.2214 19.687C11.269 22.5326 8.83957 24.4049 6.3914 24.4049L6.38828 24.4018ZM7.59988 12.006C6.72553 12.006 5.83557 12.2686 5.00494 12.7846C3.73089 13.5756 2.74101 14.8609 2.22577 16.4057C1.16406 19.5788 2.44123 22.8631 5.07364 23.7252C7.70605 24.5872 10.7132 22.7087 11.7749 19.5356C12.2932 17.9907 12.2776 16.3748 11.7312 14.9875C11.1909 13.6157 10.1948 12.6301 8.92701 12.2161C8.49608 12.074 8.04954 12.006 7.59988 12.006Z" fill="#CFE7FF"/>
<path d="M8.60757 17.415C9.25842 15.4712 8.46952 13.464 6.84552 12.9316C5.22152 12.3993 3.37739 13.5434 2.72655 15.4872C2.07571 17.431 2.86461 19.4383 4.48861 19.9706C6.11261 20.5029 7.95673 19.3588 8.60757 17.415Z" fill="black"/>
<path d="M19.3818 22.0867C20.7567 18.8881 19.7022 15.3823 17.0264 14.2564C14.3507 13.1304 11.067 14.8106 9.69211 18.0093C8.31721 21.2079 9.37175 24.7137 12.0475 25.8396C14.7232 26.9656 18.0069 25.2854 19.3818 22.0867Z" fill="white"/>
<path d="M13.789 26.4225C13.1645 26.4225 12.5462 26.305 11.956 26.0548C9.16747 24.8807 8.0558 21.2318 9.47662 17.9196C10.9006 14.6075 14.3292 12.868 17.1178 14.0421C18.4761 14.6137 19.4816 15.7816 19.9469 17.3264C20.4059 18.8558 20.2842 20.5799 19.5972 22.1772C18.4761 24.788 16.1092 26.4225 13.789 26.4225ZM15.2817 14.1379C13.1489 14.1379 10.9568 15.6673 9.91067 18.1019C8.58978 21.1793 9.58903 24.5563 12.1403 25.6284C14.6915 26.7036 17.8454 25.0723 19.1663 21.9949C19.8095 20.4964 19.9282 18.8867 19.5004 17.4593C19.0757 16.0473 18.167 14.9844 16.9367 14.4685C16.4027 14.2429 15.8437 14.1379 15.2817 14.1379Z" fill="#CFE7FF"/>
<path d="M15.9771 19.7286C16.787 17.8443 16.1674 15.7797 14.593 15.1172C13.0187 14.4547 11.0858 15.4452 10.2759 17.3295C9.46593 19.2139 10.0856 21.2785 11.6599 21.941C13.2343 22.6034 15.1671 21.613 15.9771 19.7286Z" fill="black"/>
<path d="M12.1746 9.51881C11.8779 9.71655 11.1097 9.19748 10.1636 8.82363C9.2174 8.44978 9.19242 7.54759 9.72639 7.03162C10.2604 6.51564 11.2971 6.71029 11.9716 7.39929C12.6492 8.0852 12.4337 9.34888 12.1746 9.5219V9.51881Z" fill="black"/>
<path d="M14.2855 9.75054C14.4541 10.0626 15.3784 9.95755 16.3933 10.0595C17.4081 10.1615 17.8547 9.37669 17.6236 8.67533C17.3925 7.97397 16.387 7.66809 15.4627 7.9647C14.5415 8.26131 14.1387 9.47865 14.2855 9.75054Z" fill="black"/>
<path d="M23.7345 31.0632C25.1023 32.9757 24.2998 35.8089 21.6517 37.1746C19.1661 38.4568 16.1652 38.3023 15.1191 37.1066C13.539 35.296 14.5664 32.2094 17.0114 30.3494C19.3784 28.5482 22.3293 29.1012 23.7314 31.0632H23.7345Z" fill="white"/>
<path d="M31.4278 31.2606L24.3481 32.6121L24.4369 33.0671L31.5166 31.7157L31.4278 31.2606Z" fill="#CFE7FF"/>
<path d="M30.745 33.166L30.6978 33.6271L36.032 34.1622L36.0793 33.7012L30.745 33.166Z" fill="#CFE7FF"/>
<path d="M34.3949 35.4735L34.2306 35.9075L37.772 37.2196L37.9362 36.7856L34.3949 35.4735Z" fill="#CFE7FF"/>
</svg>
