<svg width="20" height="20" viewBox="0 0 20 20" fill="none" xmlns="http://www.w3.org/2000/svg">
<g clip-path="url(#clip0_7_1943)">
<path d="M10.0005 20C15.5154 20 20 15.5121 20 10.0005C20 4.4888 15.5154 0 10.0005 0C4.48558 0 0 4.48693 0 10.0005C0 15.514 4.48558 20 10.0005 20ZM0.418829 10.0005C0.418829 4.71694 4.71743 0.419803 10.0005 0.419803C15.2835 0.419803 19.5793 4.71694 19.5793 10.0005C19.5793 15.284 15.2835 19.5802 10.0005 19.5802C4.71743 19.5802 0.418829 15.2821 0.418829 10.0005Z" fill="#C10230"/>
<path d="M16.8915 9.0037C16.4137 5.60227 13.4614 3.03857 10.0238 3.03857C6.58622 3.03857 3.63385 5.59946 3.15332 8.99528L3.52914 9.04764C3.98256 5.83601 6.77507 3.4163 10.0238 3.4163C13.2725 3.4163 16.066 5.83975 16.5175 9.05606L16.8915 9.00276V9.0037Z" fill="#C10230"/>
<path d="M8.19148 14.6191V14.5406L8.37098 14.52L8.41398 14.5051L8.43268 14.4546C8.43923 14.4041 8.44296 14.2956 8.44296 14.1255V13.8992C8.44296 13.8216 8.44296 13.7356 8.44016 13.6458L8.43829 13.5645L8.43175 13.5271L8.41679 13.5168L8.37565 13.5327C8.25318 13.5869 8.17559 13.6206 8.141 13.6412L8.12978 13.6346L8.12043 13.5738L8.10828 13.514L8.11015 13.5075C8.22327 13.4766 8.31302 13.4467 8.38033 13.4261C8.4467 13.4027 8.55048 13.3653 8.69164 13.313L8.71315 13.327C8.71315 13.3373 8.71034 13.3653 8.7066 13.4168C8.70286 13.4654 8.70006 13.4972 8.70006 13.5121C8.70006 13.5654 8.69632 13.7057 8.69258 13.931V14.0722C8.69258 14.2078 8.69445 14.3041 8.70006 14.3564C8.70006 14.4387 8.7038 14.4836 8.71034 14.4976L8.72997 14.5172C8.74493 14.5238 8.78887 14.5303 8.86366 14.5341L8.92443 14.5387V14.6173C8.78607 14.6126 8.67482 14.6107 8.58974 14.6107C8.53178 14.6107 8.39716 14.6126 8.18868 14.6173L8.19148 14.6191Z" fill="#C10230"/>
<path d="M9.68173 13.9013L9.6219 13.9695L9.53589 13.9948L9.44146 13.9611L9.37135 13.8714C9.35452 13.8283 9.34517 13.7713 9.34517 13.7021C9.34517 13.6068 9.36013 13.5413 9.39285 13.502C9.42464 13.4618 9.46297 13.4413 9.51158 13.4413C9.57328 13.4413 9.6219 13.4703 9.65181 13.5292C9.6836 13.5881 9.69949 13.6703 9.69949 13.7769C9.69949 13.8312 9.69482 13.8714 9.68267 13.9013H9.68173ZM9.51158 14.5988C9.59105 14.566 9.66303 14.5165 9.73128 14.451C9.79672 14.3856 9.85001 14.3061 9.88834 14.2136C9.9276 14.121 9.94724 14.0079 9.94724 13.8751C9.94724 13.7592 9.93228 13.6657 9.9033 13.5918C9.87432 13.5151 9.82944 13.4544 9.7668 13.4085C9.70697 13.3618 9.62938 13.3394 9.53402 13.3394C9.41155 13.3394 9.31152 13.3796 9.23205 13.4646C9.15165 13.5497 9.11145 13.6601 9.11145 13.8031C9.11145 13.92 9.14137 14.0088 9.19653 14.0733C9.25075 14.1331 9.31993 14.1659 9.40126 14.1659L9.53682 14.1434L9.56954 14.1219C9.59198 14.1042 9.63125 14.0677 9.69295 14.0135C9.68267 14.1107 9.67238 14.1836 9.65742 14.2313C9.63779 14.293 9.61068 14.3491 9.57889 14.3996C9.54337 14.451 9.49849 14.4884 9.44333 14.5212C9.39005 14.5511 9.33115 14.5679 9.26851 14.5679L9.20026 14.5558L9.17783 14.5922L9.25075 14.6521C9.3433 14.6521 9.42931 14.6362 9.50878 14.6006L9.51158 14.5988Z" fill="#C10230"/>
<path d="M10.3772 13.8077C10.4156 13.7385 10.4782 13.6329 10.567 13.4908L10.5624 13.6656L10.5605 13.7881L10.5567 14.1312H10.2164C10.2847 13.9844 10.338 13.8769 10.3782 13.8086L10.3772 13.8077ZM10.654 14.6127L10.8961 14.6174H10.9718V14.5398L10.8494 14.5286L10.811 14.5117L10.7951 14.4818C10.7905 14.4482 10.7895 14.3846 10.7895 14.2902H10.9672L10.9606 14.22L10.9672 14.135L10.9606 14.1247L10.8251 14.1303H10.7895V13.9171C10.7905 13.7161 10.7923 13.588 10.7951 13.53C10.7989 13.4421 10.8007 13.3739 10.8045 13.3309L10.7877 13.3159C10.7764 13.3159 10.7362 13.3225 10.6643 13.3393L10.5521 13.3617C10.5259 13.3963 10.481 13.4599 10.4203 13.5581C10.3595 13.6544 10.2856 13.7881 10.1977 13.9573C10.1342 14.0817 10.093 14.1658 10.0771 14.2144L10.0884 14.2939C10.2034 14.2892 10.3155 14.2892 10.4296 14.2892H10.5558C10.5521 14.3883 10.5521 14.4426 10.5493 14.4528L10.5334 14.5099L10.5035 14.523C10.4885 14.5286 10.4305 14.5314 10.3277 14.5379V14.6165L10.654 14.6099V14.6127Z" fill="#C10230"/>
<path d="M11.4066 13.575C11.4197 13.5273 11.4412 13.4927 11.4664 13.4712L11.5552 13.4403L11.6338 13.4656L11.6908 13.5422C11.7067 13.5778 11.7188 13.6311 11.7272 13.7003C11.7441 13.8312 11.7534 13.9602 11.7534 14.092C11.7534 14.2958 11.7347 14.4211 11.7029 14.4744C11.6683 14.5249 11.6272 14.552 11.5767 14.552L11.4664 14.4978C11.4346 14.4604 11.4122 14.3847 11.3982 14.2715C11.3841 14.1565 11.3767 14.0256 11.3767 13.8863C11.3767 13.747 11.386 13.6442 11.4066 13.575ZM11.1626 14.2865C11.1766 14.3669 11.1981 14.4361 11.2327 14.4866C11.2673 14.5399 11.3103 14.5819 11.3636 14.61C11.4187 14.6371 11.4795 14.6502 11.5524 14.6502C11.6132 14.6502 11.6646 14.6418 11.7067 14.624L11.8226 14.552C11.8563 14.5193 11.888 14.4744 11.9142 14.4183C11.9423 14.3641 11.9628 14.2958 11.9713 14.2182C11.9806 14.1397 11.9871 14.049 11.9871 13.9443C11.9871 13.7966 11.9731 13.6816 11.9479 13.5993C11.9217 13.5161 11.8796 13.4516 11.8207 13.4048C11.7618 13.3618 11.6824 13.3394 11.5767 13.3394C11.5262 13.3394 11.4776 13.3468 11.4318 13.3618L11.3131 13.4347C11.2785 13.4637 11.2477 13.5048 11.2215 13.5544C11.1953 13.604 11.1747 13.6572 11.1663 13.718C11.1504 13.8068 11.1429 13.9059 11.1429 14.0163C11.1429 14.1163 11.1495 14.2061 11.1598 14.2865H11.1626Z" fill="#C10230"/>
<path d="M7.29964 1.51842L7.33049 1.54086L7.35853 1.60351C7.38284 1.68298 7.40434 1.769 7.42771 1.86904L7.49035 2.13551L7.5371 2.33653C7.56327 2.44872 7.57917 2.51417 7.59039 2.54035L7.65957 2.65909C7.69229 2.69649 7.73436 2.72734 7.78484 2.75259C7.83532 2.7797 7.89796 2.79373 7.96995 2.80027C8.06905 2.80682 8.17188 2.7984 8.27753 2.77222C8.36914 2.75072 8.44581 2.7236 8.51218 2.68714C8.57669 2.64974 8.62998 2.60767 8.67205 2.55998C8.71225 2.50856 8.74123 2.45527 8.75712 2.40291C8.77488 2.34775 8.77956 2.28604 8.77301 2.21685C8.76647 2.14766 8.75712 2.08034 8.74029 2.0177L8.68327 1.769C8.66644 1.69887 8.64681 1.5979 8.62156 1.47168C8.59726 1.34452 8.5851 1.27159 8.58697 1.25383L8.59913 1.21736C8.61408 1.2024 8.65335 1.18744 8.71879 1.17435L8.69916 1.0874L8.46731 1.14818L8.43926 1.15753C8.41589 1.1622 8.33829 1.17716 8.21115 1.20053L8.23078 1.28842C8.30931 1.27066 8.36167 1.26692 8.38878 1.2744L8.41869 1.2931C8.43085 1.30993 8.44861 1.36228 8.47105 1.44924C8.48133 1.48944 8.50751 1.60351 8.55051 1.78676L8.59913 2.00181C8.63559 2.14953 8.64681 2.25518 8.63372 2.31409C8.6225 2.37299 8.59165 2.42441 8.54023 2.47303C8.49161 2.51791 8.41682 2.55531 8.3196 2.57775C8.23359 2.59738 8.16347 2.60112 8.10177 2.58803C8.041 2.57775 7.99332 2.55437 7.95873 2.51885C7.92133 2.48612 7.89235 2.43563 7.87179 2.37112C7.86057 2.34214 7.84093 2.2636 7.81195 2.13551L7.7811 2.01303L7.72407 1.769C7.69042 1.62034 7.67265 1.52497 7.67265 1.47916L7.68387 1.43615C7.70257 1.41745 7.74838 1.40155 7.82411 1.38285L7.8026 1.29497L7.76427 1.30525L7.62404 1.34078L7.48194 1.37818L7.13977 1.45017L7.16127 1.53712L7.30151 1.51842H7.29964Z" fill="#C10230"/>
<path d="M9.59187 2.517V2.43005H9.57037L9.47033 2.42163L9.43294 2.40948L9.41891 2.38984C9.41331 2.37208 9.40863 2.32346 9.40583 2.24025C9.40209 2.12151 9.40022 2.00557 9.40022 1.89431V1.36418C9.82279 1.87748 10.1472 2.26269 10.3781 2.52167C10.4389 2.52728 10.5006 2.53757 10.5604 2.54785L10.5735 2.5385C10.5632 2.43753 10.5604 2.15049 10.5604 1.67739C10.5604 1.61662 10.5604 1.52312 10.5632 1.39784C10.5679 1.26975 10.5744 1.18747 10.5847 1.15287L10.5969 1.13698C10.6128 1.12763 10.6651 1.12015 10.7521 1.11735V1.02759C10.6399 1.03133 10.5492 1.0332 10.4791 1.0332C10.409 1.0332 10.3276 1.03133 10.2397 1.02759V1.11735C10.3342 1.11922 10.3912 1.12763 10.4062 1.13885L10.4267 1.19027C10.4323 1.25853 10.4379 1.48292 10.4379 1.86532V2.11216C10.3388 2.01305 10.2164 1.87 10.0659 1.68861C9.85644 1.44085 9.68068 1.223 9.53391 1.02852L9.43574 1.03226L9.28055 1.03413C9.23848 1.03413 9.1721 1.03226 9.08142 1.02852V1.11828C9.15528 1.12389 9.20296 1.12856 9.21698 1.13137L9.25157 1.15007L9.26746 1.18466C9.2712 1.20056 9.27307 1.23515 9.27307 1.28845L9.27868 1.59699V1.94012C9.27868 2.03455 9.27681 2.11216 9.27307 2.17106C9.26933 2.27484 9.26279 2.33842 9.25905 2.36647L9.24503 2.40574L9.22446 2.41883C9.21324 2.42257 9.16463 2.42444 9.08142 2.43098V2.52261C9.20015 2.51793 9.29271 2.51419 9.36282 2.51419C9.37965 2.51419 9.45724 2.51419 9.5928 2.517H9.59187Z" fill="#C10230"/>
<path d="M3.03653 4.4786L3.07205 4.46458L3.10758 4.4758L3.18798 4.53657L3.4245 4.73759L3.6816 4.96479C3.75358 5.02649 3.81061 5.07605 3.85268 5.11906C3.92654 5.19198 3.97422 5.23967 3.99011 5.2593L4.01161 5.29577L4.00881 5.32008C4.0032 5.3313 3.97422 5.37056 3.9228 5.43508L3.99104 5.49679C4.06677 5.40516 4.1266 5.3341 4.17241 5.27987C4.18457 5.26865 4.23598 5.21068 4.32573 5.10877L4.26123 5.05361L4.24814 5.0695L4.17522 5.14056L4.14437 5.1602L4.11912 5.15739C4.10136 5.14991 4.06023 5.11999 3.99665 5.06857C3.90504 4.99097 3.81716 4.91804 3.73395 4.84605L3.33475 4.4945C3.99852 4.51787 4.50336 4.52815 4.84833 4.52348C4.89601 4.48234 4.94182 4.44401 4.98857 4.40567L4.99044 4.38697C4.9091 4.32714 4.69034 4.14388 4.33508 3.83066C4.29021 3.7914 4.22009 3.72782 4.12754 3.6418C4.03311 3.55485 3.97702 3.49594 3.95832 3.46509L3.95365 3.44546C3.95552 3.42676 3.98637 3.38468 4.04059 3.31643L3.97328 3.25659C3.90317 3.34354 3.84614 3.41367 3.80033 3.46696C3.75078 3.52025 3.69749 3.58103 3.63485 3.6418L3.70123 3.69977C3.76667 3.63058 3.80781 3.59225 3.82837 3.58944L3.87886 3.60908C3.93495 3.64648 4.10791 3.79233 4.39585 4.04384L4.58096 4.20652C4.43885 4.214 4.25094 4.21494 4.01722 4.20839C3.69188 4.20091 3.40955 4.18876 3.17022 4.17099L3.10758 4.2486L3.00755 4.36547C2.98137 4.39913 2.93369 4.44681 2.87012 4.51132L2.9393 4.57116C2.99259 4.51787 3.02531 4.48702 3.0384 4.4786H3.03653Z" fill="#C10230"/>
<path d="M11.5411 2.67599L11.5561 2.58623C11.4887 2.57408 11.4476 2.56566 11.4336 2.55912L11.4065 2.54509L11.3953 2.52172C11.3925 2.49834 11.3953 2.42168 11.4065 2.35249L11.4308 2.16362L11.4916 1.7513C11.4953 1.74008 11.5084 1.64752 11.5374 1.48016C11.5448 1.42967 11.5533 1.39788 11.5561 1.38012L11.5757 1.31654L11.5888 1.30251L11.6178 1.29316C11.6318 1.2913 11.672 1.2941 11.7402 1.30438L11.7561 1.21369C11.643 1.19967 11.5252 1.18471 11.4009 1.16694C11.2906 1.14918 11.1915 1.13422 11.1054 1.11646L11.0924 1.20715C11.1662 1.22117 11.2092 1.23052 11.2214 1.2352L11.2438 1.25016L11.2494 1.2726C11.2494 1.2941 11.2457 1.34926 11.2382 1.43528C11.2335 1.47642 11.2214 1.56431 11.2008 1.69988L11.1372 2.12716C11.1269 2.19728 11.1129 2.27302 11.0942 2.35249C11.0811 2.40952 11.0746 2.46936 11.0718 2.47684L11.0615 2.4918L11.0288 2.49928C11.0176 2.49928 10.9746 2.49647 10.9063 2.48806L10.8914 2.57782C10.9774 2.58717 11.0765 2.60026 11.1858 2.61709C11.313 2.63672 11.4308 2.65449 11.542 2.67692L11.5411 2.67599Z" fill="#C10230"/>
<path d="M17.3216 5.36392C17.2907 5.38729 17.214 5.43404 17.0981 5.50416L16.7298 5.73417C16.6681 5.77157 16.6026 5.81084 16.5306 5.84823C16.4802 5.87535 16.4297 5.90807 16.4203 5.91181L16.4016 5.91368L16.3773 5.89218C16.3689 5.88376 16.3446 5.8501 16.3035 5.79307L16.2268 5.83889C16.2764 5.91088 16.3315 5.99316 16.3895 6.08665C16.4568 6.19698 16.5176 6.30076 16.5746 6.398L16.6522 6.34751C16.6176 6.29048 16.597 6.25588 16.5933 6.24092L16.5877 6.20913L16.598 6.18483C16.6138 6.168 16.6727 6.12125 16.7316 6.08385L16.8915 5.98194L17.2468 5.76128C17.258 5.75567 17.3356 5.70892 17.4814 5.62104L17.5684 5.57055L17.631 5.5425L17.6525 5.54437L17.6777 5.55933C17.6862 5.56961 17.7105 5.60327 17.7497 5.66311L17.8264 5.61356C17.7647 5.52099 17.6983 5.41908 17.631 5.31343C17.573 5.21713 17.5235 5.13298 17.4805 5.05444L17.402 5.10493C17.4384 5.16944 17.4609 5.20965 17.4627 5.21993L17.4665 5.24798L17.4552 5.26762C17.4394 5.28258 17.3945 5.31343 17.3225 5.36298L17.3216 5.36392Z" fill="#C10230"/>
<path d="M12.2115 1.53528C12.219 1.59512 12.2348 1.77557 12.2592 2.07289L12.2881 2.4581C12.2984 2.59928 12.3096 2.74981 12.3199 2.90595L12.4714 2.95644C12.549 2.85546 12.6883 2.68623 12.8911 2.45436L13.1314 2.17948L13.2567 2.0383C13.3576 1.92049 13.4212 1.85972 13.4446 1.84943C13.4577 1.84569 13.4969 1.84943 13.5615 1.86813L13.5904 1.78025L13.3745 1.71573L13.1258 1.62691L13.0968 1.71199L13.2025 1.75594L13.237 1.7709L13.2473 1.78866L13.2445 1.81484L13.2352 1.84008C13.2193 1.86346 13.1828 1.91208 13.1286 1.98033C13.0482 2.0785 13.0061 2.13366 12.9968 2.14582L12.5948 2.61705L12.5471 1.92423V1.90366C12.5471 1.89805 12.5443 1.85972 12.5396 1.79146C12.5303 1.67085 12.5293 1.5998 12.5368 1.5811L12.5536 1.55866L12.5882 1.55492C12.6163 1.55772 12.6584 1.56707 12.7107 1.58484L12.7406 1.49882L12.3826 1.38756C12.348 1.37727 12.2535 1.34268 12.0956 1.28564L12.0675 1.36979C12.1292 1.39223 12.1666 1.4128 12.1834 1.42963C12.1946 1.44085 12.2049 1.47731 12.2133 1.53528H12.2115Z" fill="#C10230"/>
<path d="M13.8242 2.4299L13.5886 2.83661C13.5606 2.88336 13.5147 2.95722 13.4502 3.05726C13.4166 3.11056 13.3885 3.1517 13.3708 3.17414L13.253 3.17694L13.224 3.22462C13.4138 3.32841 13.5138 3.38638 13.5269 3.39479C13.5821 3.42471 13.6812 3.48268 13.8205 3.56776L13.9654 3.65658C14.0364 3.69772 14.0916 3.72577 14.1336 3.7426L14.1505 3.73886C14.1972 3.66032 14.2599 3.56776 14.3431 3.4565L14.2692 3.41255C14.2084 3.48735 14.1664 3.53504 14.1383 3.55841L14.1168 3.56589C14.1009 3.56776 14.0626 3.55467 14.0056 3.52569C13.9476 3.49764 13.8859 3.46585 13.8195 3.42751C13.7541 3.38918 13.6971 3.35552 13.6512 3.32186L13.712 3.20967L13.9326 2.82633C13.9728 2.84596 14.0224 2.87307 14.0813 2.9058C14.1449 2.9432 14.1972 2.97873 14.2346 3.00771L14.2617 3.05259C14.2617 3.07503 14.2412 3.12271 14.1981 3.19097L14.2757 3.23584L14.3879 3.03389L14.5076 2.83848L14.4337 2.79734C14.4029 2.84877 14.3748 2.8871 14.3533 2.90486L14.3318 2.91515L14.2701 2.8899C14.1832 2.84222 14.1336 2.81417 14.1187 2.80482L13.9925 2.72909L14.1009 2.54209C14.1608 2.43644 14.2168 2.35136 14.2636 2.29059C14.3206 2.31864 14.3786 2.34575 14.4328 2.37941C14.488 2.41213 14.5459 2.4486 14.6002 2.49161L14.6656 2.5477V2.57201C14.659 2.59071 14.6357 2.63559 14.5973 2.70758L14.6675 2.74779C14.7179 2.67393 14.746 2.63092 14.7525 2.62531L14.8451 2.50376V2.48787L14.817 2.46543C14.7535 2.42429 14.7114 2.39811 14.688 2.38689L14.5029 2.28404C14.3992 2.22701 14.3085 2.17465 14.2262 2.12697L14.1065 2.05871L13.9009 1.92969L13.855 2.00823C13.9242 2.05404 13.9644 2.08209 13.9756 2.09892L13.9822 2.12229C13.9813 2.13819 13.9598 2.18307 13.9233 2.25225C13.8653 2.35417 13.8326 2.41587 13.8223 2.4299H13.8242Z" fill="#C10230"/>
<path d="M1.22373 8.54759L1.24336 8.53637C1.26019 8.53263 1.30881 8.53918 1.3864 8.55414C1.50046 8.57751 1.56683 8.59247 1.5846 8.59528L2.04176 8.7028C2.09598 8.71589 2.18012 8.7402 2.29418 8.77105C2.35868 8.78788 2.40356 8.80191 2.43067 8.81313L2.46432 8.92626L2.52042 8.93935C2.56436 8.72898 2.5896 8.61398 2.59427 8.59621C2.60643 8.53731 2.63541 8.42605 2.67561 8.26617L2.71581 8.10255C2.73357 8.02307 2.74573 7.96043 2.75133 7.91555L2.74105 7.89966C2.65411 7.88002 2.54566 7.8473 2.41571 7.80149L2.39514 7.8847C2.48396 7.91929 2.54286 7.94547 2.57184 7.96604L2.58679 7.98194C2.59334 7.9997 2.59053 8.0371 2.58119 8.10255C2.57184 8.16613 2.55688 8.23344 2.54192 8.30731C2.52509 8.3821 2.50639 8.44568 2.4905 8.50178C2.45498 8.49337 2.41291 8.48682 2.36523 8.47467L1.93518 8.37556C1.94172 8.33162 1.95201 8.27645 1.96603 8.211C1.98379 8.13808 2.00156 8.08011 2.02025 8.03429L2.05484 7.99689C2.07635 7.99129 2.12496 7.9969 2.20349 8.01466L2.22312 7.92584L2.00062 7.88002L1.77905 7.82393L1.75849 7.90714C1.81925 7.92303 1.86132 7.93612 1.8847 7.95202L1.90152 7.97165L1.89498 8.0371C1.87441 8.1334 1.86319 8.19043 1.86039 8.20633C1.84637 8.25775 1.83421 8.30544 1.81925 8.34844L1.61264 8.3017C1.49298 8.27365 1.39856 8.24653 1.32376 8.22035C1.33405 8.15584 1.34527 8.0932 1.35929 8.03429C1.37425 7.96978 1.39295 7.9034 1.41632 7.83888L1.45278 7.76222L1.47428 7.75193C1.49298 7.75193 1.54346 7.76222 1.62386 7.77811L1.64163 7.69957C1.55655 7.67339 1.50794 7.6575 1.49859 7.65563L1.35742 7.60327L1.34153 7.60608L1.32844 7.63787C1.306 7.71173 1.29665 7.76222 1.29011 7.78746L1.24804 7.99409C1.2228 8.10816 1.20036 8.211 1.17886 8.30357L1.14707 8.43727L1.0863 8.67195L1.17418 8.68971C1.19756 8.61117 1.21345 8.56629 1.2256 8.54853L1.22373 8.54759Z" fill="#C10230"/>
<path d="M15.0638 3.23116L14.817 3.52942L14.6151 3.76129L14.5291 3.84544L14.5057 3.86414L14.4842 3.8604C14.4711 3.85666 14.4309 3.82861 14.3683 3.78093L14.3103 3.85105C14.3832 3.90715 14.4636 3.96886 14.5459 4.03804C14.6403 4.11565 14.7319 4.19512 14.8226 4.27179L14.8796 4.2026C14.8282 4.15866 14.8002 4.13154 14.7908 4.11845L14.7731 4.09134V4.07357L14.8123 4.00812C14.8245 3.99036 14.8731 3.92772 14.9629 3.81365C15.0367 3.72296 15.105 3.63694 15.1713 3.55653C15.2153 3.50511 15.3013 3.40694 15.4266 3.25734C15.4836 3.19096 15.5228 3.14982 15.5387 3.12831L15.621 3.18722C15.6799 3.23303 15.7173 3.27043 15.7323 3.30035C15.7566 3.34055 15.7669 3.38824 15.765 3.4406C15.7612 3.49108 15.7379 3.54438 15.6977 3.59113C15.6575 3.63788 15.6098 3.6734 15.5546 3.69397C15.4995 3.71828 15.4481 3.72202 15.4051 3.70893C15.3592 3.69958 15.3032 3.66499 15.2433 3.60983L15.2115 3.62759L15.219 3.72296C15.2134 3.79776 15.2031 3.89686 15.1863 4.01841L15.1227 4.44476L15.105 4.50646L15.2358 4.60931C15.2742 4.63923 15.3312 4.69065 15.4144 4.75891L15.4686 4.69159L15.4219 4.64484L15.4125 4.60277C15.4125 4.585 15.4153 4.53451 15.4181 4.44663C15.4181 4.44195 15.4228 4.40081 15.4312 4.32321L15.4611 4.03056L15.463 4.00812L15.4705 3.938L15.4864 3.8258C15.5967 3.8632 15.693 3.87255 15.7753 3.85198C15.8603 3.83328 15.9277 3.79028 15.9809 3.72483C16.0277 3.66966 16.0511 3.61263 16.0539 3.54999C16.0567 3.48547 16.0398 3.43125 16.009 3.38637C15.9772 3.33868 15.9183 3.28072 15.8351 3.21059C15.7912 3.17413 15.7351 3.13112 15.6668 3.07876C15.6238 3.04884 15.5743 3.00864 15.5191 2.96189C15.4527 2.90766 15.4013 2.86559 15.3677 2.8338C15.2957 2.77116 15.2545 2.73469 15.2414 2.72534L15.1882 2.79079C15.2489 2.85156 15.2835 2.8899 15.2929 2.90579V2.92917C15.2882 2.946 15.2564 2.98807 15.2031 3.05632L15.0676 3.23023L15.0638 3.23116Z" fill="#C10230"/>
<path d="M15.8033 5.1572C15.7566 5.09642 15.7267 5.03004 15.7145 4.96085C15.7014 4.88605 15.7024 4.82809 15.722 4.7804C15.7753 4.72804 15.823 4.6869 15.8641 4.65605L15.809 4.58593C15.6809 4.6869 15.5762 4.75048 15.4995 4.78227C15.5173 4.87203 15.5406 4.94776 15.5687 5.00947C15.5977 5.07211 15.6369 5.13943 15.6893 5.20675C15.7613 5.30025 15.8361 5.37224 15.9146 5.41712C15.9632 5.4461 16.0202 5.46761 16.0838 5.4807C16.1474 5.49472 16.21 5.49753 16.2652 5.49005C16.3437 5.47789 16.4176 5.44236 16.4877 5.38907L16.5868 5.28809L16.6363 5.18618L16.6419 5.07492C16.6382 5.03658 16.6242 4.98797 16.6017 4.93561C16.5915 4.91317 16.5681 4.87296 16.5335 4.80565C16.5008 4.74207 16.4746 4.68877 16.4568 4.65325C16.4353 4.60089 16.4222 4.55975 16.4194 4.52889L16.4353 4.43727L16.5111 4.34938C16.5625 4.31105 16.6232 4.29796 16.6943 4.30824C16.7635 4.32227 16.827 4.36621 16.8859 4.44288C16.9243 4.4943 16.9514 4.54853 16.9673 4.6065C16.9813 4.66353 16.9822 4.71028 16.971 4.74487C16.9467 4.77199 16.9028 4.80845 16.8411 4.86081L16.8925 4.92906C16.9514 4.88699 17.0009 4.8552 17.0374 4.83089L17.158 4.76731L17.172 4.74487C17.1608 4.68971 17.1393 4.62987 17.1066 4.56536C17.0748 4.50085 17.0355 4.44194 16.9907 4.3821C16.9467 4.32414 16.899 4.27365 16.8439 4.22783C16.7915 4.18295 16.7326 4.15397 16.6719 4.1334C16.6092 4.11003 16.5438 4.10909 16.4709 4.12499C16.3951 4.13714 16.3306 4.16706 16.2671 4.21661L16.1586 4.33255C16.1306 4.37743 16.1156 4.42511 16.11 4.4756C16.1063 4.52515 16.1147 4.58032 16.1362 4.63922C16.1511 4.67849 16.1867 4.75609 16.2437 4.87483C16.2811 4.95898 16.3035 5.01788 16.3101 5.05809L16.296 5.16374L16.2222 5.2535L16.0876 5.31521C16.0399 5.31895 15.9922 5.30866 15.9408 5.28061C15.8903 5.2535 15.8454 5.21516 15.8033 5.16187V5.1572Z" fill="#C10230"/>
<path d="M1.60711 10.1182C1.65479 10.1005 1.69686 10.0761 1.73239 10.0397C1.76698 10.0032 1.79596 9.95553 1.81559 9.89476C1.82961 9.85549 1.84925 9.77134 1.87823 9.64512C1.9016 9.55723 1.9231 9.49553 1.94274 9.46187L2.02033 9.3852L2.13345 9.36182C2.18674 9.36556 2.23348 9.37678 2.27462 9.40109C2.31575 9.42634 2.34754 9.46561 2.36811 9.5189C2.39148 9.57126 2.40176 9.63016 2.40083 9.69842C2.39802 9.77415 2.3812 9.84521 2.34661 9.90785C2.31108 9.97143 2.27181 10.0172 2.22694 10.0425C2.15215 10.05 2.08858 10.0509 2.03716 10.0481V10.136C2.20076 10.1407 2.32136 10.1556 2.40176 10.179C2.4429 10.0986 2.47095 10.0266 2.49058 9.95834C2.50647 9.89195 2.51675 9.81435 2.51769 9.7274C2.52236 9.61146 2.50741 9.50862 2.47562 9.42353C2.45505 9.37117 2.42607 9.31788 2.384 9.26833C2.34287 9.21784 2.29706 9.17764 2.24751 9.14678C2.17926 9.10938 2.0998 9.08975 2.01098 9.08601C1.95956 9.08414 1.91375 9.09068 1.87262 9.10377L1.76885 9.15052L1.69499 9.2328C1.67255 9.26833 1.65386 9.31321 1.63796 9.37024C1.63329 9.39174 1.62207 9.43943 1.60711 9.51142C1.59402 9.58341 1.5828 9.64045 1.57439 9.68159C1.5585 9.73301 1.54167 9.77321 1.52391 9.80126L1.45379 9.8611L1.33973 9.8826C1.2771 9.8826 1.22007 9.85456 1.17239 9.80126C1.12658 9.74797 1.10321 9.67224 1.10601 9.57874C1.10788 9.51142 1.12097 9.45252 1.14715 9.39922C1.17145 9.34406 1.19857 9.30853 1.23129 9.28703C1.26588 9.28235 1.32384 9.28048 1.40518 9.28048L1.40798 9.19259C1.33506 9.18979 1.27803 9.18324 1.23503 9.1767L1.1004 9.15239L1.07516 9.16081C1.04618 9.21129 1.02842 9.27207 1.01252 9.34126C0.998501 9.41044 0.989152 9.4815 0.987282 9.5563C0.986348 9.62642 0.991957 9.69841 1.00505 9.76667C1.02094 9.83399 1.04431 9.89756 1.07984 9.95086C1.11536 10.006 1.16585 10.05 1.23129 10.0855C1.29579 10.1201 1.36872 10.1379 1.44631 10.1407C1.5024 10.1407 1.55663 10.1332 1.60618 10.1173L1.60711 10.1182Z" fill="#C10230"/>
<path d="M18.967 9.50583C18.9492 9.43851 18.9193 9.37961 18.8819 9.32725C18.8426 9.27302 18.7903 9.23282 18.723 9.2029C18.6547 9.17204 18.5818 9.15615 18.5033 9.16176C18.4481 9.16363 18.3957 9.17298 18.3471 9.19261C18.2985 9.21412 18.2583 9.24497 18.2247 9.28237C18.1929 9.31696 18.1686 9.36932 18.1527 9.43103C18.1415 9.4703 18.1265 9.55538 18.1031 9.68347C18.0863 9.77229 18.0695 9.83307 18.0508 9.8714L17.9779 9.95181L17.8666 9.97986C17.8133 9.98173 17.7656 9.97051 17.7226 9.949C17.6815 9.92844 17.6488 9.88917 17.6217 9.83868C17.5964 9.78725 17.5824 9.72742 17.5796 9.6629C17.5759 9.5853 17.5927 9.51611 17.6217 9.44973C17.6534 9.38335 17.6899 9.33566 17.7329 9.30761C17.8058 9.29639 17.8685 9.28798 17.919 9.28798L17.9162 9.20103C17.7525 9.20477 17.6301 9.20103 17.5506 9.18139C17.5132 9.2618 17.4889 9.33753 17.4749 9.40485C17.4627 9.4731 17.4571 9.54977 17.4609 9.63859C17.4646 9.75546 17.4861 9.85551 17.5216 9.93685C17.545 9.99108 17.5777 10.0416 17.6226 10.0883C17.6675 10.1351 17.7152 10.1734 17.7684 10.2014C17.8367 10.2351 17.9162 10.2501 18.0068 10.2482C18.0583 10.2463 18.1041 10.237 18.1452 10.222L18.2452 10.1678L18.3135 10.0799C18.334 10.0444 18.3481 9.99949 18.3621 9.94152C18.3649 9.91815 18.3742 9.87047 18.3808 9.7966C18.3911 9.72461 18.4004 9.66851 18.407 9.62737C18.4201 9.57408 18.4341 9.53107 18.449 9.50583L18.5154 9.43944L18.6276 9.4114C18.6912 9.40859 18.7482 9.43196 18.7987 9.48245C18.8492 9.53388 18.8753 9.60774 18.88 9.70124C18.8819 9.76762 18.8707 9.82933 18.8492 9.88356C18.8277 9.93685 18.8024 9.97799 18.7725 10.0004C18.7389 10.007 18.6809 10.0126 18.6005 10.0173L18.6033 10.1051C18.6743 10.1051 18.7342 10.1079 18.7762 10.1079L18.9118 10.1248L18.937 10.1164C18.9604 10.064 18.9772 10.0023 18.9875 9.93311C18.9987 9.86112 19.0025 9.79099 18.9997 9.7162C18.9969 9.64233 18.9866 9.57408 18.9688 9.50583H18.967Z" fill="#C10230"/>
<path d="M17.6992 6.09312C17.7563 6.06975 17.8077 6.05199 17.8582 6.0417L17.8974 6.03889L17.9208 6.07349C17.9479 6.12398 17.976 6.18475 18.0059 6.253L18.0667 6.39232C18.0489 6.4026 17.961 6.44187 17.803 6.50732L17.2225 6.75695C17.0832 6.81773 16.9981 6.85045 16.9672 6.857L16.9167 6.8411C16.9018 6.83082 16.8756 6.78781 16.841 6.71114L16.7606 6.74573C16.8176 6.86074 16.8663 6.96732 16.9055 7.05802C16.9439 7.1431 16.985 7.25062 17.0336 7.37871L17.1131 7.34318C17.0822 7.26558 17.0682 7.21603 17.0691 7.19733L17.0934 7.15338C17.1196 7.13281 17.2019 7.09448 17.3412 7.03464L17.9208 6.78594C18.0751 6.71862 18.1629 6.68216 18.1882 6.67374L18.2471 6.81212C18.2798 6.88785 18.3041 6.9533 18.3209 7.00566L18.3275 7.04025L18.2929 7.07204C18.248 7.09635 18.2031 7.12346 18.1527 7.14777L18.1873 7.22631C18.3237 7.17115 18.3967 7.1431 18.4013 7.13936L18.5089 7.10663L18.5145 7.09074L18.4687 7.00566C18.4434 6.95236 18.3967 6.84204 18.3266 6.68029L18.1583 6.28947C18.0891 6.13146 18.0452 6.02394 18.0227 5.96784L17.9881 5.86873L17.976 5.86499L17.8872 5.91267C17.8703 5.92015 17.7965 5.95475 17.6665 6.01272L17.7002 6.09406L17.6992 6.09312Z" fill="#C10230"/>
<path d="M17.746 7.73511C17.6076 7.71548 17.517 7.70239 17.4711 7.69491C17.3711 7.67808 17.3132 7.66779 17.2982 7.66312L17.2608 7.64816L17.2412 7.62291C17.2356 7.6145 17.2225 7.58177 17.2056 7.52661L17.1224 7.54812L17.1841 7.78186L17.2356 8.01841L17.3206 7.99877C17.3029 7.9165 17.2963 7.86601 17.3029 7.84731L17.3347 7.82113C17.3571 7.81552 17.4188 7.81739 17.5216 7.83235L17.6563 7.84731L17.7825 8.3737L17.5777 8.51675L17.5001 8.55789L17.4665 8.55041C17.459 8.54199 17.4422 8.49431 17.4179 8.41484L17.3337 8.4354L17.4253 8.79163L17.4889 9.07867L17.5721 9.0581L17.5674 9.01322L17.5609 8.94964L17.5674 8.9272L17.5908 8.90102L17.674 8.83838L17.7993 8.74021L18.7557 8.02776L18.723 7.88003L18.4677 7.84637L17.746 7.73511ZM17.8862 8.29422C17.8694 8.23439 17.8516 8.16333 17.832 8.08666C17.8133 8.00438 17.7956 7.93239 17.7843 7.86694L18.3612 7.95015L17.8872 8.29422H17.8862Z" fill="#C10230"/>
<path d="M18.4378 11.0027C18.2191 11.0027 18.0452 11.1813 18.0452 11.3972C18.0452 11.6132 18.2191 11.7909 18.4378 11.7909C18.6566 11.7909 18.8314 11.6142 18.8314 11.3972C18.8314 11.1803 18.6575 11.0027 18.4378 11.0027Z" fill="#C10230"/>
<path d="M18.6313 12.6792L18.6136 12.6913L18.5921 12.6932C18.5771 12.6904 18.5369 12.6792 18.4724 12.6567C18.4621 12.6539 18.4247 12.639 18.3602 12.6147L18.0994 12.509L17.889 12.4221L17.7956 12.3809L17.7339 12.3351C17.7273 12.3164 17.7339 12.2837 17.7554 12.2304L17.7591 12.222L17.6955 12.1958L17.6123 12.4202C17.6039 12.4389 17.5861 12.481 17.5562 12.5436L17.6404 12.6259C17.6619 12.6483 17.7198 12.71 17.8133 12.8129L17.9807 12.9933C18.0246 13.042 18.0854 13.1083 18.163 13.2L17.5777 13.2402L17.445 13.2458L17.2711 13.2533C17.2543 13.3056 17.2346 13.3589 17.2141 13.4094C17.2 13.4487 17.1682 13.516 17.1252 13.6198L17.1879 13.645L17.2346 13.5609L17.2524 13.5384L17.2711 13.5366C17.2889 13.5366 17.3356 13.5524 17.4151 13.5824C17.4917 13.6123 17.5824 13.6487 17.6824 13.688C17.7946 13.732 17.875 13.7656 17.9208 13.7862C18.0153 13.8264 18.0751 13.8554 18.1031 13.8694L18.1284 13.89L18.1321 13.9068C18.1321 13.9199 18.1237 13.9573 18.105 14.0134L18.1686 14.0386C18.1826 13.9909 18.205 13.9311 18.2368 13.8554C18.2593 13.7974 18.2845 13.7413 18.3097 13.6852L18.2471 13.659C18.2237 13.7095 18.2088 13.7404 18.2013 13.7479L18.1798 13.7647H18.1517C18.1396 13.7619 18.091 13.7441 18.0068 13.7114C17.9218 13.6815 17.8488 13.6525 17.7881 13.6263L17.4207 13.4805L17.8993 13.4449C17.9723 13.4393 18.0835 13.4337 18.2321 13.4262C18.3172 13.4216 18.3855 13.4187 18.4341 13.4187L18.4537 13.3664L18.349 13.2589C18.2789 13.1831 18.2237 13.1242 18.1873 13.085L18.048 12.9326L17.7675 12.6193L18.3097 12.8372C18.4135 12.8774 18.4743 12.9045 18.493 12.9176L18.5201 12.9494C18.522 12.9606 18.5107 12.9971 18.4883 13.0597L18.5528 13.084L18.6426 12.8503L18.7407 12.6165L18.6781 12.5904C18.6519 12.6437 18.6379 12.6736 18.6342 12.6801L18.6313 12.6792Z" fill="#C10230"/>
<path d="M17.7189 14.1965L17.5964 14.1049L17.4347 14.0067C17.3851 13.9759 17.3197 13.9329 17.2412 13.8777C17.1608 13.8235 17.1159 13.7917 17.1075 13.7805L17.0953 13.7552L17.1365 13.6683L17.0785 13.6309L16.9869 13.787L16.9757 13.8057C16.9654 13.8225 16.9355 13.8702 16.8784 13.9516L16.9364 13.9871C16.9691 13.9366 16.9962 13.9048 17.0131 13.8973L17.0383 13.8908C17.0523 13.8936 17.0897 13.9123 17.1496 13.9469C17.1757 13.9628 17.2496 14.0086 17.3721 14.0853L17.5123 14.1722C17.6095 14.233 17.6712 14.2825 17.6974 14.3209C17.7226 14.3583 17.7329 14.4022 17.7329 14.4527C17.7301 14.5051 17.7086 14.563 17.6675 14.6266C17.632 14.6846 17.5974 14.7229 17.559 14.7491L17.444 14.7912L17.3188 14.7575C17.2991 14.7472 17.2449 14.7154 17.1608 14.6631L17.0804 14.6135L16.9214 14.5153C16.8223 14.4536 16.7616 14.4116 16.7373 14.3873L16.7223 14.3583C16.7214 14.3396 16.7373 14.305 16.7681 14.2545L16.7111 14.2199L16.6952 14.2461L16.6391 14.3396L16.5821 14.4349L16.4381 14.6575L16.4961 14.6921L16.5606 14.607L16.5896 14.6032L16.6391 14.6201C16.6924 14.65 16.7513 14.6846 16.8167 14.7238L16.9906 14.8342L17.1234 14.9193C17.1954 14.9623 17.2402 14.9912 17.2589 14.9978L17.358 15.024L17.4758 15.009L17.5983 14.9351C17.6553 14.8856 17.7058 14.8258 17.7498 14.7566C17.789 14.6986 17.8133 14.6406 17.8292 14.5864C17.8442 14.5331 17.8507 14.4836 17.8451 14.4321C17.8414 14.3854 17.8292 14.3405 17.8077 14.304L17.7189 14.1965Z" fill="#C10230"/>
<path d="M17.1822 15.4073L17.1607 15.4213L17.1392 15.4185L17.0485 15.3587L16.9298 15.2708L16.6689 15.0698C16.6605 15.0651 16.6063 15.0193 16.5016 14.9361L16.439 14.8856L16.4034 14.8463L16.3997 14.8323L16.4053 14.808L16.4595 14.7285L16.4025 14.6846C16.352 14.7566 16.2959 14.8332 16.2352 14.909C16.1819 14.981 16.1323 15.0399 16.0884 15.0941L16.1435 15.1371L16.2127 15.0604L16.2324 15.0511L16.251 15.0548C16.2651 15.0614 16.3015 15.0847 16.3576 15.1249C16.3819 15.1427 16.439 15.1857 16.524 15.2502L16.7933 15.4587C16.8354 15.4924 16.884 15.5298 16.9316 15.5737L16.9887 15.6252L16.9962 15.6401L16.9877 15.6644L16.9316 15.743L16.9896 15.7878C17.0279 15.7308 17.0728 15.6691 17.128 15.599C17.1897 15.5195 17.2476 15.4456 17.3037 15.3774L17.2476 15.3353L17.1831 15.4082L17.1822 15.4073Z" fill="#C10230"/>
<path d="M15.9267 16.7546L15.9014 16.763L15.8818 16.7546L15.8061 16.6798L15.707 16.5648L15.4948 16.3161C15.4882 16.3105 15.4424 16.2535 15.3573 16.1506L15.3078 16.0889L15.2788 16.0422V16.0272L15.2891 16.0057L15.3592 15.9374L15.3125 15.8813C15.2479 15.9421 15.1769 16.0057 15.1021 16.0674C15.0357 16.1235 14.9731 16.174 14.9198 16.2161L14.9665 16.2712L15.0488 16.2086L15.0713 16.2058L15.0853 16.2123C15.1002 16.2226 15.1301 16.2525 15.1778 16.304C15.1984 16.3283 15.2433 16.3806 15.3134 16.461L15.534 16.721C15.5695 16.7649 15.606 16.8126 15.6453 16.8631L15.6892 16.9276L15.693 16.9416L15.6799 16.964L15.6088 17.0295L15.6546 17.0865C15.7051 17.0388 15.7631 16.9874 15.8294 16.9295C15.9061 16.8631 15.9781 16.8051 16.0491 16.7509L16.0043 16.6966L15.9257 16.7546H15.9267Z" fill="#C10230"/>
<path d="M7.07519 17.3803C6.99199 17.3457 6.92 17.3176 6.85736 17.2905L6.83118 17.3578C6.88634 17.3822 6.91626 17.3952 6.92467 17.3999L6.94057 17.4167V17.4354C6.94057 17.4523 6.92748 17.4953 6.90504 17.5598C6.89476 17.5888 6.87045 17.6542 6.83212 17.7552L6.71152 18.0712C6.69189 18.1236 6.66945 18.1797 6.64047 18.2386L6.60868 18.3096L6.59559 18.3162H6.57316C6.56194 18.3162 6.53296 18.3068 6.47873 18.29L6.45349 18.3545C6.51893 18.3779 6.59185 18.4031 6.67412 18.434C6.76761 18.4686 6.85736 18.5041 6.93683 18.5406L6.96207 18.4723C6.91345 18.4518 6.88354 18.4377 6.87325 18.4331L6.85362 18.4153L6.84988 18.3957C6.85082 18.3779 6.8611 18.3424 6.88167 18.29L6.93122 18.1507L7.04714 17.844C7.05182 17.8337 7.07799 17.7692 7.12661 17.6449L7.15839 17.5701L7.18457 17.5215L7.19673 17.5131H7.22103C7.23038 17.5131 7.2631 17.5224 7.31452 17.5411L7.33976 17.4747C7.25469 17.4467 7.16868 17.4139 7.07519 17.3812V17.3803Z" fill="#C10230"/>
<path d="M5.46346 16.5256C5.3896 16.4779 5.32603 16.4331 5.27087 16.3938L5.23161 16.4527C5.28022 16.4864 5.30734 16.5079 5.31388 16.5153L5.32603 16.5322L5.32229 16.5518C5.31668 16.5686 5.29612 16.6051 5.26246 16.664C5.2447 16.693 5.20917 16.7519 5.15121 16.8407L4.96704 17.1259C4.93525 17.1717 4.90066 17.2212 4.86233 17.2745L4.81652 17.3344L4.8025 17.3419L4.77725 17.3344C4.76978 17.3344 4.74079 17.3166 4.69312 17.2895L4.65479 17.3493C4.71368 17.3849 4.78006 17.4232 4.85298 17.4737C4.93712 17.527 5.01659 17.5803 5.08764 17.6317L5.1269 17.5719L5.04744 17.513L5.03341 17.4915V17.4718L5.08577 17.3755L5.16523 17.2484L5.34286 16.9744C5.34754 16.9651 5.38774 16.9062 5.46159 16.7968L5.50834 16.7313L5.54386 16.6902L5.55788 16.6818L5.58126 16.6864L5.66727 16.7341L5.70747 16.6743C5.62987 16.6294 5.55041 16.5799 5.46627 16.5256H5.46346Z" fill="#C10230"/>
<path d="M16.5746 16.117L16.5344 16.1133C16.5139 16.1002 16.4624 16.0544 16.3783 15.9721L16.0277 15.6336C15.9342 15.542 15.8819 15.4915 15.8697 15.4775L15.9501 15.3915L16.0661 15.2821L16.0885 15.269L16.1212 15.283L16.2156 15.3597L16.2643 15.3111C16.182 15.2297 16.1399 15.1904 16.1362 15.1848L16.081 15.1194H16.0698L16.0202 15.1792C15.9894 15.211 15.9258 15.2783 15.8305 15.3756L15.6005 15.6121C15.5089 15.7056 15.4453 15.7701 15.4116 15.8019L15.3518 15.8571V15.8683L15.4126 15.916C15.4238 15.9235 15.4687 15.9674 15.55 16.0431L15.5986 15.9955L15.5145 15.8973L15.5014 15.8711L15.5182 15.8459L15.6211 15.729L15.7024 15.6439C15.7164 15.6533 15.7697 15.7065 15.8651 15.7972L16.2138 16.1376C16.2979 16.2189 16.3465 16.2713 16.3577 16.2909L16.3643 16.3311L16.2932 16.4227L16.339 16.4695C16.4064 16.3938 16.4671 16.3292 16.5204 16.2731C16.57 16.2227 16.6345 16.1628 16.7102 16.0899L16.6625 16.0431L16.5718 16.117H16.5746Z" fill="#C10230"/>
<path d="M8.24752 17.8505L8.27276 17.8645V17.9019L8.24939 18.0188L8.31203 18.0403C8.34475 17.93 8.36251 17.8729 8.36438 17.8682L8.39804 17.7888L8.39149 17.7794L8.31764 17.7645C8.27183 17.7523 8.18395 17.7271 8.05213 17.6906L7.73707 17.5971C7.60993 17.5597 7.52392 17.5345 7.47904 17.5195L7.40238 17.4915L7.39303 17.4971L7.37995 17.5737C7.37527 17.5868 7.35938 17.6467 7.33133 17.7551L7.39584 17.7729L7.44352 17.6551L7.46128 17.6317H7.494C7.53607 17.6439 7.58749 17.6532 7.64265 17.671L7.7539 17.7028C7.75016 17.7196 7.73146 17.7906 7.69313 17.9169L7.55664 18.3853C7.52579 18.4975 7.50335 18.5648 7.4912 18.5854L7.45754 18.6106C7.44632 18.6125 7.40706 18.6059 7.34255 18.59L7.32385 18.6536C7.42295 18.6779 7.50803 18.6994 7.58188 18.72C7.65293 18.7396 7.73614 18.7677 7.83523 18.8032L7.853 18.7378C7.79223 18.7181 7.75577 18.7032 7.74549 18.6938L7.73053 18.6564C7.73146 18.6303 7.74736 18.5639 7.78008 18.4517L7.91751 17.9833C7.95303 17.8589 7.97453 17.786 7.98201 17.7691L8.09233 17.8028C8.1531 17.8215 8.20358 17.8365 8.24565 17.8514L8.24752 17.8505Z" fill="#C10230"/>
<path d="M4.4257 16.7434L4.73421 16.3657C4.81461 16.2656 4.86136 16.2077 4.87538 16.1936L4.96513 16.2666C5.01374 16.3058 5.05394 16.3414 5.08479 16.3722L5.10162 16.3937L5.0876 16.4274L5.01935 16.5293L5.07358 16.5714C5.14556 16.4835 5.18202 16.4358 5.1867 16.4339L5.24933 16.3731L5.24653 16.3629L5.18483 16.3199C5.14837 16.2909 5.07732 16.232 4.97074 16.1506L4.71645 15.9421C4.61174 15.8589 4.54256 15.8 4.50891 15.771L4.44907 15.7168H4.43785L4.39578 15.7822C4.38737 15.7925 4.34717 15.844 4.27986 15.9318L4.33315 15.9739L4.4229 15.8842L4.44814 15.8655L4.47525 15.8804L4.59959 15.9739L4.69027 16.0459C4.68186 16.0599 4.63511 16.1188 4.55098 16.2217L4.24527 16.5994C4.17141 16.692 4.12467 16.7453 4.10503 16.7574L4.06577 16.7696C4.05175 16.7658 4.01903 16.7453 3.96761 16.7051L3.92554 16.7574C4.00687 16.8163 4.07699 16.8687 4.13589 16.9192C4.19198 16.9659 4.26023 17.022 4.33969 17.0903L4.38083 17.0417C4.33128 16.9977 4.30323 16.9697 4.29949 16.9575V16.9164C4.30977 16.8949 4.35091 16.8388 4.4257 16.7471V16.7434Z" fill="#C10230"/>
<path d="M14.9226 16.7267L14.8964 16.5799C14.873 16.4631 14.8674 16.3939 14.8721 16.378L14.9394 16.3116L14.9002 16.2527L14.7562 16.3518L14.5814 16.4631L14.6197 16.5201L14.6973 16.4771L14.7244 16.4668H14.7394L14.7543 16.4836L14.7646 16.4986C14.7702 16.5201 14.7814 16.565 14.7992 16.6323C14.8207 16.7314 14.8328 16.7828 14.8338 16.7959L14.9282 17.2681L14.4813 16.9623L14.4682 16.9511L14.3972 16.9025C14.3196 16.8492 14.2757 16.8155 14.2672 16.8015L14.2616 16.78L14.2766 16.7585L14.3551 16.6977L14.3159 16.6398L14.0747 16.8024C14.0513 16.8193 13.984 16.8604 13.8737 16.9287L13.912 16.9885L14.0055 16.9436L14.084 16.9773C14.1242 17.0007 14.2411 17.0783 14.4346 17.2092L14.6823 17.3775C14.774 17.441 14.8712 17.5065 14.9703 17.5766L15.0741 17.5093C15.0497 17.4139 15.017 17.2456 14.9731 17.0091L14.9217 16.7295L14.9226 16.7267Z" fill="#C10230"/>
<path d="M6.69747 17.3111C6.70775 17.3111 6.73954 17.3176 6.78628 17.3372L6.819 17.2746L6.65914 17.1989L6.47777 17.0998L6.44598 17.1615L6.52264 17.2082L6.54976 17.2251L6.5535 17.24L6.54976 17.2596L6.53854 17.2774C6.52264 17.2942 6.48992 17.327 6.4385 17.3737C6.36652 17.4392 6.32725 17.4747 6.31603 17.4822L5.95236 17.8001L5.99911 17.2587V17.2438C6.00191 17.2381 6.00378 17.2092 6.00752 17.1559C6.01594 17.0624 6.02342 17.0081 6.03276 16.9941L6.04679 16.9792H6.0739L6.16552 17.0166L6.1973 16.953L5.9346 16.8277C5.90936 16.8137 5.84111 16.7763 5.72519 16.7136L5.69434 16.7763L5.77661 16.8342C5.78315 16.8455 5.78782 16.8726 5.78782 16.9203C5.78502 16.967 5.77754 17.1063 5.75978 17.341L5.73641 17.6402C5.72706 17.7477 5.71864 17.8636 5.70649 17.9861L5.81774 18.0413C5.88786 17.9749 6.01594 17.8627 6.20104 17.7075L6.41887 17.5233L6.53106 17.4307C6.62361 17.3513 6.67877 17.3101 6.69747 17.3073V17.3111Z" fill="#C10230"/>
<path d="M14.4169 17.8291L14.3832 17.8253C14.372 17.8197 14.3355 17.8029 14.2748 17.7711C14.271 17.7692 14.2421 17.7543 14.1897 17.7243L13.9924 17.6093L13.9765 17.6009L13.9298 17.571L13.8541 17.5242C13.9167 17.4597 13.9532 17.3924 13.9672 17.3288C13.9784 17.2615 13.9709 17.1998 13.942 17.14C13.9167 17.0904 13.8831 17.0577 13.8391 17.0334L13.7092 17.0156C13.6634 17.0212 13.6045 17.0455 13.5287 17.082C13.4895 17.1016 13.4399 17.1269 13.381 17.1615C13.3464 17.1811 13.3025 17.2036 13.252 17.2288C13.1912 17.2568 13.1473 17.2812 13.1127 17.2971C13.0463 17.326 13.0071 17.3466 12.9958 17.3522L13.0239 17.4111C13.0884 17.3849 13.1249 17.3709 13.1408 17.3709L13.1566 17.3784C13.1669 17.3905 13.1884 17.4233 13.2193 17.485L13.2978 17.6383L13.4334 17.9057L13.5306 18.1217L13.5671 18.2115L13.5708 18.2358L13.5605 18.2479C13.553 18.2563 13.5213 18.276 13.468 18.305L13.4998 18.3704C13.5615 18.3349 13.6316 18.2965 13.7064 18.2601C13.7924 18.218 13.8774 18.1769 13.9616 18.1385L13.9307 18.0749C13.8821 18.0965 13.8531 18.1105 13.8438 18.1133H13.8176L13.8027 18.1095L13.769 18.0591C13.7625 18.0469 13.7297 17.9899 13.6811 17.8908C13.6391 17.8122 13.5989 17.7346 13.5633 17.6598C13.5409 17.6149 13.496 17.5214 13.4324 17.3831C13.4016 17.3204 13.3838 17.2793 13.3754 17.2634L13.4437 17.2223C13.496 17.1942 13.5334 17.1811 13.5577 17.1783L13.6662 17.2007L13.755 17.2971L13.783 17.4326L13.7456 17.5439C13.7232 17.5729 13.6821 17.6009 13.6232 17.6271L13.626 17.6533L13.6951 17.6804C13.7503 17.7066 13.8148 17.7468 13.8961 17.7973L14.1785 17.9777L14.2187 18.0086L14.3318 17.9506C14.3636 17.9319 14.4197 17.9085 14.4954 17.8721L14.4655 17.8104L14.4169 17.8272V17.8291Z" fill="#C10230"/>
<path d="M2.29325 14.4828C2.29325 14.4828 2.31008 14.451 2.33812 14.3967L2.44751 14.1967L2.45498 14.1808L2.4821 14.1312L2.52604 14.0564C2.59522 14.1163 2.66159 14.1499 2.72984 14.1621C2.79341 14.1714 2.85699 14.1621 2.91495 14.1312C2.96263 14.106 2.99722 14.0714 3.01872 14.0246L3.03274 13.8947C3.02339 13.8517 2.99909 13.7918 2.95889 13.718C2.93925 13.6787 2.91214 13.6301 2.87849 13.5712C2.85699 13.5375 2.83455 13.4945 2.8065 13.444C2.77565 13.3851 2.75134 13.3402 2.73452 13.3066C2.70179 13.2402 2.68216 13.2009 2.67562 13.1897L2.61672 13.2224C2.6457 13.2823 2.65879 13.3197 2.66066 13.3365L2.65225 13.3524C2.64477 13.3627 2.60831 13.387 2.55034 13.4188L2.40076 13.5029L2.13338 13.6469L1.92116 13.7516L1.83329 13.7881L1.80991 13.7937L1.79496 13.7843C1.78561 13.7759 1.76504 13.746 1.73606 13.6908L1.67249 13.7254C1.70801 13.7871 1.74728 13.8563 1.78654 13.9302C1.83142 14.0134 1.87536 14.0966 1.91462 14.1798L1.97913 14.1471L1.93986 14.062L1.93519 14.0387L1.9408 14.0228L1.98941 13.9872C2.0025 13.9797 2.05766 13.948 2.15395 13.8937C2.23342 13.846 2.30914 13.8058 2.38206 13.7703C2.42694 13.7441 2.51762 13.6974 2.65598 13.6273C2.71675 13.5983 2.75508 13.5805 2.77472 13.5702L2.81492 13.6357C2.84296 13.6871 2.85699 13.7254 2.86259 13.7488L2.84296 13.8591L2.75041 13.9508L2.61578 13.9826L2.5036 13.948C2.47275 13.9255 2.44377 13.8844 2.41478 13.8283L2.38861 13.832L2.3643 13.9031C2.34093 13.9564 2.3026 14.0246 2.25211 14.106L2.08197 14.3939L2.05018 14.4323L2.11375 14.5445C2.13151 14.5791 2.15956 14.6324 2.19602 14.7072L2.25492 14.6754L2.23809 14.6267L2.2437 14.595C2.24744 14.5837 2.26427 14.5435 2.29325 14.4837V14.4828Z" fill="#C10230"/>
<path d="M13.1417 18.1891C13.1529 18.2611 13.1594 18.3116 13.1585 18.3396L13.1529 18.3546L13.0716 18.4013C13.0257 18.42 12.9762 18.4368 12.9192 18.4565C12.8621 18.4752 12.8107 18.4901 12.7687 18.5023L12.735 18.406L12.6275 18.0797C12.6593 18.0657 12.6985 18.0516 12.749 18.0348C12.8051 18.018 12.8528 18.0068 12.8893 17.9993L12.9304 18.0086C12.9425 18.018 12.9594 18.0544 12.9771 18.1152L13.0426 18.0928L12.9846 17.9263L12.9323 17.7543L12.8696 17.7739C12.8846 17.8226 12.8902 17.8525 12.8902 17.8768L12.8864 17.8955L12.8378 17.9179C12.7658 17.9432 12.7238 17.9591 12.7107 17.9628L12.5994 17.9965L12.548 17.8366C12.5172 17.7468 12.4966 17.673 12.4854 17.6103C12.5331 17.5935 12.5779 17.5748 12.6256 17.5589C12.6714 17.5421 12.7238 17.529 12.7771 17.5196L12.8425 17.5131L12.8575 17.5234C12.8659 17.5365 12.8808 17.5739 12.9014 17.6337L12.9622 17.6122C12.9463 17.543 12.9341 17.5093 12.9323 17.4981L12.9117 17.3841L12.9033 17.3738L12.8762 17.3775C12.8191 17.3943 12.7789 17.4065 12.7602 17.4121L12.605 17.4682C12.519 17.4991 12.4405 17.5243 12.3704 17.5486L12.2685 17.5813L12.089 17.6346L12.1096 17.701C12.1713 17.6861 12.2115 17.6767 12.2264 17.6805L12.2414 17.6879C12.2507 17.6982 12.2666 17.7328 12.2872 17.7917C12.318 17.8759 12.3367 17.9292 12.3405 17.9404L12.4517 18.2891C12.4657 18.3284 12.4844 18.3929 12.5088 18.4836C12.5228 18.5322 12.5321 18.5687 12.5368 18.5911L12.4751 18.6612L12.4901 18.7033C12.6481 18.65 12.7341 18.6182 12.7453 18.6145C12.793 18.5995 12.878 18.5733 12.9996 18.5331L13.1258 18.4967C13.1865 18.4752 13.2324 18.4574 13.2651 18.4434L13.2707 18.4294C13.2501 18.3639 13.2286 18.2779 13.2071 18.1741L13.1417 18.1928V18.1891Z" fill="#C10230"/>
<path d="M2.98044 15.3233C2.91406 15.3579 2.86732 15.3785 2.84021 15.3869H2.82151L2.757 15.3214L2.6579 15.1933C2.62425 15.1447 2.59527 15.1008 2.5719 15.0643L2.65136 15.0026L2.93089 14.8035L3.01129 14.9063L3.08702 15.0288L3.09076 15.0699C3.08421 15.0849 3.05523 15.1111 3.00288 15.1466L3.04495 15.2027L3.18798 15.098L3.3357 14.9961L3.2955 14.9418L3.20481 14.9933H3.18425L3.14965 14.9559C3.10384 14.8951 3.0758 14.8577 3.07019 14.8474L3.00568 14.7502L3.14031 14.6529C3.21884 14.5987 3.28334 14.5576 3.33757 14.5267L3.42825 14.6454C3.4591 14.6885 3.48621 14.7324 3.51239 14.7801L3.54044 14.839L3.53202 14.8577C3.52361 14.8689 3.49276 14.8951 3.44134 14.9306L3.4778 14.9839C3.53763 14.9474 3.57035 14.9259 3.57877 14.9222L3.6816 14.8652L3.68721 14.8549L3.67599 14.8315C3.64327 14.782 3.62177 14.7492 3.60962 14.7324L3.51052 14.5996C3.45536 14.5276 3.40768 14.4603 3.36374 14.3995L3.30298 14.3117L3.1964 14.1555L3.14031 14.1957C3.17396 14.249 3.19359 14.2836 3.1964 14.2986L3.19359 14.3154C3.18518 14.3285 3.159 14.3537 3.10852 14.393C3.03466 14.4463 2.99259 14.479 2.98044 14.4846L2.68221 14.6978C2.64669 14.7202 2.58966 14.7595 2.513 14.8109L2.41764 14.868L2.33256 14.8306L2.29797 14.8567C2.39707 14.9904 2.45036 15.0643 2.45971 15.0737C2.48869 15.1139 2.53824 15.1849 2.6121 15.2915L2.68595 15.4C2.72335 15.4523 2.75326 15.4916 2.7757 15.5178L2.79066 15.5196C2.84582 15.4794 2.92154 15.4327 3.0169 15.3794L2.97951 15.3242L2.98044 15.3233Z" fill="#C10230"/>
<path d="M12.1161 18.303L12.0647 18.231L11.9889 18.1889L11.8758 18.1702C11.8599 18.1702 11.8216 18.1702 11.7655 18.1702C11.7094 18.1702 11.6645 18.173 11.6318 18.1702L11.5318 18.1543L11.4738 18.1122L11.4401 18.029C11.4299 17.9804 11.443 17.9336 11.4747 17.8897C11.5075 17.8448 11.5589 17.8158 11.6327 17.8028C11.6813 17.7925 11.729 17.7925 11.7739 17.8028L11.8721 17.8495C11.8833 17.8719 11.8936 17.9168 11.9085 17.9785L11.973 17.9654C11.9637 17.9112 11.9599 17.8663 11.9553 17.8327L11.9515 17.727L11.9412 17.7102C11.901 17.698 11.8515 17.6934 11.7954 17.6934C11.7393 17.6934 11.6851 17.698 11.6281 17.7083C11.5738 17.7205 11.5224 17.7354 11.4738 17.7569C11.4243 17.7803 11.3822 17.8084 11.3467 17.8448C11.3111 17.8804 11.2859 17.9262 11.2709 17.9804C11.2541 18.0337 11.2532 18.0935 11.2625 18.1524L11.3083 18.2656L11.3906 18.3488C11.4214 18.3712 11.4626 18.3834 11.5121 18.389C11.5449 18.3908 11.6103 18.3937 11.7103 18.3965C11.7814 18.3974 11.83 18.403 11.859 18.4133L11.931 18.4591L11.9646 18.5423L11.9581 18.6536L11.888 18.7433C11.8515 18.7695 11.8066 18.7873 11.7571 18.7976C11.7 18.8078 11.6421 18.8078 11.5897 18.7901C11.5355 18.7751 11.4962 18.7527 11.4682 18.7228C11.4504 18.6676 11.4373 18.6209 11.4317 18.5825L11.3672 18.5947C11.3878 18.719 11.3981 18.8125 11.3934 18.878C11.4607 18.8948 11.5215 18.906 11.5748 18.9088C11.6271 18.9107 11.687 18.906 11.7533 18.8939C11.8412 18.8761 11.916 18.8471 11.9758 18.8107L12.0787 18.7143L12.146 18.5928C12.1647 18.5348 12.1675 18.4731 12.1535 18.403L12.117 18.303H12.1161Z" fill="#C10230"/>
<path d="M10.2538 18.4768L10.1921 18.4217L10.0836 18.3796C10.0677 18.374 10.0313 18.3703 9.97611 18.36C9.92188 18.3488 9.87607 18.3394 9.84522 18.3319L9.75173 18.2945L9.70406 18.2412L9.68723 18.1524C9.68723 18.1019 9.7078 18.0598 9.7508 18.0234C9.791 17.9879 9.84709 17.9692 9.92188 17.9701C9.9733 17.972 10.02 17.9804 10.0593 17.9991L10.1472 18.0636C10.1509 18.0907 10.1528 18.1346 10.1537 18.1964L10.221 18.2001C10.2239 18.1449 10.2267 18.101 10.2304 18.0645L10.2491 17.9626L10.2425 17.943C10.2042 17.9224 10.1575 17.9056 10.1042 17.8944C10.05 17.885 9.99387 17.8803 9.93684 17.8794C9.88075 17.8794 9.82559 17.8813 9.77324 17.8944C9.72182 17.9046 9.67507 17.928 9.63207 17.9533C9.59187 17.9813 9.55541 18.0187 9.53017 18.0711C9.50306 18.1234 9.4909 18.1777 9.48903 18.2384L9.50866 18.36L9.5713 18.4563C9.59841 18.4853 9.63581 18.5068 9.68349 18.5189C9.71527 18.5283 9.77698 18.5442 9.87607 18.5685C9.94526 18.5834 9.992 18.5975 10.0191 18.6133L10.078 18.6723L10.0939 18.7629L10.0668 18.8705L9.97985 18.9443C9.93778 18.963 9.89197 18.9705 9.84055 18.9696C9.78072 18.9696 9.72649 18.9546 9.67694 18.9275C9.62646 18.9032 9.59374 18.8733 9.57317 18.8377C9.56756 18.7826 9.56382 18.7321 9.56476 18.691H9.49745C9.49558 18.8181 9.48529 18.9107 9.46753 18.9724C9.52923 19.0032 9.58626 19.0285 9.63768 19.0388C9.6891 19.0519 9.74986 19.0603 9.81531 19.0603C9.90599 19.0603 9.98546 19.05 10.049 19.0229L10.1696 18.9499L10.2622 18.8443C10.2921 18.7919 10.3061 18.7321 10.3071 18.661L10.294 18.5554L10.2538 18.474V18.4768Z" fill="#C10230"/>
<path d="M9.18338 18.9342L9.16842 18.923L9.15627 18.8987L9.13757 18.8202L9.10578 18.7024L8.88795 17.8057L8.77296 17.7852L8.67386 17.9563L8.37751 18.4368C8.32235 18.5285 8.28308 18.5902 8.26438 18.621C8.22232 18.6855 8.19707 18.7229 8.19053 18.7342L8.16716 18.7557L8.14285 18.7631L8.06525 18.7566L8.0531 18.8248L8.24008 18.8492L8.42425 18.8866L8.43453 18.8202C8.3719 18.809 8.3345 18.7968 8.32235 18.7884L8.31393 18.7566C8.31861 18.7388 8.33731 18.693 8.37657 18.6266L8.42799 18.5341L8.84121 18.6014L8.88141 18.7903L8.88702 18.8594L8.87019 18.8809C8.86178 18.8828 8.82345 18.8809 8.75987 18.8735L8.74866 18.9408L9.03099 18.9829L9.25256 19.0249L9.26471 18.9567L9.22919 18.9464L9.18244 18.9333L9.18338 18.9342ZM8.65049 18.4798C8.58692 18.4696 8.53083 18.4602 8.48034 18.4509L8.71406 18.0628L8.8169 18.507C8.76735 18.4985 8.71219 18.492 8.65143 18.4798H8.65049Z" fill="#C10230"/>
<path d="M3.74706 16.3509L3.79661 16.2387L4.17898 15.3981L4.10045 15.314L3.91534 15.3841L3.38526 15.5804C3.28523 15.6188 3.21792 15.6431 3.18426 15.6543C3.11041 15.6805 3.0674 15.6954 3.05618 15.6973L3.02533 15.701L3.00196 15.6917L2.94306 15.6393L2.89258 15.6851L3.0244 15.8217L3.14593 15.9638L3.19548 15.917C3.15341 15.8693 3.13191 15.8357 3.12817 15.8226L3.14032 15.7936C3.15341 15.7815 3.19735 15.759 3.27121 15.731L3.3675 15.6917L3.64797 15.9993L3.56476 16.1713L3.52737 16.2284L3.50212 16.2377C3.49184 16.233 3.46566 16.2078 3.41705 16.1639L3.3675 16.2078L3.56476 16.4163L3.71247 16.5827L3.76202 16.5406L3.74145 16.5107L3.71247 16.4705L3.70967 16.4518L3.71434 16.4266L3.74706 16.3518V16.3509ZM3.6891 15.9049C3.65638 15.8712 3.61618 15.8319 3.57504 15.7824L3.46005 15.6534L3.88169 15.4953L3.68817 15.9049H3.6891Z" fill="#C10230"/>
<path d="M1.74734 13.4664C1.69872 13.4252 1.65759 13.385 1.62767 13.343C1.59775 13.3018 1.57345 13.2551 1.55288 13.2055C1.52203 13.126 1.50614 13.055 1.50707 12.9895C1.51081 12.9437 1.52203 12.8914 1.54727 12.8343C1.56971 12.781 1.60804 12.7287 1.65759 12.6801C1.70807 12.6324 1.77445 12.594 1.85672 12.5585C1.98947 12.5033 2.10633 12.5005 2.2101 12.5389C2.31575 12.581 2.3896 12.6576 2.43822 12.7792C2.46346 12.8437 2.47655 12.9016 2.47468 12.9493C2.47468 12.9989 2.46346 13.0466 2.44196 13.0952C2.41017 13.1139 2.36716 13.1335 2.31294 13.1569L2.33538 13.2149C2.38493 13.199 2.43915 13.1831 2.49992 13.1662L2.59715 13.1494L2.60556 13.1401C2.60369 13.0597 2.59434 12.9895 2.58312 12.9325C2.57097 12.8736 2.55134 12.8119 2.52516 12.7427C2.44476 12.5436 2.33351 12.4127 2.19047 12.3444C2.0465 12.2762 1.89598 12.2752 1.73705 12.336C1.64543 12.3753 1.56503 12.4257 1.50146 12.4968C1.45846 12.5417 1.42574 12.5959 1.39769 12.6576C1.37151 12.7221 1.35562 12.7904 1.35562 12.8652C1.35468 12.9596 1.37712 13.0634 1.41732 13.1681C1.44817 13.2429 1.48089 13.3046 1.51268 13.3476C1.54447 13.3944 1.59028 13.4402 1.64824 13.4897L1.73892 13.4954L1.74827 13.4673L1.74734 13.4664Z" fill="#C10230"/>
<path d="M1.60237 11.7348C1.81833 11.7348 1.99596 11.5599 1.99596 11.3421C1.99596 11.1242 1.81926 10.9475 1.60237 10.9475C1.38548 10.9475 1.20972 11.1242 1.20972 11.3421C1.20972 11.5599 1.38454 11.7348 1.60237 11.7348Z" fill="#C10230"/>
<path d="M1.58746 7.13382L1.6127 7.09922L1.63514 7.09268C1.64823 7.08987 1.6903 7.10203 1.75948 7.1226C1.83053 7.14597 1.90532 7.17215 1.9904 7.20113L2.76915 7.47601C2.78505 7.48069 2.86077 7.50967 2.99914 7.5639C3.06925 7.59008 3.11319 7.61065 3.13282 7.62281L3.17116 7.67236L3.16555 7.735L3.13002 7.79297L3.04588 7.85374L3.04869 7.88086C3.12535 7.90797 3.18518 7.92948 3.23005 7.95005L3.27119 7.87525C3.28521 7.83972 3.29082 7.79858 3.28615 7.74809C3.28428 7.70041 3.27212 7.64805 3.25623 7.59289C3.23566 7.53585 3.21323 7.48443 3.18611 7.44049C3.14591 7.37691 3.0973 7.32174 3.04027 7.28061C2.98418 7.23853 2.90191 7.2002 2.79533 7.16093L2.36902 7.01507L2.01003 6.88698C1.91186 6.85145 1.83801 6.82247 1.78472 6.79909L1.73985 6.76637L1.73424 6.72149C1.73704 6.70747 1.74919 6.66633 1.77163 6.59995L1.68469 6.56909C1.66225 6.64856 1.63046 6.74206 1.59213 6.85052C1.54726 6.98141 1.49865 7.11138 1.4491 7.23479L1.53604 7.26658L1.58746 7.13194V7.13382Z" fill="#C10230"/>
<path d="M2.16432 6.36152C2.22415 6.4466 2.30642 6.5214 2.41487 6.59059C2.55416 6.68221 2.68879 6.73083 2.8178 6.73644C2.94495 6.74205 3.06461 6.714 3.17493 6.65042C3.28337 6.58685 3.38247 6.48774 3.46661 6.35123C3.54701 6.23156 3.59656 6.11188 3.619 5.98846C3.63396 5.90058 3.63115 5.81082 3.61245 5.71919C3.59282 5.62943 3.55823 5.54809 3.50494 5.4761C3.43389 5.37512 3.34414 5.29097 3.23289 5.21805C3.16745 5.17597 3.10201 5.14418 3.0403 5.12361C2.97767 5.10024 2.91503 5.08808 2.85239 5.08528C2.79069 5.08247 2.72151 5.08995 2.64578 5.11239C2.57006 5.1339 2.49994 5.17036 2.4345 5.21992C2.35036 5.2891 2.27183 5.37606 2.20171 5.48358C2.13253 5.5911 2.08298 5.70049 2.05587 5.81175C2.03437 5.89964 2.0325 5.99033 2.05026 6.08757C2.06709 6.18574 2.10542 6.2783 2.16432 6.36152ZM2.28866 5.57147C2.33727 5.4948 2.38962 5.44244 2.44385 5.41345C2.49901 5.38354 2.56164 5.36671 2.63082 5.3639C2.70094 5.3639 2.7748 5.37325 2.85613 5.3985C2.93653 5.42561 3.0188 5.46768 3.0992 5.51817C3.22074 5.59951 3.31142 5.67992 3.37499 5.76594C3.43763 5.85289 3.46661 5.93797 3.46661 6.02025C3.46381 6.10159 3.43857 6.18013 3.38995 6.25493C3.33853 6.3316 3.27683 6.39237 3.20111 6.42696C3.12444 6.46156 3.02909 6.46997 2.91597 6.4494C2.80191 6.43071 2.6757 6.37554 2.53827 6.28859C2.44291 6.22501 2.36438 6.15489 2.30362 6.07635C2.24191 5.99875 2.21013 5.91553 2.20826 5.83139C2.20826 5.74256 2.23443 5.65655 2.28866 5.5724V5.57147Z" fill="#C10230"/>
<path d="M4.71374 3.5884C4.78293 3.69873 4.86707 3.78755 4.96523 3.8502C5.02787 3.89227 5.10172 3.92125 5.18306 3.93902C5.2672 3.95865 5.35414 3.96052 5.44669 3.9493C5.57851 3.92873 5.7094 3.87918 5.84309 3.79223C5.92629 3.74174 6.00295 3.6819 6.074 3.61458C6.14599 3.54726 6.22452 3.45751 6.31053 3.34625L6.21424 3.21348C6.19647 3.18356 6.16843 3.13401 6.12636 3.06295L6.10579 3.00872L6.15534 2.93673L6.11794 2.87782L5.85243 3.04986L5.58412 3.21348L5.62806 3.2836C5.72436 3.23218 5.78419 3.20226 5.8085 3.19758H5.84309C5.85337 3.20413 5.87768 3.23685 5.91227 3.29389L5.96369 3.3771L6.01697 3.4706L5.92816 3.58092L5.82158 3.66507C5.68509 3.75015 5.53738 3.76979 5.37658 3.72678C5.21858 3.6819 5.08396 3.57157 4.97271 3.3958C4.87174 3.23218 4.83715 3.07978 4.868 2.93112C4.89979 2.78339 4.98954 2.66278 5.13912 2.56928C5.20269 2.52908 5.26346 2.50197 5.32422 2.48607C5.38406 2.46831 5.44109 2.45989 5.49624 2.46176L5.5729 2.47672L5.62339 2.53843L5.68135 2.61977L5.75147 2.57583C5.68135 2.43558 5.63554 2.33367 5.61591 2.27196L5.60002 2.26074C5.53738 2.26729 5.45511 2.29347 5.35695 2.32806C5.25972 2.36452 5.15875 2.41408 5.05778 2.47859C4.97458 2.52814 4.90446 2.58424 4.84463 2.64034C4.78293 2.69737 4.73431 2.76002 4.69131 2.83388C4.64924 2.904 4.62119 2.98348 4.60343 3.06482C4.5866 3.1499 4.58567 3.23311 4.60343 3.32007C4.61932 3.40702 4.65578 3.49678 4.71468 3.59027L4.71374 3.5884Z" fill="#C10230"/>
<path d="M3.33105 9.61995C3.33105 9.61995 3.50214 10.1071 3.619 10.496L3.38528 9.53394C3.36471 9.54516 3.34695 9.56853 3.33199 9.62089L3.33105 9.61995Z" fill="#C10230"/>
<path d="M16.7158 9.61991C16.7017 9.56755 16.683 9.54418 16.6634 9.53296L16.4297 10.495C16.5447 10.1061 16.7158 9.61898 16.7158 9.61898V9.61991Z" fill="#C10230"/>
<path d="M16.1398 9.55823C15.8696 10.1211 15.9379 10.7428 15.9379 10.7428C15.362 10.223 14.4552 10.6447 14.4552 10.6447C14.4841 10.7428 14.7861 10.9728 14.7861 10.9728C14.8001 12.064 15.448 12.2846 15.448 12.2846C15.218 12.4566 15.1601 12.6455 15.1601 12.6455C14.8272 12.2257 14.0943 12.3145 14.0943 12.3145C14.0943 13.0756 14.9011 13.4515 14.9011 13.4515C14.8282 13.7824 14.8721 13.9433 14.8721 13.9433C14.5991 14.0723 14.2972 14.4472 14.2972 14.4472C14.3822 13.6375 14.0943 13.3654 14.0943 13.3654C13.6044 13.6543 13.4044 14.2013 13.4044 14.2013C12.5826 14.2873 12.1357 14.8782 12.1357 14.8782L12.1927 14.6183C10.6661 14.9502 10.6801 16.0282 10.6801 16.0282L10.609 16.0011C10.5277 15.5103 10.0715 15.5215 10.0229 15.5262C9.97426 15.5215 9.5199 15.5103 9.4367 16.0011L9.36471 16.0282C9.36471 16.0282 9.3778 14.9493 7.853 14.6183L7.91003 14.8782C7.91003 14.8782 7.46315 14.2873 6.64326 14.2013C6.64326 14.2013 6.44132 13.6553 5.95145 13.3654C5.95145 13.3654 5.6635 13.6385 5.75044 14.4472C5.75044 14.4472 5.44848 14.0723 5.17549 13.9433C5.17549 13.9433 5.21756 13.7824 5.14557 13.4515C5.14557 13.4515 5.95145 13.0765 5.95145 12.3145C5.95145 12.3145 5.21756 12.2257 4.88661 12.6455C4.88661 12.6455 4.82771 12.4566 4.59867 12.2846C4.59867 12.2846 5.24654 12.063 5.2615 10.9728C5.2615 10.9728 5.56253 10.7428 5.59338 10.6447C5.59338 10.6447 4.68468 10.2239 4.11066 10.7428C4.11066 10.7428 4.26865 9.3301 3.18886 8.84204C3.18886 8.84204 2.82706 9.67791 3.23093 10.5558C3.23093 10.5558 2.90091 10.3838 2.75601 10.3679C2.75601 10.3679 2.65691 10.9738 3.02899 11.4067C3.02899 11.4067 2.72703 11.3506 2.39514 11.5357C2.39514 11.5357 2.74011 12.2706 3.51887 12.5155C3.51887 12.5155 3.5759 12.6586 3.63293 12.7605C3.63293 12.7605 3.11594 12.6726 2.6111 12.8905C2.6111 12.8905 3.02899 13.3514 3.18792 13.4243C3.18792 13.4243 3.5759 13.6684 3.77784 13.6974L3.61797 13.7535C3.61797 13.7535 4.3397 14.7183 4.98758 14.8343C4.98758 14.8343 4.52855 14.9605 4.35373 15.1802C4.35373 15.1802 5.17456 15.9432 6.25528 15.7132C6.25528 15.7132 6.02343 15.9581 5.90844 16.2031C5.90844 16.2031 6.62737 16.4041 7.34816 16.1432L7.27524 16.319C7.27524 16.319 7.75016 16.4172 8.44291 15.9581L8.73086 16.161C8.73086 16.161 7.89601 16.3031 7.3491 16.506L7.92499 16.9239C7.92499 16.9239 7.98295 16.8641 8.37093 16.6809C8.37093 16.6809 9.45259 16.9015 10.0229 16.8809C10.5941 16.9015 11.6739 16.6809 11.6739 16.6809C12.0637 16.8641 12.1208 16.9239 12.1208 16.9239L12.6948 16.506C12.1488 16.3041 11.3139 16.161 11.3139 16.161L11.6019 15.9581C12.2937 16.4172 12.7686 16.319 12.7686 16.319L12.6957 16.1432C13.4184 16.4041 14.1373 16.2031 14.1373 16.2031C14.0223 15.9572 13.7905 15.7132 13.7905 15.7132C14.8702 15.9432 15.692 15.1802 15.692 15.1802C15.5153 14.9605 15.0572 14.8343 15.0572 14.8343C15.7051 14.7183 16.4268 13.7535 16.4268 13.7535L16.267 13.6974C16.4689 13.6674 16.8588 13.4243 16.8588 13.4243C17.0158 13.3514 17.4337 12.8905 17.4337 12.8905C16.9317 12.6726 16.4119 12.7605 16.4119 12.7605C16.4689 12.6586 16.5269 12.5155 16.5269 12.5155C17.3038 12.2706 17.6497 11.5357 17.6497 11.5357C17.3168 11.3506 17.0158 11.4067 17.0158 11.4067C17.3907 10.9738 17.2897 10.3679 17.2897 10.3679C17.1458 10.3838 16.8139 10.5558 16.8139 10.5558C17.2187 9.67791 16.8588 8.84204 16.8588 8.84204C16.6054 8.95611 16.4231 9.11973 16.2885 9.30392L16.137 9.55823H16.1398ZM17.4197 11.6068L17.357 11.6862C17.357 11.6862 17.3056 11.5862 17.2336 11.6068C17.2336 11.6068 16.4287 11.8751 15.951 12.1546C15.951 12.1546 16.3118 11.3777 17.4187 11.6068H17.4197ZM15.9164 12.5006C16.0164 12.5586 16.3277 12.538 16.3277 12.538L16.1978 12.7895L15.9248 12.9765C15.9519 12.8016 15.9173 12.4997 15.9173 12.4997L15.9164 12.5006ZM15.8313 11.3852L16.1118 11.3926C16.0744 11.4646 16.0033 11.8022 16.0033 11.8022L15.8313 12.0041C15.8743 11.8311 15.8313 11.3852 15.8313 11.3852ZM16.7737 11.4207H16.7017C16.7017 11.4207 16.9335 11.1841 17.0906 10.8354C17.0906 10.8354 17.0822 11.1243 16.7737 11.4207ZM16.9906 10.6699C16.9906 10.6699 16.8092 11.0617 16.4437 11.5076L16.2118 11.6367C16.2118 11.6367 16.3642 10.8943 16.9906 10.6699ZM16.7699 9.09168C16.7699 9.09168 17.1 10.2473 16.3277 10.9167C16.3343 10.8363 16.3773 10.6765 16.4296 10.496L16.6634 9.53392C16.6138 9.50774 16.5577 9.5788 16.5577 9.5788C16.4343 9.75738 16.1538 10.8793 16.1538 10.8793C16.1538 10.8793 15.8154 9.80693 16.7699 9.09168ZM15.9893 11.1187C15.6658 10.8663 14.9937 10.6643 14.9937 10.6643C15.8369 10.5549 15.9893 11.1187 15.9893 11.1187ZM15.7705 11.1841C15.2751 11.1589 14.8787 10.8158 14.8787 10.8158C15.3106 10.9083 15.7705 11.1841 15.7705 11.1841ZM15.736 12.4866C15.8668 13.214 15.535 13.7095 15.535 13.7095L15.3396 13.7404C15.419 13.6674 15.5845 13.1055 15.5845 13.1055C15.5621 12.9849 15.736 12.4866 15.736 12.4866ZM15.405 11.2842L15.6359 11.3422C15.7154 11.6002 15.6658 12.0256 15.6658 12.0256C15.5424 11.8751 15.405 11.2842 15.405 11.2842ZM14.974 11.0822L15.2115 11.2281C15.2984 11.6769 15.5069 12.1088 15.5069 12.1088C14.9366 11.8255 14.9731 11.0813 14.9731 11.0813L14.974 11.0822ZM15.5705 12.4501C15.5135 12.5155 15.4424 12.9335 15.4424 12.9335C15.4134 13.315 15.103 13.8339 15.103 13.8339L15.0311 13.8554C15.0806 12.6025 15.5705 12.451 15.5705 12.451V12.4501ZM15.0526 12.7951L15.0161 12.9026C15.0161 12.9026 14.6777 12.6016 14.5122 12.5006C14.5122 12.5006 14.8506 12.4875 15.0526 12.7951ZM14.3252 12.581C14.3252 12.581 14.7936 12.8821 14.945 13.0765L14.9142 13.2504C14.9142 13.2504 14.4037 13.0064 14.3252 12.581ZM14.0447 13.6179C14.0447 13.6179 14.0719 13.6749 14.0793 13.7535C14.0793 13.7535 13.9578 13.7179 13.9428 13.8273C13.9428 13.8273 13.5838 14.9614 13.3024 15.0839C13.3024 15.0839 13.352 14.1714 14.0447 13.6169V13.6179ZM13.295 15.3102C13.295 15.3102 13.6259 15.2868 14.1158 13.8685C14.1158 13.8685 14.3402 14.9624 13.295 15.3663V15.3111V15.3102ZM13.2314 14.4023C12.634 15.6262 12.0506 15.6748 12.0506 15.6748C12.519 15.1148 13.0874 14.6043 13.0874 14.6043C13.1529 14.4968 13.0659 14.4463 13.0659 14.4463C13.1603 14.4098 13.2314 14.4014 13.2314 14.4014V14.4023ZM13.0136 15.3728L12.8275 15.3532C12.8911 15.2793 13.1286 14.9278 13.1286 14.9278L13.1229 15.2298C13.0005 15.2597 13.0136 15.3728 13.0136 15.3728ZM12.9145 14.5173C12.9145 14.5173 12.0656 15.3382 12.0375 15.4252C12.0375 15.4252 12.3105 14.6828 12.9145 14.5173ZM8.01193 15.4252C7.98388 15.3382 7.13407 14.5173 7.13407 14.5173C7.73895 14.6828 8.01193 15.4252 8.01193 15.4252ZM6.98075 14.4472C6.98075 14.4472 6.89381 14.4968 6.96019 14.6052C6.96019 14.6052 7.53047 15.1157 7.99791 15.6758C7.99791 15.6758 7.41547 15.6271 6.81715 14.4033C6.81715 14.4033 6.88913 14.4107 6.98169 14.4481L6.98075 14.4472ZM6.92466 15.2298L6.91812 14.9278C6.91812 14.9278 7.15558 15.2793 7.22008 15.3532L7.03311 15.3728C7.03311 15.3728 7.0462 15.2597 6.92466 15.2298ZM6.0038 13.6179C6.69561 14.1723 6.74329 15.0849 6.74329 15.0849C6.4647 14.9624 6.10383 13.8282 6.10383 13.8282C6.08887 13.7189 5.9664 13.7544 5.9664 13.7544C5.97388 13.6758 6.00286 13.6188 6.00286 13.6188L6.0038 13.6179ZM5.93088 13.8685C6.41982 15.2868 6.75264 15.3102 6.75264 15.3102V15.3653C5.70744 14.9614 5.93088 13.8675 5.93088 13.8675V13.8685ZM5.13249 13.2495L5.1035 13.0756C5.25496 12.8811 5.72146 12.5801 5.72146 12.5801C5.64293 13.0055 5.13155 13.2495 5.13155 13.2495H5.13249ZM5.53542 12.5006C5.36901 12.6025 5.03058 12.9026 5.03058 12.9026L4.99506 12.7951C5.19699 12.4875 5.53542 12.5006 5.53542 12.5006ZM5.01656 13.8544L4.94457 13.8329C4.94457 13.8329 4.63606 13.314 4.60801 12.9325C4.60801 12.9325 4.53509 12.5146 4.47713 12.4492C4.47713 12.4492 4.96701 12.6006 5.01656 13.8535V13.8544ZM4.46217 13.1055C4.46217 13.1055 4.62671 13.6674 4.70618 13.7404L4.51359 13.7095C4.51359 13.7095 4.18171 13.214 4.30979 12.4866C4.30979 12.4866 4.48368 12.984 4.46217 13.1055ZM4.41262 11.3422L4.6398 11.2842C4.6398 11.2842 4.50331 11.8751 4.38271 12.0256C4.38271 12.0256 4.33129 11.6002 4.41169 11.3422H4.41262ZM4.54164 12.1098C4.54164 12.1098 4.75012 11.6778 4.83706 11.229L5.07546 11.0832C5.07546 11.0832 5.11005 11.8265 4.54164 12.1107V12.1098ZM4.27613 11.1841C4.27613 11.1841 4.73703 10.9083 5.16708 10.8158C5.16708 10.8158 4.77162 11.1589 4.27613 11.1841ZM5.05209 10.6652C5.05209 10.6652 4.38364 10.8672 4.0583 11.1196C4.0583 11.1196 4.21069 10.5568 5.05209 10.6652ZM4.21723 12.0041L4.04334 11.8022C4.04334 11.8022 3.97323 11.4646 3.93583 11.3926L4.2163 11.3852C4.2163 11.3852 4.17236 11.8302 4.2163 12.0041H4.21723ZM4.12561 12.9765L3.84982 12.7895L3.72268 12.538C3.72268 12.538 4.03026 12.5586 4.13122 12.5006C4.13122 12.5006 4.09663 12.8026 4.12655 12.9774L4.12561 12.9765ZM3.27767 9.09168C4.23126 9.80693 3.89283 10.8793 3.89283 10.8793C3.89283 10.8793 3.61236 9.75738 3.48896 9.5788C3.48896 9.5788 3.43473 9.50774 3.38425 9.53392L3.61797 10.496C3.66939 10.6765 3.71146 10.8363 3.72081 10.9167C2.94392 10.2482 3.27674 9.09168 3.27674 9.09168H3.27767ZM3.8358 11.6367L3.60488 11.5076C3.23934 11.0617 3.05891 10.6699 3.05891 10.6699C3.68435 10.8943 3.8358 11.6367 3.8358 11.6367ZM2.95888 10.8354C3.11687 11.1841 3.34685 11.4207 3.34685 11.4207H3.27393C2.96449 11.1243 2.95981 10.8354 2.95981 10.8354H2.95888ZM2.69057 11.6872L2.62606 11.6077C3.7339 11.3786 4.09476 12.1556 4.09476 12.1556C3.61797 11.8751 2.8121 11.6077 2.8121 11.6077C2.73918 11.5881 2.68963 11.6872 2.68963 11.6872H2.69057ZM2.77003 11.7807C3.36742 11.9387 4.07326 12.3473 4.07326 12.3473C3.28889 12.5212 2.77003 11.7807 2.77003 11.7807ZM2.914 12.9765C4.12935 12.667 4.24621 13.5319 4.24621 13.5319C3.79186 13.07 3.12342 12.9484 3.12342 12.9484C2.95794 12.9484 3.05798 13.084 3.05798 13.084C3.77784 13.285 4.05176 13.6039 4.05176 13.6039C3.50485 13.545 2.914 12.9765 2.914 12.9765ZM4.0583 13.9993C3.98632 13.9601 3.91526 13.8544 3.91526 13.8544C5.24654 13.7535 5.65789 14.6239 5.65789 14.6239C4.85763 14.0872 4.18077 13.9049 4.18077 13.9049C4.05082 13.8544 4.05737 13.9993 4.05737 13.9993H4.0583ZM4.11066 14.048C4.11066 14.048 4.59119 14.1574 5.55038 14.7539C5.55038 14.7539 4.70711 14.7913 4.11066 14.048ZM4.64915 15.1653C5.23345 14.7109 6.0468 15.0512 6.0468 15.0512C6.06176 15.1017 6.33568 15.3308 6.33568 15.3308C5.9019 15.2008 5.07546 15.0652 5.07546 15.0652C4.92214 15.1073 5.04554 15.2148 5.04554 15.2148C5.69996 15.3382 6.36934 15.5262 6.36934 15.5262C5.36901 15.8085 4.64822 15.1662 4.64822 15.1662L4.64915 15.1653ZM6.28333 16.0928L6.1833 16.0881C6.1833 16.0881 6.67411 15.2868 7.50148 15.6262C7.50148 15.6262 6.44974 15.9422 6.33568 16.0002C6.33568 16.0002 6.27024 16.0226 6.28333 16.0928ZM6.57221 16.0928C6.57221 16.0928 7.52392 15.7767 7.71744 15.7487L7.79691 15.7908C7.79691 15.7908 7.30048 16.1302 6.57314 16.0928H6.57221ZM7.61461 16.1367C7.74549 16.0367 7.96893 15.8702 7.96893 15.8702L8.1559 15.9067C7.9549 16.0881 7.61367 16.1367 7.61367 16.1367H7.61461ZM8.07644 14.8399C9.22915 15.2288 9.21419 16.0572 9.21419 16.0572C9.06274 16.0077 8.32044 15.0652 8.32044 15.0652C8.12599 14.9783 8.19891 15.1802 8.19891 15.1802C8.47937 15.5262 8.89072 16.0161 8.89072 16.0161C8.21948 15.8861 8.07644 14.8399 8.07644 14.8399ZM10.0285 16.635H10.0191C9.94153 16.6388 9.36752 16.6388 8.8178 16.52C8.8178 16.52 9.37686 16.319 10.0238 16.3031C10.6698 16.319 11.2289 16.52 11.2289 16.52C10.6782 16.6388 10.1051 16.6378 10.0285 16.635ZM11.156 16.0161C11.156 16.0161 11.5654 15.5252 11.8487 15.1802C11.8487 15.1802 11.9198 14.9783 11.7253 15.0652C11.7253 15.0652 10.9839 16.0077 10.8325 16.0572C10.8325 16.0572 10.8175 15.2288 11.9702 14.8399C11.9702 14.8399 11.8263 15.8861 11.156 16.0161ZM11.8908 15.9076L12.0787 15.8712C12.0787 15.8712 12.3021 16.0367 12.4321 16.1376C12.4321 16.1376 12.0927 16.089 11.8908 15.9076ZM12.2507 15.7908L12.3311 15.7487C12.5256 15.7767 13.4763 16.0928 13.4763 16.0928C12.749 16.1302 12.2507 15.7908 12.2507 15.7908ZM13.8643 16.0881L13.7643 16.0928C13.7783 16.0226 13.7147 16.0002 13.7147 16.0002C13.5979 15.9422 12.5471 15.6262 12.5471 15.6262C13.3754 15.2868 13.8643 16.0881 13.8643 16.0881ZM15.3975 15.1653C15.3975 15.1653 14.6777 15.8076 13.6773 15.5252C13.6773 15.5252 14.3467 15.3373 15.0021 15.2139C15.0021 15.2139 15.1245 15.1064 14.9731 15.0643C14.9731 15.0643 14.1438 15.1999 13.7138 15.3298C13.7138 15.3298 13.9849 15.0998 14.0008 15.0503C14.0008 15.0503 14.816 14.7109 15.3966 15.1643L15.3975 15.1653ZM14.4982 14.7539C15.4555 14.1574 15.9379 14.048 15.9379 14.048C15.3396 14.7913 14.4982 14.7539 14.4982 14.7539ZM15.9893 13.9993C15.9893 13.9993 15.9949 13.8544 15.8668 13.9049C15.8668 13.9049 15.189 14.0872 14.3907 14.6239C14.3907 14.6239 14.8011 13.7535 16.1333 13.8544C16.1333 13.8544 16.0613 13.9601 15.9902 13.9993H15.9893ZM17.1336 12.9765C17.1336 12.9765 16.5437 13.545 15.9959 13.6039C15.9959 13.6039 16.2698 13.285 16.9906 13.084C16.9906 13.084 17.0906 12.9484 16.9242 12.9484C16.9242 12.9484 16.2539 13.0709 15.8023 13.5319C15.8023 13.5319 15.9173 12.6661 17.1336 12.9765ZM15.9743 12.3473C15.9743 12.3473 16.6811 11.9387 17.2766 11.7807C17.2766 11.7807 16.7606 12.5221 15.9743 12.3473Z" fill="#C10230"/>
<path d="M10.4371 11.1365C9.91263 11.4703 9.59851 11.1365 9.59851 11.1365V12.8643C10.0875 13.1083 10.4371 12.8643 10.4371 12.8643V11.1365Z" fill="#C10230"/>
<path d="M5.69631 10.5801C5.69631 10.5801 5.55608 12.7857 7.91853 12.9073C7.91853 12.9073 9.77241 12.9858 9.38911 11.3412H8.60194C8.60194 11.3412 9.14323 12.1892 8.1803 12.3285C8.1803 12.3285 7.05938 12.5211 7.13136 10.7363C7.13136 10.7363 7.25383 8.67278 8.82818 7.44797C8.82818 7.44797 8.30277 6.85239 8.58324 6.13527C8.58324 6.13527 8.81415 5.32932 9.70323 5.12643L9.6247 7.94818L10.0015 8.17818V8.18473L10.0052 8.18005L10.0108 8.18473V8.17818L10.3857 7.94818L10.3081 5.13017C11.1897 5.33493 11.4197 6.1362 11.4197 6.1362C11.7001 6.85332 11.1738 7.4489 11.1738 7.4489C12.75 8.67372 12.8725 10.7372 12.8725 10.7372C12.9426 12.5221 11.8217 12.3295 11.8217 12.3295C10.8597 12.1901 11.401 11.3421 11.401 11.3421H10.6129C10.2286 12.9858 12.0844 12.9082 12.0844 12.9082C14.4459 12.7867 14.3075 10.5811 14.3075 10.5811C14.4459 8.53441 11.9965 7.41244 11.9965 7.41244C12.6238 5.34054 10.9906 4.8263 10.2959 4.70382L10.281 4.1952L10.0117 3.91284V3.90723L10.0061 3.9091L10.0024 3.90723V3.91284L9.73128 4.1952L9.71632 4.70102C9.02731 4.82256 7.37817 5.33119 8.00735 7.41244C8.00735 7.41244 5.55795 8.53441 5.69818 10.5811L5.69631 10.5801Z" fill="#C10230"/>
<path d="M12.607 10.8616L11.889 8.42595C10.8045 7.85936 10.0248 8.59425 10.0005 8.61762C9.979 8.59425 9.19931 7.85936 8.11391 8.42595L7.39404 10.8616C7.39404 10.8616 8.60191 10.194 9.7752 11.0009H9.77613C9.82568 11.0336 9.90702 11.056 9.99957 11.056C10.0921 11.056 10.1716 11.0336 10.2211 11.0009H10.2267C11.4 10.194 12.606 10.8616 12.606 10.8616H12.607ZM10.0005 10.8775C9.979 10.8616 8.88612 10.1482 7.71097 10.5268L8.23451 8.53347C8.23451 8.53347 8.9525 8.07908 10.0014 8.68775C11.0513 8.07814 11.7674 8.53347 11.7674 8.53347L12.2928 10.5268C11.1149 10.1482 10.0257 10.8616 10.0005 10.8775Z" fill="#C10230"/>
<path d="M8.84034 10.0772L8.80949 10.0734L8.7964 10.0632L8.78518 10.0417L8.7562 9.95937L8.71413 9.84063L8.40374 8.92529L8.32989 8.93277L8.29904 9.1394L8.20555 9.72469C8.19059 9.83783 8.17563 9.91075 8.17096 9.94815C8.15974 10.0276 8.14852 10.0772 8.14665 10.0875L8.1373 10.1164L8.12515 10.1295L8.07373 10.1417L8.07934 10.2165L8.19994 10.2006L8.32334 10.1969L8.3168 10.1221L8.24014 10.1099L8.22892 10.0819C8.22705 10.0613 8.23079 10.0089 8.24388 9.92571L8.25884 9.81539L8.53089 9.79388L8.59166 9.98742L8.60942 10.0594L8.60288 10.0856L8.53276 10.1043L8.53837 10.1772L8.72254 10.1567L8.87025 10.1501L8.86558 10.0762L8.84127 10.0744L8.84034 10.0772ZM8.38785 9.70973L8.27473 9.71628L8.34578 9.24505L8.49536 9.69852L8.38785 9.70973Z" fill="#C10230"/>
<path d="M9.22073 9.57307V9.64413C9.27496 9.64974 9.30861 9.65348 9.3217 9.66189L9.33572 9.67779C9.33853 9.68714 9.34133 9.72266 9.34133 9.7797L9.33853 9.86104C9.33853 9.90966 9.33759 9.94051 9.33572 9.95454L9.27215 9.991L9.20203 10.0041C9.11977 10.0041 9.05058 9.95267 8.99543 9.84795C8.94027 9.7451 8.91129 9.60392 8.91129 9.42628C8.91129 9.26546 8.93933 9.13924 8.99169 9.04481C9.04497 8.95131 9.11416 8.9055 9.20297 8.9055L9.30487 8.92794L9.38434 8.98778L9.41238 9.03265L9.41706 9.10091L9.4208 9.18599H9.46287C9.46941 9.05135 9.47783 8.95879 9.48718 8.90456L9.48157 8.8896C9.45258 8.8681 9.41145 8.84847 9.3591 8.82696C9.30861 8.8092 9.25158 8.80078 9.19175 8.80078C9.14314 8.80078 9.10013 8.80733 9.05713 8.82229L8.94027 8.89241C8.90381 8.92513 8.87015 8.96721 8.8393 9.01957C8.81125 9.07192 8.78695 9.1327 8.77105 9.20282C8.75516 9.27201 8.74768 9.35429 8.74768 9.44872C8.74768 9.55998 8.7589 9.66189 8.78508 9.75258C8.80097 9.81149 8.82341 9.86572 8.85332 9.91714C8.88511 9.96763 8.92063 10.0088 8.96364 10.0424C9.02534 10.0864 9.09546 10.1107 9.17492 10.1107C9.22354 10.1107 9.27215 10.1013 9.3217 10.0864C9.36938 10.0658 9.42734 10.0406 9.49465 9.99942L9.48904 9.85824C9.48904 9.83019 9.48904 9.7797 9.49185 9.71051L9.49652 9.66283L9.53766 9.63104V9.574L9.37779 9.57587L9.2198 9.574L9.22073 9.57307Z" fill="#C10230"/>
<path d="M10.3538 9.99199L10.3426 9.98264L10.3332 9.95834L10.3108 9.87606L10.2781 9.75451L10.0425 8.8186H9.96675L9.92001 9.02056L9.78071 9.59837C9.75453 9.7087 9.73583 9.78069 9.72929 9.81715C9.70779 9.8985 9.6947 9.94338 9.69003 9.95553L9.67974 9.98264L9.66385 9.99293L9.61523 10.0041V10.078L9.73677 10.0733L9.8583 10.078V10.0041L9.78258 9.98638L9.77417 9.9574C9.77417 9.93496 9.78258 9.88447 9.79941 9.80219L9.82278 9.69187H10.0958L10.1425 9.89195L10.1528 9.96394L10.1444 9.99106L10.0733 10.0041V10.078L10.2584 10.0733L10.4043 10.078V10.0041L10.3818 9.99854L10.3501 9.99106L10.3538 9.99199ZM9.96301 9.59463H9.84989L9.95927 9.12995L10.0724 9.5937H9.96301V9.59463Z" fill="#C10230"/>
<path d="M11.1345 8.9431L11.0709 8.85241L10.9615 8.81968L10.724 8.81407L10.5698 8.80005L10.5614 8.87391L10.6221 8.88326L10.6399 8.89355L10.6464 8.90851L10.6493 8.94684C10.6493 8.9646 10.6464 9.01042 10.6446 9.08148L10.6362 9.24977L10.6165 9.56579C10.6109 9.68453 10.6016 9.79112 10.5941 9.88555L10.5829 9.95194L10.5745 9.96315L10.4997 9.97344L10.495 10.0538C10.5399 10.0529 10.5885 10.0538 10.638 10.0567C10.6838 10.0604 10.753 10.0651 10.8418 10.0744L10.8465 9.99401L10.7745 9.98372L10.7577 9.97063L10.7521 9.95661C10.7502 9.94258 10.7502 9.90893 10.7521 9.8575C10.754 9.76868 10.7577 9.68079 10.7642 9.59571L10.7839 9.25818L10.796 9.08148C10.7988 9.01135 10.8063 8.95806 10.8091 8.91973L10.8755 8.91131L10.969 8.97863C10.9895 9.0207 10.998 9.08241 10.9914 9.16562C10.9877 9.2451 10.9718 9.30213 10.9475 9.34233L10.8605 9.39937L10.8418 9.39376L10.8213 9.38441L10.8082 9.40217L10.8231 9.46668L10.8549 9.47884L10.8876 9.48351L11.0176 9.43583C11.0578 9.40124 11.0905 9.35449 11.112 9.29839C11.1345 9.23949 11.1475 9.17778 11.1503 9.11139C11.1532 9.04595 11.1503 8.98611 11.1317 8.94403L11.1345 8.9431Z" fill="#C10230"/>
<path d="M11.6468 10.1651L11.6561 10.1529C11.6673 10.0781 11.6851 9.98182 11.7104 9.86401L11.6664 9.8584C11.6477 9.93694 11.6346 9.99117 11.6225 10.0183L11.615 10.0342L11.5542 10.0435L11.4477 10.0342L11.3476 10.0145L11.3626 9.90422L11.4168 9.52929L11.5019 9.5349L11.5935 9.55828L11.6131 9.58539C11.6159 9.60129 11.6131 9.64429 11.6028 9.71442L11.6477 9.72096L11.6739 9.52649L11.7047 9.33014L11.6617 9.32453C11.6543 9.37783 11.6449 9.41336 11.6393 9.43673L11.6281 9.4545H11.5935C11.543 9.45169 11.514 9.44515 11.5065 9.44421L11.4327 9.43112L11.4589 9.25067C11.4748 9.14408 11.4879 9.06087 11.5047 8.99542L11.6 9.0029L11.701 9.02815L11.7412 9.04778V9.06742C11.7421 9.08331 11.7403 9.12445 11.7309 9.19551L11.7711 9.20299C11.7842 9.12632 11.7926 9.08331 11.7954 9.0749L11.8235 8.94774L11.8216 8.93559L11.8057 8.92811L11.7281 8.91315L11.6206 8.90286C11.5617 8.89632 11.5084 8.88884 11.4607 8.88136L11.3916 8.87201L11.2719 8.84863L11.2597 8.9253L11.3327 8.95241L11.3401 8.96737C11.3401 8.9814 11.3383 9.0216 11.3289 9.08799C11.3168 9.1899 11.3074 9.24787 11.3046 9.26096L11.2467 9.66019C11.2392 9.70787 11.228 9.78174 11.2102 9.88271C11.2008 9.93694 11.1934 9.97808 11.1868 10.0024L11.1279 10.0463L11.1195 10.094C11.2289 10.1062 11.2887 10.1137 11.2962 10.1137C11.3289 10.1183 11.385 10.1305 11.4682 10.1436L11.5524 10.1576L11.6477 10.1669L11.6468 10.1651Z" fill="#C10230"/>
</g>
<defs>
<clipPath id="clip0_7_1943">
<rect width="20" height="20" fill="white"/>
</clipPath>
</defs>
</svg>
