<svg width="146" height="132" viewBox="0 0 146 132" fill="none" xmlns="http://www.w3.org/2000/svg">
<path d="M38.0557 16.4072C71.429 -9.48118 113.66 -0.813903 134.529 28.0342L135.018 28.7197C155.111 57.2735 144.466 98.9787 106.607 118.575C88.7735 127.804 68.9776 131.642 51.7275 130.913C34.4337 130.182 19.9 124.876 12.3721 116.055C0.845018 102.547 -1.49736 84.4671 3.44434 66.2969C8.38747 48.1215 20.6073 29.9385 38.0557 16.4072Z" fill="white" stroke="#84AFFB" stroke-width="2"/>
<path d="M29.6129 51.5781V55.25H32.5504V50.2656H34.2692V64.4062H32.5504V56.6562H29.6129V60.9062H22.9567V51.5781H29.6129ZM24.691 52.9375V59.5312H27.9098V52.9375H24.691ZM48.0192 50.2812V60.5938H46.2692V50.2812H48.0192ZM48.4098 62.7031V64.1094H38.6754V59.6094H40.4254V62.7031H48.4098ZM41.5192 52.4375C41.5192 54.4062 42.6754 56.2656 44.9098 57.0156L44.0192 58.3906C42.4098 57.8281 41.2614 56.7031 40.6442 55.2656C40.0035 56.8047 38.8395 58.0391 37.1754 58.6406L36.2692 57.2656C38.566 56.4531 39.7223 54.4688 39.7223 52.4375V51.0625H41.5192V52.4375ZM61.9098 50.2656V64.4062H60.1754V56.8906H57.7535V55.4688H60.1754V50.2656H61.9098ZM56.941 51.5V56.6719H52.316V59.6406C54.4098 59.6328 56.1051 59.5625 58.0035 59.2188L58.1442 60.6406C56.0348 61.0156 54.1598 61.0938 51.7223 61.0938H50.5973V55.2656H55.2379V52.9062H50.5504V51.5H56.941ZM75.6285 50.2656V58.5469H73.8942V50.2656H75.6285ZM66.4879 51.1719V56.1562C68.5895 56.1328 70.5426 55.9766 72.6285 55.5469L72.8317 56.9531C70.5035 57.4531 68.316 57.6094 65.941 57.5938H64.7379V51.1719H66.4879ZM70.8629 58.7031C73.8317 58.6875 75.691 59.75 75.691 61.5469C75.691 63.3125 73.8317 64.375 70.8629 64.375C67.8942 64.375 66.0192 63.3125 66.0348 61.5469C66.0192 59.75 67.8942 58.6875 70.8629 58.7031ZM70.8629 60.1094C68.8942 60.1094 67.7692 60.5938 67.7692 61.5469C67.7692 62.4688 68.8942 62.9844 70.8629 62.9844C72.8317 62.9844 73.941 62.4688 73.9567 61.5469C73.941 60.5938 72.8317 60.1094 70.8629 60.1094ZM82.8317 51.1562L79.191 64.7031H77.441L81.0973 51.1562H82.8317ZM91.0192 51.125V52.5469H86.0192V55.9844C88.8082 55.9766 90.441 55.8984 92.2692 55.5312L92.4254 56.9219C90.4567 57.3281 88.691 57.3906 85.5035 57.3906H84.3004V51.125H91.0192ZM95.2379 50.2656V57.8906H93.4879V50.2656H95.2379ZM87.6129 58.5312V60.0156H93.5035V58.5312H95.2379V64.2188H85.8942V58.5312H87.6129ZM87.6129 62.8125H93.5035V61.375H87.6129V62.8125ZM109.129 50.2656V64.4062H107.394V56.8906H104.972V55.4688H107.394V50.2656H109.129ZM104.16 51.5V56.6719H99.5348V59.6406C101.629 59.6328 103.324 59.5625 105.222 59.2188L105.363 60.6406C103.254 61.0156 101.379 61.0938 98.941 61.0938H97.816V55.2656H102.457V52.9062H97.7692V51.5H104.16ZM122.847 50.2656V58.5469H121.113V50.2656H122.847ZM113.707 51.1719V56.1562C115.808 56.1328 117.761 55.9766 119.847 55.5469L120.05 56.9531C117.722 57.4531 115.535 57.6094 113.16 57.5938H111.957V51.1719H113.707ZM118.082 58.7031C121.05 58.6875 122.91 59.75 122.91 61.5469C122.91 63.3125 121.05 64.375 118.082 64.375C115.113 64.375 113.238 63.3125 113.254 61.5469C113.238 59.75 115.113 58.6875 118.082 58.7031ZM118.082 60.1094C116.113 60.1094 114.988 60.5938 114.988 61.5469C114.988 62.4688 116.113 62.9844 118.082 62.9844C120.05 62.9844 121.16 62.4688 121.175 61.5469C121.16 60.5938 120.05 60.1094 118.082 60.1094ZM52.027 83.25V84.6719H39.1207V83.25H44.6832V80.1719H40.5426V73.3594H50.5426V80.1719H46.402V83.25H52.027ZM42.2457 74.75V78.8125H48.8239V74.75H42.2457ZM65.0895 72.2812V79.7031H63.4332V72.2812H65.0895ZM62.2926 72.5469V79.625H60.652V76.6094H58.2145V75.2812H60.652V72.5469H62.2926ZM59.0426 73V74.375H55.3082V77.8438C57.0035 77.8281 58.1676 77.7812 59.5582 77.5469L59.652 78.9219C58.0582 79.1875 56.7301 79.2344 54.527 79.2344H53.5895V73H59.0426ZM65.0895 80.2188V83.8125H57.2145V84.8438H65.5582V86.2188H55.4801V82.5156H63.3864V81.5781H55.4645V80.2188H65.0895ZM82.6989 72.2656V86.3906H81.027V79.1406H79.5114V85.7344H77.8864V72.6406H79.5114V77.7344H81.027V72.2656H82.6989ZM76.6832 74.0469C76.6832 77.8594 75.4801 81.1406 71.4645 83.4375L70.4645 82.2344C73.4723 80.4922 74.7457 78.2578 74.9957 75.4375H71.1207V74.0469H76.6832ZM86.6051 72.8906V74.6875H89.902V72.8906H91.6207V79.0469H84.8864V72.8906H86.6051ZM86.6051 77.6719H89.902V76H86.6051V77.6719ZM95.5426 72.2656V75.125H97.5114V76.5312H95.5426V79.5H93.8082V72.2656H95.5426ZM95.5426 80.0625V83.7656H88.0426V84.8906H95.9801V86.2656H86.3239V82.5H93.8082V81.4219H86.3082V80.0625H95.5426ZM103.293 76.2812C103.293 78.4688 104.589 80.9531 106.824 81.9844L105.855 83.3594C104.261 82.6094 103.082 81.0938 102.449 79.3281C101.808 81.2656 100.574 82.9219 98.9489 83.7031L97.9332 82.3438C100.183 81.2812 101.543 78.625 101.558 76.2812V75.0938H98.4801V73.6562H106.246V75.0938H103.293V76.2812ZM109.293 72.2656V77.7656H111.464V79.2188H109.293V86.3906H107.558V72.2656H109.293Z" fill="black"/>
</svg>
