<svg width="131" height="33" viewBox="0 0 131 33" fill="none" xmlns="http://www.w3.org/2000/svg">
<path d="M18.754 26.524C18.754 27.952 18.448 28.9833 17.836 29.618C17.224 30.2527 16.306 30.57 15.082 30.57H3.998C2.774 30.57 1.856 30.2527 1.244 29.618C0.632 28.9833 0.326 27.952 0.326 26.524V1.5C0.326 1.16 0.394 0.933332 0.53 0.819999C0.666 0.706665 0.892667 0.649999 1.21 0.649999H17.87C18.1873 0.649999 18.414 0.706665 18.55 0.819999C18.686 0.933332 18.754 1.16 18.754 1.5V26.524ZM32.728 17.004C32.728 17.344 32.66 17.5707 32.524 17.684C32.388 17.7973 32.1613 17.854 31.844 17.854H28.716V31.42C28.716 31.76 28.648 31.9867 28.512 32.1C28.376 32.2133 28.1493 32.27 27.832 32.27H23.072C22.7547 32.27 22.528 32.2133 22.392 32.1C22.256 31.9867 22.188 31.76 22.188 31.42V1.5C22.188 1.16 22.256 0.933332 22.392 0.819999C22.528 0.706665 22.7547 0.649999 23.072 0.649999H27.832C28.1493 0.649999 28.376 0.706665 28.512 0.819999C28.648 0.933332 28.716 1.16 28.716 1.5V12.21H31.844C32.1613 12.21 32.388 12.2667 32.524 12.38C32.66 12.4933 32.728 12.72 32.728 13.06V17.004ZM11.546 25.232C11.9313 25.232 12.192 25.164 12.328 25.028C12.464 24.8693 12.532 24.5747 12.532 24.144V5.818H6.548V24.144C6.548 24.5747 6.616 24.8693 6.752 25.028C6.888 25.164 7.14867 25.232 7.534 25.232H11.546ZM57.854 32.27C57.5367 32.27 57.31 32.2133 57.174 32.1C57.038 31.9867 56.97 31.76 56.97 31.42V1.5C56.97 1.16 57.038 0.933332 57.174 0.819999C57.31 0.706665 57.5367 0.649999 57.854 0.649999H62.614C62.9313 0.649999 63.158 0.706665 63.294 0.819999C63.43 0.933332 63.498 1.16 63.498 1.5V31.42C63.498 31.76 63.43 31.9867 63.294 32.1C63.158 32.2133 62.9313 32.27 62.614 32.27H57.854ZM54.25 15.746C54.25 18.126 54.0687 20.2567 53.706 22.138C53.366 23.9967 52.7993 25.572 52.006 26.864C51.2353 28.156 50.2153 29.142 48.946 29.822C47.6767 30.502 46.124 30.842 44.288 30.842C42.452 30.842 40.8993 30.502 39.63 29.822C38.3607 29.142 37.3293 28.156 36.536 26.864C35.7653 25.572 35.1987 23.9967 34.836 22.138C34.496 20.2567 34.326 18.126 34.326 15.746C34.326 13.366 34.496 11.2467 34.836 9.388C35.1987 7.50667 35.7653 5.92 36.536 4.628C37.3293 3.336 38.3607 2.35 39.63 1.67C40.8993 0.989998 42.452 0.649999 44.288 0.649999C46.124 0.649999 47.6767 0.989998 48.946 1.67C50.2153 2.35 51.2353 3.336 52.006 4.628C52.7993 5.92 53.366 7.50667 53.706 9.388C54.0687 11.2467 54.25 13.366 54.25 15.746ZM47.892 15.746C47.892 13.6607 47.7673 11.9947 47.518 10.748C47.2913 9.50133 46.9967 8.54933 46.634 7.892C46.2713 7.212 45.8747 6.77 45.444 6.566C45.036 6.362 44.6507 6.26 44.288 6.26C43.9253 6.26 43.5287 6.362 43.098 6.566C42.69 6.77 42.3047 7.212 41.942 7.892C41.5793 8.54933 41.2733 9.50133 41.024 10.748C40.7973 11.9947 40.684 13.6607 40.684 15.746C40.684 17.8313 40.7973 19.4973 41.024 20.744C41.2733 21.9907 41.5793 22.954 41.942 23.634C42.3047 24.2913 42.69 24.722 43.098 24.926C43.5287 25.13 43.9253 25.232 44.288 25.232C44.6507 25.232 45.036 25.13 45.444 24.926C45.8747 24.722 46.2713 24.2913 46.634 23.634C46.9967 22.954 47.2913 21.9907 47.518 20.744C47.7673 19.4973 47.892 17.8313 47.892 15.746ZM96.274 20.608C96.3193 20.948 96.2627 21.1633 96.104 21.254C95.9453 21.3447 95.7073 21.4127 95.39 21.458C93.826 21.6167 92.2167 21.7527 90.562 21.866C88.9073 21.9793 87.2527 22.0813 85.598 22.172C83.9433 22.24 82.3113 22.2967 80.702 22.342C79.1153 22.3647 77.5967 22.376 76.146 22.376C73.97 22.376 72.406 21.798 71.454 20.642C70.5247 19.4633 70.06 17.5933 70.06 15.032V1.5C70.06 1.16 70.128 0.933332 70.264 0.819999C70.4 0.706665 70.6267 0.649999 70.944 0.649999H94.982C95.2993 0.649999 95.526 0.706665 95.662 0.819999C95.798 0.933332 95.866 1.16 95.866 1.5V5.478C95.866 5.818 95.798 6.04467 95.662 6.158C95.526 6.27133 95.2993 6.328 94.982 6.328H76.588V8.776H95.016C95.3333 8.776 95.56 8.83267 95.696 8.946C95.832 9.05933 95.9 9.286 95.9 9.626V13.264C95.9 13.604 95.832 13.8307 95.696 13.944C95.56 14.0573 95.3333 14.114 95.016 14.114H76.588V14.726C76.588 15.542 76.758 16.1427 77.098 16.528C77.438 16.9133 78.0613 17.0947 78.968 17.072C81.4387 17.0267 84.068 16.936 86.856 16.8C89.644 16.664 92.3753 16.4487 95.05 16.154C95.3673 16.1087 95.5827 16.154 95.696 16.29C95.8093 16.426 95.8887 16.664 95.934 17.004L96.274 20.608ZM67.918 27.102C67.918 26.762 67.986 26.5353 68.122 26.422C68.258 26.3087 68.4847 26.252 68.802 26.252H97.498C97.8153 26.252 98.042 26.3087 98.178 26.422C98.314 26.5353 98.382 26.762 98.382 27.102V31.08C98.382 31.42 98.314 31.6467 98.178 31.76C98.042 31.8733 97.8153 31.93 97.498 31.93H68.802C68.4847 31.93 68.258 31.8733 68.122 31.76C67.986 31.6467 67.918 31.42 67.918 31.08V27.102ZM117.769 19.146C117.451 19.146 117.225 19.0893 117.089 18.976C116.953 18.8627 116.885 18.636 116.885 18.296V1.5C116.885 1.16 116.953 0.933332 117.089 0.819999C117.225 0.706665 117.451 0.649999 117.769 0.649999H122.019C122.336 0.649999 122.563 0.706665 122.699 0.819999C122.835 0.933332 122.903 1.16 122.903 1.5V7.144H124.399V1.5C124.399 1.16 124.467 0.933332 124.603 0.819999C124.739 0.706665 124.965 0.649999 125.283 0.649999H129.533C129.85 0.649999 130.077 0.706665 130.213 0.819999C130.349 0.933332 130.417 1.16 130.417 1.5V18.296C130.417 18.636 130.349 18.8627 130.213 18.976C130.077 19.0893 129.85 19.146 129.533 19.146H125.283C124.965 19.146 124.739 19.0893 124.603 18.976C124.467 18.8627 124.399 18.636 124.399 18.296V12.312H122.903V18.296C122.903 18.636 122.835 18.8627 122.699 18.976C122.563 19.0893 122.336 19.146 122.019 19.146H117.769ZM114.981 11.088C114.981 11.428 114.913 11.6547 114.777 11.768C114.641 11.8813 114.414 11.938 114.097 11.938H107.399C107.149 11.938 106.991 11.9947 106.923 12.108C106.855 12.1987 106.821 12.3687 106.821 12.618V13.196C106.821 13.5813 106.911 13.8307 107.093 13.944C107.297 14.0347 107.614 14.08 108.045 14.08C109.155 14.08 110.198 14.0347 111.173 13.944C112.17 13.8307 113.235 13.6833 114.369 13.502C114.686 13.4567 114.901 13.502 115.015 13.638C115.128 13.7513 115.207 13.978 115.253 14.318L115.525 17.514C115.57 17.854 115.513 18.092 115.355 18.228C115.196 18.3413 114.958 18.4207 114.641 18.466C113.417 18.6247 112.147 18.7607 110.833 18.874C109.541 18.9647 108.169 19.01 106.719 19.01C105.631 19.01 104.701 18.9193 103.931 18.738C103.183 18.5567 102.559 18.2507 102.061 17.82C101.562 17.3893 101.199 16.8113 100.973 16.086C100.746 15.3607 100.633 14.4653 100.633 13.4V8.3C100.633 7.96 100.701 7.73333 100.837 7.62C100.973 7.50666 101.199 7.45 101.517 7.45H108.181C108.43 7.45 108.589 7.416 108.657 7.348C108.747 7.25733 108.793 7.11 108.793 6.906V6.022C108.793 5.79533 108.759 5.648 108.691 5.58C108.623 5.512 108.475 5.478 108.249 5.478H101.517C101.199 5.478 100.973 5.42133 100.837 5.308C100.701 5.19467 100.633 4.968 100.633 4.628V1.5C100.633 1.16 100.701 0.933332 100.837 0.819999C100.973 0.706665 101.199 0.649999 101.517 0.649999H111.683C112.907 0.649999 113.757 0.944666 114.233 1.534C114.731 2.12333 114.981 3.04133 114.981 4.288V11.088ZM102.639 21.56C102.639 21.22 102.707 20.9933 102.843 20.88C102.979 20.7667 103.205 20.71 103.523 20.71H129.533C129.85 20.71 130.077 20.7667 130.213 20.88C130.349 20.9933 130.417 21.22 130.417 21.56V32.1C130.417 32.44 130.349 32.6667 130.213 32.78C130.077 32.8933 129.85 32.95 129.533 32.95H124.773C124.455 32.95 124.229 32.8933 124.093 32.78C123.957 32.6667 123.889 32.44 123.889 32.1V26.354H103.523C103.205 26.354 102.979 26.2973 102.843 26.184C102.707 26.0707 102.639 25.844 102.639 25.504V21.56Z" fill="#0259DD"/>
</svg>
