<svg width="108" height="27" viewBox="0 0 108 27" fill="none" xmlns="http://www.w3.org/2000/svg">
<path d="M15.268 21.608C15.268 22.784 15.016 23.6333 14.512 24.156C14.008 24.6787 13.252 24.94 12.244 24.94H3.116C2.108 24.94 1.352 24.6787 0.848 24.156C0.344 23.6333 0.092 22.784 0.092 21.608V0.999998C0.092 0.719999 0.148 0.533332 0.26 0.439999C0.372 0.346666 0.558667 0.299999 0.82 0.299999H14.54C14.8013 0.299999 14.988 0.346666 15.1 0.439999C15.212 0.533332 15.268 0.719999 15.268 0.999998V21.608ZM26.776 13.768C26.776 14.048 26.72 14.2347 26.608 14.328C26.496 14.4213 26.3093 14.468 26.048 14.468H23.472V25.64C23.472 25.92 23.416 26.1067 23.304 26.2C23.192 26.2933 23.0053 26.34 22.744 26.34H18.824C18.5627 26.34 18.376 26.2933 18.264 26.2C18.152 26.1067 18.096 25.92 18.096 25.64V0.999998C18.096 0.719999 18.152 0.533332 18.264 0.439999C18.376 0.346666 18.5627 0.299999 18.824 0.299999H22.744C23.0053 0.299999 23.192 0.346666 23.304 0.439999C23.416 0.533332 23.472 0.719999 23.472 0.999998V9.82H26.048C26.3093 9.82 26.496 9.86667 26.608 9.96C26.72 10.0533 26.776 10.24 26.776 10.52V13.768ZM9.332 20.544C9.64933 20.544 9.864 20.488 9.976 20.376C10.088 20.2453 10.144 20.0027 10.144 19.648V4.556H5.216V19.648C5.216 20.0027 5.272 20.2453 5.384 20.376C5.496 20.488 5.71067 20.544 6.028 20.544H9.332ZM47.468 26.34C47.2067 26.34 47.02 26.2933 46.908 26.2C46.796 26.1067 46.74 25.92 46.74 25.64V0.999998C46.74 0.719999 46.796 0.533332 46.908 0.439999C47.02 0.346666 47.2067 0.299999 47.468 0.299999H51.388C51.6493 0.299999 51.836 0.346666 51.948 0.439999C52.06 0.533332 52.116 0.719999 52.116 0.999998V25.64C52.116 25.92 52.06 26.1067 51.948 26.2C51.836 26.2933 51.6493 26.34 51.388 26.34H47.468ZM44.5 12.732C44.5 14.692 44.3507 16.4467 44.052 17.996C43.772 19.5267 43.3053 20.824 42.652 21.888C42.0173 22.952 41.1773 23.764 40.132 24.324C39.0867 24.884 37.808 25.164 36.296 25.164C34.784 25.164 33.5053 24.884 32.46 24.324C31.4147 23.764 30.5653 22.952 29.912 21.888C29.2773 20.824 28.8107 19.5267 28.512 17.996C28.232 16.4467 28.092 14.692 28.092 12.732C28.092 10.772 28.232 9.02667 28.512 7.496C28.8107 5.94667 29.2773 4.64 29.912 3.576C30.5653 2.512 31.4147 1.7 32.46 1.14C33.5053 0.579999 34.784 0.299999 36.296 0.299999C37.808 0.299999 39.0867 0.579999 40.132 1.14C41.1773 1.7 42.0173 2.512 42.652 3.576C43.3053 4.64 43.772 5.94667 44.052 7.496C44.3507 9.02667 44.5 10.772 44.5 12.732ZM39.264 12.732C39.264 11.0147 39.1613 9.64267 38.956 8.616C38.7693 7.58933 38.5267 6.80533 38.228 6.264C37.9293 5.704 37.6027 5.34 37.248 5.172C36.912 5.004 36.5947 4.92 36.296 4.92C35.9973 4.92 35.6707 5.004 35.316 5.172C34.98 5.34 34.6627 5.704 34.364 6.264C34.0653 6.80533 33.8133 7.58933 33.608 8.616C33.4213 9.64267 33.328 11.0147 33.328 12.732C33.328 14.4493 33.4213 15.8213 33.608 16.848C33.8133 17.8747 34.0653 18.668 34.364 19.228C34.6627 19.7693 34.98 20.124 35.316 20.292C35.6707 20.46 35.9973 20.544 36.296 20.544C36.5947 20.544 36.912 20.46 37.248 20.292C37.6027 20.124 37.9293 19.7693 38.228 19.228C38.5267 18.668 38.7693 17.8747 38.956 16.848C39.1613 15.8213 39.264 14.4493 39.264 12.732ZM79.108 16.736C79.1453 17.016 79.0987 17.1933 78.968 17.268C78.8373 17.3427 78.6413 17.3987 78.38 17.436C77.092 17.5667 75.7667 17.6787 74.404 17.772C73.0413 17.8653 71.6787 17.9493 70.316 18.024C68.9533 18.08 67.6093 18.1267 66.284 18.164C64.9773 18.1827 63.7267 18.192 62.532 18.192C60.74 18.192 59.452 17.716 58.668 16.764C57.9027 15.7933 57.52 14.2533 57.52 12.144V0.999998C57.52 0.719999 57.576 0.533332 57.688 0.439999C57.8 0.346666 57.9867 0.299999 58.248 0.299999H78.044C78.3053 0.299999 78.492 0.346666 78.604 0.439999C78.716 0.533332 78.772 0.719999 78.772 0.999998V4.276C78.772 4.556 78.716 4.74267 78.604 4.836C78.492 4.92933 78.3053 4.976 78.044 4.976H62.896V6.992H78.072C78.3333 6.992 78.52 7.03867 78.632 7.132C78.744 7.22533 78.8 7.412 78.8 7.692V10.688C78.8 10.968 78.744 11.1547 78.632 11.248C78.52 11.3413 78.3333 11.388 78.072 11.388H62.896V11.892C62.896 12.564 63.036 13.0587 63.316 13.376C63.596 13.6933 64.1093 13.8427 64.856 13.824C66.8907 13.7867 69.056 13.712 71.352 13.6C73.648 13.488 75.8973 13.3107 78.1 13.068C78.3613 13.0307 78.5387 13.068 78.632 13.18C78.7253 13.292 78.7907 13.488 78.828 13.768L79.108 16.736ZM55.756 22.084C55.756 21.804 55.812 21.6173 55.924 21.524C56.036 21.4307 56.2227 21.384 56.484 21.384H80.116C80.3773 21.384 80.564 21.4307 80.676 21.524C80.788 21.6173 80.844 21.804 80.844 22.084V25.36C80.844 25.64 80.788 25.8267 80.676 25.92C80.564 26.0133 80.3773 26.06 80.116 26.06H56.484C56.2227 26.06 56.036 26.0133 55.924 25.92C55.812 25.8267 55.756 25.64 55.756 25.36V22.084ZM96.8095 15.532C96.5481 15.532 96.3615 15.4853 96.2495 15.392C96.1375 15.2987 96.0815 15.112 96.0815 14.832V0.999998C96.0815 0.719999 96.1375 0.533332 96.2495 0.439999C96.3615 0.346666 96.5481 0.299999 96.8095 0.299999H100.309C100.571 0.299999 100.757 0.346666 100.869 0.439999C100.981 0.533332 101.037 0.719999 101.037 0.999998V5.648H102.269V0.999998C102.269 0.719999 102.325 0.533332 102.437 0.439999C102.549 0.346666 102.736 0.299999 102.997 0.299999H106.497C106.759 0.299999 106.945 0.346666 107.057 0.439999C107.169 0.533332 107.225 0.719999 107.225 0.999998V14.832C107.225 15.112 107.169 15.2987 107.057 15.392C106.945 15.4853 106.759 15.532 106.497 15.532H102.997C102.736 15.532 102.549 15.4853 102.437 15.392C102.325 15.2987 102.269 15.112 102.269 14.832V9.904H101.037V14.832C101.037 15.112 100.981 15.2987 100.869 15.392C100.757 15.4853 100.571 15.532 100.309 15.532H96.8095ZM94.5135 8.896C94.5135 9.176 94.4575 9.36267 94.3455 9.456C94.2335 9.54933 94.0468 9.596 93.7855 9.596H88.2695C88.0641 9.596 87.9335 9.64267 87.8775 9.736C87.8215 9.81067 87.7935 9.95067 87.7935 10.156V10.632C87.7935 10.9493 87.8681 11.1547 88.0175 11.248C88.1855 11.3227 88.4468 11.36 88.8015 11.36C89.7161 11.36 90.5748 11.3227 91.3775 11.248C92.1988 11.1547 93.0761 11.0333 94.0095 10.884C94.2708 10.8467 94.4481 10.884 94.5415 10.996C94.6348 11.0893 94.7001 11.276 94.7375 11.556L94.9615 14.188C94.9988 14.468 94.9521 14.664 94.8215 14.776C94.6908 14.8693 94.4948 14.9347 94.2335 14.972C93.2255 15.1027 92.1801 15.2147 91.0975 15.308C90.0335 15.3827 88.9041 15.42 87.7095 15.42C86.8135 15.42 86.0481 15.3453 85.4135 15.196C84.7975 15.0467 84.2841 14.7947 83.8735 14.44C83.4628 14.0853 83.1641 13.6093 82.9775 13.012C82.7908 12.4147 82.6975 11.6773 82.6975 10.8V6.6C82.6975 6.32 82.7535 6.13333 82.8655 6.04C82.9775 5.94667 83.1641 5.9 83.4255 5.9H88.9135C89.1188 5.9 89.2495 5.872 89.3055 5.816C89.3801 5.74133 89.4175 5.62 89.4175 5.452V4.724C89.4175 4.53733 89.3895 4.416 89.3335 4.36C89.2775 4.304 89.1561 4.276 88.9695 4.276H83.4255C83.1641 4.276 82.9775 4.22933 82.8655 4.136C82.7535 4.04267 82.6975 3.856 82.6975 3.576V0.999998C82.6975 0.719999 82.7535 0.533332 82.8655 0.439999C82.9775 0.346666 83.1641 0.299999 83.4255 0.299999H91.7975C92.8055 0.299999 93.5055 0.542666 93.8975 1.028C94.3081 1.51333 94.5135 2.26933 94.5135 3.296V8.896ZM84.3495 17.52C84.3495 17.24 84.4055 17.0533 84.5175 16.96C84.6295 16.8667 84.8161 16.82 85.0775 16.82H106.497C106.759 16.82 106.945 16.8667 107.057 16.96C107.169 17.0533 107.225 17.24 107.225 17.52V26.2C107.225 26.48 107.169 26.6667 107.057 26.76C106.945 26.8533 106.759 26.9 106.497 26.9H102.577C102.316 26.9 102.129 26.8533 102.017 26.76C101.905 26.6667 101.849 26.48 101.849 26.2V21.468H85.0775C84.8161 21.468 84.6295 21.4213 84.5175 21.328C84.4055 21.2347 84.3495 21.048 84.3495 20.768V17.52Z" fill="white"/>
</svg>
