<svg width="146" height="132" viewBox="0 0 146 132" fill="none" xmlns="http://www.w3.org/2000/svg">
<path d="M38.0557 16.4072C71.429 -9.48118 113.66 -0.813903 134.529 28.0342L135.018 28.7197C155.111 57.2735 144.466 98.9787 106.607 118.575C88.7735 127.804 68.9776 131.642 51.7275 130.913C34.4337 130.182 19.9 124.876 12.3721 116.055C0.845018 102.547 -1.49736 84.4671 3.44434 66.2969C8.38747 48.1215 20.6073 29.9385 38.0557 16.4072Z" fill="white" stroke="#84AFFB" stroke-width="2"/>
<path d="M20.441 63.2812C20.441 65.4688 21.7379 67.9531 23.9723 68.9844L23.0035 70.3594C21.4098 69.6094 20.2301 68.0938 19.5973 66.3281C18.9567 68.2656 17.7223 69.9219 16.0973 70.7031L15.0817 69.3438C17.3317 68.2812 18.691 65.625 18.7067 63.2812V62.0938H15.6285V60.6562H23.3942V62.0938H20.441V63.2812ZM26.441 59.2656V64.7656H28.6129V66.2188H26.441V73.3906H24.7067V59.2656H26.441ZM41.0348 59.2812V69.6406H39.3004V66.1406H35.941C35.2614 66.8984 34.2614 67.3594 33.1285 67.3594C31.0035 67.3594 29.3942 65.8281 29.3942 63.75C29.3942 61.6406 31.0035 60.125 33.1285 60.125C34.2535 60.125 35.2457 60.5781 35.9254 61.3281H39.3004V59.2812H41.0348ZM41.3942 71.7031V73.1094H31.7692V68.5781H33.5035V71.7031H41.3942ZM33.1285 61.6719C31.9098 61.6719 31.0504 62.4844 31.0504 63.75C31.0504 65 31.9098 65.8125 33.1285 65.8125C34.2848 65.8125 35.1598 65 35.1754 63.75C35.1598 62.4844 34.2848 61.6719 33.1285 61.6719ZM36.691 62.7344C36.777 63.0547 36.8317 63.3906 36.8317 63.75C36.8317 64.0938 36.7848 64.4219 36.7067 64.7344H39.3004V62.7344H36.691ZM46.8942 60.2969C48.8082 60.2969 50.2223 61.8906 50.4723 64.4688H53.1598V59.2656H54.8785V73.4062H53.1598V65.875H50.4879C50.3004 68.6016 48.8629 70.2812 46.8942 70.2812C44.7692 70.2812 43.2692 68.3594 43.2692 65.2812C43.2692 62.2344 44.7692 60.2969 46.8942 60.2969ZM46.8942 61.8594C45.7223 61.8594 44.9254 63.125 44.941 65.2812C44.9254 67.4531 45.7223 68.7188 46.8942 68.7188C48.066 68.7188 48.8473 67.4531 48.8629 65.2812C48.8473 63.125 48.066 61.8594 46.8942 61.8594ZM68.7067 59.2656V73.4062H66.9723V66.1875H64.2379V64.7812H66.9723V59.2656H68.7067ZM62.0192 63.75C62.0035 65.8906 63.2848 68.1719 65.5192 69.1562L64.5817 70.4844C62.9645 69.7969 61.7926 68.3828 61.1754 66.6875C60.5504 68.4844 59.3864 69.9922 57.7692 70.7188L56.8317 69.375C59.0348 68.375 60.2848 65.9688 60.2848 63.75V63.0156H57.2535V61.625H60.3004V59.5625H62.0348V61.625H64.9879V63.0156H62.0192V63.75ZM82.4567 59.2656V73.4062H80.7379V59.2656H82.4567ZM78.1129 60.5V65.7969H73.2535V68.6406C75.4801 68.625 77.402 68.5156 79.5973 68.1406L79.7535 69.5625C77.3473 69.9844 75.2379 70.0625 72.7067 70.0625H71.4723V64.4219H76.3473V61.9062H71.4567V60.5H78.1129ZM100.144 59.2812V69.6406H98.4098V66.1406H95.0504C94.3707 66.8984 93.3707 67.3594 92.2379 67.3594C90.1129 67.3594 88.5035 65.8281 88.5035 63.75C88.5035 61.6406 90.1129 60.125 92.2379 60.125C93.3629 60.125 94.3551 60.5781 95.0348 61.3281H98.4098V59.2812H100.144ZM100.504 71.7031V73.1094H90.8785V68.5781H92.6129V71.7031H100.504ZM92.2379 61.6719C91.0192 61.6719 90.1598 62.4844 90.1598 63.75C90.1598 65 91.0192 65.8125 92.2379 65.8125C93.3942 65.8125 94.2692 65 94.2848 63.75C94.2692 62.4844 93.3942 61.6719 92.2379 61.6719ZM95.8004 62.7344C95.8864 63.0547 95.941 63.3906 95.941 63.75C95.941 64.0938 95.8942 64.4219 95.816 64.7344H98.4098V62.7344H95.8004ZM113.441 60.125V61.3906C113.441 62.7109 113.441 64.1562 113.066 66.1562H115.019V67.5625H109.41V73.4062H107.66V67.5625H102.144V66.1562H111.3C111.691 64.2344 111.707 62.7969 111.707 61.5312H103.66V60.125H113.441ZM127.816 59.2812V69.9688H126.066V68.7344H123.3V67.5156H126.066V59.2812H127.816ZM128.144 71.7031V73.1094H117.785V68.9375H119.519V71.7031H128.144ZM115.91 65.625C118.519 65.6094 122.019 65.5781 125.019 65.2031L125.113 66.4531C123.949 66.6484 122.746 66.7812 121.55 66.8594V69.5781H119.816V66.9531C118.496 67.0078 117.238 67.0156 116.129 67.0156L115.91 65.625ZM120.519 59.7969C122.582 59.7969 124.019 60.8125 124.035 62.2969C124.019 63.8125 122.582 64.7812 120.519 64.7812C118.425 64.7812 116.988 63.8125 116.988 62.2969C116.988 60.8125 118.425 59.7969 120.519 59.7969ZM120.519 61.0781C119.394 61.0781 118.629 61.5312 118.629 62.2969C118.629 63.0625 119.394 63.5156 120.519 63.5156C121.597 63.5156 122.363 63.0625 122.379 62.2969C122.363 61.5312 121.597 61.0781 120.519 61.0781Z" fill="black"/>
</svg>
