<svg width="146" height="132" viewBox="0 0 146 132" fill="none" xmlns="http://www.w3.org/2000/svg">
<path d="M38.0557 16.4072C71.429 -9.48118 113.66 -0.813903 134.529 28.0342L135.018 28.7197C155.111 57.2735 144.466 98.9787 106.607 118.575C88.7735 127.804 68.9776 131.642 51.7275 130.913C34.4337 130.182 19.9 124.876 12.3721 116.055C0.845018 102.547 -1.49736 84.4671 3.44434 66.2969C8.38747 48.1215 20.6073 29.9385 38.0557 16.4072Z" fill="white" stroke="#84AFFB" stroke-width="2"/>
<path d="M14.8629 61.2031C14.8629 63.3906 17.0035 65.5781 19.9567 66.0938L19.1754 67.5469C16.8082 67.0469 14.8707 65.6172 13.9567 63.7188C13.0192 65.6016 11.0817 67.0391 8.72229 67.5469L7.95667 66.0938C10.8785 65.5625 13.0035 63.375 13.0192 61.2031V60.1562H14.8629V61.2031ZM20.4723 70.1562V71.5938H7.56604V70.1562H20.4723ZM28.5817 60.6406V69.8906H21.8942V60.6406H28.5817ZM23.5973 62V68.5H26.8473V62H23.5973ZM32.4567 59.2656V64.6875H34.6285V66.1562H32.4567V73.3906H30.7223V59.2656H32.4567ZM46.7067 66.6719V68.0469H36.8004V60.375H46.5817V61.7812H38.566V63.4844H46.2535V64.8438H38.566V66.6719H46.7067ZM48.1285 70.25V71.6719H35.2223V70.25H48.1285ZM58.191 62.6562C58.1754 65.25 59.5348 67.8438 61.8317 68.8281L60.8004 70.2188C59.1754 69.4688 57.9801 67.9688 57.3317 66.125C56.6832 68.1172 55.4723 69.7422 53.7535 70.5469L52.691 69.0938C55.0504 68.0781 56.4254 65.375 56.4254 62.6562V60.4062H58.191V62.6562ZM64.5973 59.2656V73.4062H62.8473V59.2656H64.5973ZM73.9723 61.2031C73.9723 63.3906 76.1129 65.5781 79.066 66.0938L78.2848 67.5469C75.9176 67.0469 73.9801 65.6172 73.066 63.7188C72.1285 65.6016 70.191 67.0391 67.8317 67.5469L67.066 66.0938C69.9879 65.5625 72.1129 63.375 72.1285 61.2031V60.1562H73.9723V61.2031ZM79.5817 70.1562V71.5938H66.6754V70.1562H79.5817ZM86.4723 60.1406V61.5469H82.7692V62.875H85.941V64.2188H82.7692V65.6719C84.4645 65.6562 85.6285 65.5938 87.0035 65.3438L87.191 66.7031C85.566 67 84.2223 67.0625 82.0348 67.0625H81.0973V60.1406H86.4723ZM92.5817 59.2656V67.7188H90.9254V59.2656H92.5817ZM89.8004 59.5V67.6094H88.1442V64.125H86.5504V62.7188H88.1442V59.5H89.8004ZM92.5817 68.3125V73.2188H83.0504V68.3125H92.5817ZM84.7848 69.6875V71.8125H90.8629V69.6875H84.7848ZM110.254 59.2656V73.3906H108.582V66.1406H107.066V72.7344H105.441V59.6406H107.066V64.7344H108.582V59.2656H110.254ZM104.238 61.0469C104.238 64.8594 103.035 68.1406 99.0192 70.4375L98.0192 69.2344C101.027 67.4922 102.3 65.2578 102.55 62.4375H98.6754V61.0469H104.238ZM114.16 59.8906V61.6875H117.457V59.8906H119.175V66.0469H112.441V59.8906H114.16ZM114.16 64.6719H117.457V63H114.16V64.6719ZM123.097 59.2656V62.125H125.066V63.5312H123.097V66.5H121.363V59.2656H123.097ZM123.097 67.0625V70.7656H115.597V71.8906H123.535V73.2656H113.879V69.5H121.363V68.4219H113.863V67.0625H123.097ZM130.847 63.2812C130.847 65.4688 132.144 67.9531 134.379 68.9844L133.41 70.3594C131.816 69.6094 130.636 68.0938 130.004 66.3281C129.363 68.2656 128.129 69.9219 126.504 70.7031L125.488 69.3438C127.738 68.2812 129.097 65.625 129.113 63.2812V62.0938H126.035V60.6562H133.8V62.0938H130.847V63.2812ZM136.847 59.2656V64.7656H139.019V66.2188H136.847V73.3906H135.113V59.2656H136.847Z" fill="black"/>
</svg>
